SplineFontDB: 3.0
FontName: Midway-Italic
FullName: Midway Italic
FamilyName: Midway
Weight: Book
Copyright: Copyright 2011 Canonical Ltd.\nCopyright 2015 Yuta Taniguchi\nLicensed under the Ubuntu Font Licence 1.0
Version: 0.1
ItalicAngle: -13
UnderlinePosition: -156
UnderlineWidth: 23
Ascent: 800
Descent: 200
InvalidEm: 0
sfntRevision: 0x0000199a
LayerCount: 2
Layer: 0 1 "Back" 1
Layer: 1 1 "Fore" 0
XUID: [1021 935 -1301570125 639830]
StyleMap: 0x0001
FSType: 0
OS2Version: 3
OS2_WeightWidthSlopeOnly: 0
OS2_UseTypoMetrics: 0
CreationTime: 1304432203
ModificationTime: 1558229932
PfmFamily: 49
TTFWeight: 400
TTFWidth: 5
LineGap: 0
VLineGap: 0
Panose: 2 11 5 9 3 6 2 10 2 4
OS2TypoAscent: 994
OS2TypoAOffset: 0
OS2TypoDescent: -211
OS2TypoDOffset: 0
OS2TypoLinegap: 0
OS2WinAscent: 994
OS2WinAOffset: 0
OS2WinDescent: 211
OS2WinDOffset: 0
HheadAscent: 994
HheadAOffset: 0
HheadDescent: -211
HheadDOffset: 0
OS2SubXSize: 824
OS2SubYSize: 766
OS2SubXOff: 0
OS2SubYOff: 165
OS2SupXSize: 824
OS2SupYSize: 766
OS2SupXOff: 0
OS2SupYOff: 562
OS2StrikeYSize: 59
OS2StrikeYPos: 294
OS2CapHeight: 729
OS2XHeight: 547
OS2Vendor: 'DAMA'
OS2CodePages: 2000009f.56010000
OS2UnicodeRanges: e00002ff.5000205b.00000000.00000000
Lookup: 1 0 0 "'locl' Localized Forms in Latin lookup 0" { "'locl' Localized Forms in Latin lookup 0 subtable"  } ['locl' ('latn' <'AZE ' > ) ]
Lookup: 1 0 0 "'locl' Localized Forms in Latin lookup 1" { "'locl' Localized Forms in Latin lookup 1 subtable"  } ['locl' ('latn' <'TRK ' > ) ]
Lookup: 1 0 0 "'locl' Localized Forms in Latin lookup 2" { "'locl' Localized Forms in Latin lookup 2 subtable"  } ['locl' ('latn' <'CRT ' > ) ]
Lookup: 1 0 0 "'locl' Localized Forms in Cyrillic lookup 3" { "'locl' Localized Forms in Cyrillic lookup 3 subtable"  } ['locl' ('cyrl' <'SRB ' > ) ]
Lookup: 1 0 0 "'locl' Localized Forms in Cyrillic lookup 4" { "'locl' Localized Forms in Cyrillic lookup 4 subtable"  } ['locl' ('cyrl' <'BGR ' > ) ]

StartChar: SF030000.001
Encoding: 65536 -1 0
Width: 550
VWidth: 1177
Flags: W
LayerCount: 2
Fore
SplineSet
-3.8349609375 0 m 1,0,-1
 -3.8349609375 883 l 1,1,-1
 -3.8349609375 893 l 1,2,-1
 6.1650390625 893 l 1,3,-1
 477.165039062 893 l 1,4,-1
 487.165039062 893 l 1,5,-1
 487.165039062 883 l 1,6,-1
 487.165039062 0 l 1,7,-1
 487.165039062 -10 l 1,8,-1
 477.165039062 -10 l 1,9,-1
 6.1650390625 -10 l 1,10,-1
 -3.8349609375 -10 l 1,11,-1
 -3.8349609375 0 l 1,0,-1
408.165039062 69 m 1,12,-1
 408.165039062 814 l 1,13,-1
 75.1650390625 814 l 1,14,-1
 75.1650390625 69 l 1,15,-1
 408.165039062 69 l 1,12,-1
EndSplineSet
EndChar

StartChar: exclam
Encoding: 33 33 4
Width: 550
VWidth: 1177
Flags: W
LayerCount: 2
Fore
SplineSet
433.428710938 528.6328125 m 2,0,1
 429.734375 513.860351562 429.734375 513.860351562 426.169921875 500.043945312 c 256,2,3
 422.604492188 486.227539062 422.604492188 486.227539062 419.15234375 473.3125 c 256,4,5
 415.701171875 460.397460938 415.701171875 460.397460938 412.34765625 448.323242188 c 256,6,7
 408.998046875 436.266601562 408.998046875 436.266601562 405.592773438 424.543945312 c 256,8,9
 402.1875 412.821289062 402.1875 412.821289062 398.724609375 401.42578125 c 256,10,11
 395.26171875 390.030273438 395.26171875 390.030273438 391.741210938 378.967773438 c 0,12,13
 381.192382812 345.81640625 381.192382812 345.81640625 369.639648438 313.1640625 c 0,14,15
 358.198242188 280.83203125 358.198242188 280.83203125 347.251953125 246.001953125 c 2,16,-1
 345.051757812 239 l 1,17,-1
 337.711914062 239 l 1,18,-1
 269.711914062 239 l 1,19,-1
 258.181640625 239 l 1,20,-1
 259.8125 250.4140625 l 2,21,22
 264.798828125 285.325195312 264.798828125 285.325195312 268.786132812 317.721679688 c 0,23,24
 272.813476562 350.4375 272.813476562 350.4375 278.34765625 383.643554688 c 256,25,26
 283.870117188 416.77734375 283.870117188 416.77734375 290.890625 453.383789062 c 256,27,28
 297.948242188 490.182617188 297.948242188 490.182617188 309.001953125 533.39453125 c 2,29,-1
 355.982421875 731.309570312 l 1,30,-1
 357.807617188 739 l 1,31,-1
 365.711914062 739 l 1,32,-1
 470.711914062 739 l 1,33,-1
 483.36328125 739 l 1,34,-1
 480.44140625 726.690429688 l 1,35,-1
 433.428710938 528.6328125 l 2,0,1
255.711914062 -24 m 0,36,37
 220.80859375 -24 220.80859375 -24 198.9375 -3.85546875 c 0,38,39
 176.711914062 16.615234375 176.711914062 16.615234375 176.711914062 57 c 0,40,41
 176.711914062 79.6875 176.711914062 79.6875 183.428710938 98.0224609375 c 256,42,43
 190.145507812 116.357421875 190.145507812 116.357421875 203.715820312 129.645507812 c 0,44,45
 217.037109375 142.689453125 217.037109375 142.689453125 233.462890625 149.344726562 c 256,46,47
 249.888671875 156 249.888671875 156 268.711914062 156 c 0,48,49
 275.513671875 156 275.513671875 156 281.940429688 155.189453125 c 256,50,51
 288.368164062 154.379882812 288.368164062 154.379882812 294.434570312 152.7421875 c 256,52,53
 300.501953125 151.10546875 300.501953125 151.10546875 306.118164062 148.66015625 c 256,54,55
 311.735351562 146.21484375 311.735351562 146.21484375 316.935546875 142.916992188 c 256,56,57
 322.135742188 139.618164062 322.135742188 139.618164062 326.810546875 135.514648438 c 0,58,59
 338.873046875 124.922851562 338.873046875 124.922851562 344.791992188 109.329101562 c 256,60,61
 350.711914062 93.7353515625 350.711914062 93.7353515625 350.711914062 74 c 0,62,63
 349.8828125 28.41796875 349.8828125 28.41796875 320.846679688 2.0185546875 c 0,64,65
 291.506835938 -24 291.506835938 -24 255.711914062 -24 c 0,36,37
EndSplineSet
EndChar

StartChar: quotedbl
Encoding: 34 34 5
Width: 550
VWidth: 1177
Flags: W
LayerCount: 2
Fore
SplineSet
395.758789062 797.618164062 m 1,0,-1
 382.75390625 744.596679688 l 2,1,2
 376.197265625 718.369140625 376.197265625 718.369140625 367.53125 688.604492188 c 256,3,4
 358.865234375 658.838867188 358.865234375 658.838867188 348.0625 625.423828125 c 0,5,6
 344.4609375 614.286132812 344.4609375 614.286132812 340.818359375 603.440429688 c 256,7,8
 337.174804688 592.594726562 337.174804688 592.594726562 333.48828125 582.037109375 c 256,9,10
 329.801757812 571.478515625 329.801757812 571.478515625 326.0703125 561.209960938 c 256,11,12
 322.340820312 550.942382812 322.340820312 550.942382812 318.567382812 540.962890625 c 256,13,14
 314.79296875 530.984375 314.79296875 530.984375 310.975585938 521.29296875 c 256,15,16
 307.158203125 511.6015625 307.158203125 511.6015625 303.296875 502.201171875 c 2,17,-1
 300.75 496 l 1,18,-1
 294.046875 496 l 1,19,-1
 244.046875 496 l 1,20,-1
 232.896484375 496 l 1,21,-1
 234.10546875 507.084960938 l 2,22,23
 237.118164062 534.6953125 237.118164062 534.6953125 241.130859375 565.290039062 c 256,24,25
 245.143554688 595.884765625 245.143554688 595.884765625 250.15625 629.4765625 c 0,26,27
 260.224609375 696.93359375 260.224609375 696.93359375 273.318359375 750.315429688 c 2,28,-1
 285.302734375 802.249023438 l 1,29,-1
 287.091796875 810 l 1,30,-1
 295.046875 810 l 1,31,-1
 386.046875 810 l 1,32,-1
 398.795898438 810 l 1,33,-1
 395.758789062 797.618164062 l 1,0,-1
588.799804688 797.791992188 m 1,34,-1
 576.775390625 744.682617188 l 2,35,36
 563.674804688 692.279296875 563.674804688 692.279296875 542.583007812 625.48828125 c 0,37,38
 532.0234375 592.049804688 532.0234375 592.049804688 520.953125 561.23046875 c 256,39,40
 509.883789062 530.411132812 509.883789062 530.411132812 498.296875 502.201171875 c 2,41,-1
 495.75 496 l 1,42,-1
 489.046875 496 l 1,43,-1
 440.046875 496 l 1,44,-1
 429.096679688 496 l 1,45,-1
 430.087890625 506.905273438 l 2,46,47
 431.762695312 525.321289062 431.762695312 525.321289062 433.881835938 545.067382812 c 256,48,49
 436.000976562 564.814453125 436.000976562 564.814453125 438.564453125 585.874023438 c 256,50,51
 441.127929688 606.934570312 441.127929688 606.934570312 444.13671875 629.331054688 c 0,52,53
 445.04296875 636.078125 445.04296875 636.078125 445.98828125 642.681640625 c 256,54,55
 446.934570312 649.284179688 446.934570312 649.284179688 447.921875 655.751953125 c 256,56,57
 448.908203125 662.21875 448.908203125 662.21875 449.935546875 668.544921875 c 256,58,59
 450.962890625 674.870117188 450.962890625 674.870117188 452.03125 681.060546875 c 256,60,61
 453.099609375 687.25 453.099609375 687.25 454.209960938 693.30078125 c 256,62,63
 455.318359375 699.3515625 455.318359375 699.3515625 456.46875 705.265625 c 256,64,65
 457.620117188 711.180664062 457.620117188 711.180664062 458.811523438 716.958007812 c 256,66,67
 460.00390625 722.736328125 460.00390625 722.736328125 461.237304688 728.376953125 c 256,68,69
 462.471679688 734.018554688 462.471679688 734.018554688 463.747070312 739.526367188 c 256,70,71
 465.0234375 745.033203125 465.0234375 745.033203125 466.33984375 750.403320312 c 2,72,-1
 479.345703125 802.42578125 l 1,73,-1
 481.239257812 810 l 1,74,-1
 489.046875 810 l 1,75,-1
 579.046875 810 l 1,76,-1
 591.563476562 810 l 1,77,-1
 588.799804688 797.791992188 l 1,34,-1
EndSplineSet
EndChar

StartChar: numbersign
Encoding: 35 35 6
Width: 550
VWidth: 1177
Flags: W
LayerCount: 2
Fore
SplineSet
353.708007812 -10 m 1,0,-1
 265.708007812 -10 l 1,1,-1
 250.41796875 -10 l 1,2,-1
 256.545898438 4.0078125 l 1,3,-1
 334.416992188 182 l 1,4,-1
 225.248046875 182 l 1,5,-1
 143.870117188 -4.0078125 l 1,6,-1
 141.248046875 -10 l 1,7,-1
 134.708007812 -10 l 1,8,-1
 47.7080078125 -10 l 1,9,-1
 32.4912109375 -10 l 1,10,-1
 38.529296875 3.9677734375 l 1,11,-1
 115.490234375 182 l 1,12,-1
 54.7080078125 182 l 1,13,-1
 42.017578125 182 l 1,14,-1
 44.9853515625 194.338867188 l 1,15,-1
 63.9853515625 273.338867188 l 1,16,-1
 65.828125 281 l 1,17,-1
 73.7080078125 281 l 1,18,-1
 157.141601562 281 l 1,19,-1
 229.478515625 448 l 1,20,-1
 118.708007812 448 l 1,21,-1
 105.979492188 448 l 1,22,-1
 108.9921875 460.366210938 l 1,23,-1
 127.9921875 538.366210938 l 1,24,-1
 129.8515625 546 l 1,25,-1
 137.708007812 546 l 1,26,-1
 274.090820312 546 l 1,27,-1
 353.504882812 732.91015625 l 1,28,-1
 356.090820312 739 l 1,29,-1
 362.708007812 739 l 1,30,-1
 450.708007812 739 l 1,31,-1
 465.75 739 l 1,32,-1
 459.928710938 725.129882812 l 1,33,-1
 384.75 546 l 1,34,-1
 492.123046875 546 l 1,35,-1
 572.521484375 732.950195312 l 1,36,-1
 575.123046875 739 l 1,37,-1
 581.708007812 739 l 1,38,-1
 669.708007812 739 l 1,39,-1
 684.821289062 739 l 1,40,-1
 678.912109375 725.08984375 l 1,41,-1
 602.821289062 546 l 1,42,-1
 663.708007812 546 l 1,43,-1
 676.435546875 546 l 1,44,-1
 673.423828125 533.633789062 l 1,45,-1
 654.423828125 455.633789062 l 1,46,-1
 652.564453125 448 l 1,47,-1
 644.708007812 448 l 1,48,-1
 559.274414062 448 l 1,49,-1
 486.9375 281 l 1,50,-1
 598.708007812 281 l 1,51,-1
 611.243164062 281 l 1,52,-1
 608.458007812 268.778320312 l 1,53,-1
 590.458007812 189.778320312 l 1,54,-1
 588.685546875 182 l 1,55,-1
 580.708007812 182 l 1,56,-1
 444.248046875 182 l 1,57,-1
 362.870117188 -4.0078125 l 1,58,-1
 360.248046875 -10 l 1,59,-1
 353.708007812 -10 l 1,0,-1
448.478515625 448 m 1,60,-1
 340.274414062 448 l 1,61,-1
 267.9375 281 l 1,62,-1
 376.141601562 281 l 1,63,-1
 448.478515625 448 l 1,60,-1
EndSplineSet
EndChar

StartChar: dollar
Encoding: 36 36 7
Width: 550
VWidth: 1177
Flags: W
LayerCount: 2
Fore
SplineSet
170.168945312 133.859375 m 0,0,1
 209.005859375 118.948242188 209.005859375 118.948242188 271.522460938 118.948242188 c 0,2,3
 287.512695312 118.948242188 287.512695312 118.948242188 303.232421875 120.138671875 c 128,-1,4
 318.952148438 121.329101562 318.952148438 121.329101562 334.41015625 123.708984375 c 0,5,6
 364.313476562 128.313476562 364.313476562 128.313476562 387.55859375 140.6484375 c 0,7,8
 410.348632812 152.744140625 410.348632812 152.744140625 424.872070312 172.421875 c 0,9,10
 438.923828125 191.4609375 438.923828125 191.4609375 438.924804688 221.719726562 c 0,11,12
 438.923828125 232.34375 438.923828125 232.34375 436.727539062 240.9921875 c 128,-1,13
 434.532226562 249.641601562 434.532226562 249.641601562 430.272460938 256.4765625 c 0,14,15
 425.71484375 263.786132812 425.71484375 263.786132812 419.567382812 270.46875 c 128,-1,16
 413.418945312 277.151367188 413.418945312 277.151367188 405.603515625 283.2421875 c 128,-1,17
 397.703125 289.401367188 397.703125 289.401367188 387.936523438 295.069335938 c 128,-1,18
 378.168945312 300.737304688 378.168945312 300.737304688 366.544921875 305.873046875 c 0,19,20
 354.419921875 311.23046875 354.419921875 311.23046875 341.30078125 317.166015625 c 128,-1,21
 328.182617188 323.1015625 328.182617188 323.1015625 314.623046875 329.365234375 c 0,22,23
 288.775390625 340.30859375 288.775390625 340.30859375 264.921875 353.83203125 c 0,24,25
 261.845703125 355.575195312 261.845703125 355.575195312 258.844726562 357.41796875 c 128,-1,26
 255.84375 359.260742188 255.84375 359.260742188 252.923828125 361.200195312 c 128,-1,27
 250.002929688 363.139648438 250.002929688 363.139648438 247.16015625 365.17578125 c 128,-1,28
 244.31640625 367.212890625 244.31640625 367.212890625 241.553710938 369.345703125 c 128,-1,29
 238.791015625 371.477539062 238.791015625 371.477539062 236.107421875 373.70703125 c 128,-1,30
 233.423828125 375.935546875 233.423828125 375.935546875 230.818359375 378.259765625 c 128,-1,31
 228.21484375 380.583984375 228.21484375 380.583984375 225.692382812 383.002929688 c 128,-1,32
 223.168945312 385.422851562 223.168945312 385.422851562 220.727539062 387.936523438 c 0,33,34
 201.01171875 408.23046875 201.01171875 408.23046875 188.139648438 436.151367188 c 0,35,36
 175.107421875 464.416015625 175.107421875 464.416015625 175.108398438 502.627929688 c 0,37,38
 175.108398438 541.125 175.108398438 541.125 189.598632812 573.879882812 c 128,-1,39
 204.092773438 606.633789062 204.092773438 606.633789062 232.811523438 632.908203125 c 0,40,41
 287.938476562 683.340820312 287.938476562 683.340820312 392.120117188 697.374023438 c 1,42,-1
 420.130859375 808.272460938 l 1,43,-1
 422.041015625 816 l 1,44,-1
 430.448242188 816 l 1,45,-1
 521.56640625 816 l 1,46,-1
 534.30859375 816 l 1,47,-1
 531.387695312 803.952148438 l 1,48,-1
 504.939453125 699.08984375 l 1,49,50
 519.858398438 697.17578125 519.858398438 697.17578125 532.224609375 694.764648438 c 128,-1,51
 544.40234375 692.353515625 544.40234375 692.353515625 555.470703125 689.303710938 c 128,-1,52
 566.5390625 686.252929688 566.5390625 686.252929688 577.596679688 682.290039062 c 0,53,54
 595.841796875 675.75 595.841796875 675.75 610.15625 669.1875 c 128,-1,55
 624.469726562 662.625976562 624.469726562 662.625976562 635.107421875 655.857421875 c 2,56,-1
 643.212890625 650.701171875 l 1,57,-1
 638.22265625 642.598632812 l 1,58,-1
 594.22265625 571.147460938 l 1,59,-1
 588.612304688 562.038085938 l 1,60,-1
 579.802734375 568.265625 l 2,61,62
 571.662109375 574.020507812 571.662109375 574.020507812 559.278320312 579.616210938 c 128,-1,63
 546.893554688 585.212890625 546.893554688 585.212890625 530.580078125 590.37890625 c 0,64,65
 513.985351562 595.46875 513.985351562 595.46875 492.240234375 598.069335938 c 128,-1,66
 470.493164062 600.669921875 470.493164062 600.669921875 444.221679688 600.669921875 c 0,67,68
 428.345703125 600.669921875 428.345703125 600.669921875 413.559570312 599.256835938 c 128,-1,69
 398.7734375 597.84375 398.7734375 597.84375 385.069335938 595.030273438 c 0,70,71
 358.140625 589.501953125 358.140625 589.501953125 338.424804688 578.57421875 c 0,72,73
 328.908203125 573.299804688 328.908203125 573.299804688 321.532226562 566.485351562 c 128,-1,74
 314.157226562 559.671875 314.157226562 559.671875 308.725585938 551.163085938 c 0,75,76
 298.010742188 534.377929688 298.010742188 534.377929688 298.009765625 511.6015625 c 0,77,78
 298.009765625 473 298.009765625 473 322.436523438 453.415039062 c 0,79,80
 349.47265625 431.73828125 349.47265625 431.73828125 404.223632812 406.92578125 c 0,81,82
 435.133789062 394.125976562 435.133789062 394.125976562 463.01953125 380.254882812 c 0,83,84
 491.995117188 365.840820312 491.995117188 365.840820312 513.7890625 345.19140625 c 0,85,86
 535.125 324.303710938 535.125 324.303710938 547.358398438 296.19140625 c 0,87,88
 553.553710938 281.954101562 553.553710938 281.954101562 556.60546875 265.328125 c 128,-1,89
 559.658203125 248.703125 559.658203125 248.703125 559.658203125 229.71484375 c 0,90,91
 559.658203125 206.26171875 559.658203125 206.26171875 555.451171875 185.2890625 c 128,-1,92
 551.244140625 164.31640625 551.244140625 164.31640625 542.774414062 145.922851562 c 0,93,94
 525.90625 109.291015625 525.90625 109.291015625 493.673828125 82.4619140625 c 0,95,96
 477.578125 69.130859375 477.578125 69.130859375 458.354492188 58.3984375 c 128,-1,97
 439.129882812 47.666015625 439.129882812 47.666015625 416.858398438 39.5380859375 c 0,98,99
 375.944335938 24.6064453125 375.944335938 24.6064453125 326.783203125 19.1240234375 c 1,100,-1
 295.622070312 -106.23828125 l 1,101,-1
 293.733398438 -114 l 1,102,-1
 285.295898438 -114 l 1,103,-1
 194.178710938 -114 l 1,104,-1
 180.705078125 -114 l 1,105,-1
 183.8828125 -101.904296875 l 1,106,-1
 215.836914062 19.75 l 1,107,108
 164.1171875 23.1513671875 164.1171875 23.1513671875 122.19140625 38.3173828125 c 0,109,110
 75.03125 55.3759765625 75.03125 55.3759765625 55.0107421875 68.783203125 c 2,111,-1
 47.1025390625 74.0791015625 l 1,112,-1
 52.171875 82.0390625 l 1,113,-1
 100.171875 157.404296875 l 1,114,-1
 105.493164062 165.759765625 l 1,115,-1
 113.998046875 160.501953125 l 2,116,117
 132.280273438 149.201171875 132.280273438 149.201171875 170.168945312 133.859375 c 0,0,1
EndSplineSet
EndChar

StartChar: percent
Encoding: 37 37 8
Width: 550
VWidth: 1177
Flags: W
LayerCount: 2
Fore
SplineSet
102.688476562 -10 m 1,0,-1
 98.06640625 -10 l 1,1,-1
 13.06640625 -10 l 1,2,-1
 -8.5888671875 -10 l 1,3,-1
 5.4541015625 6.484375 l 1,4,-1
 646.454101562 735.484375 l 1,5,-1
 649.448242188 739 l 1,6,-1
 654.06640625 739 l 1,7,-1
 738.06640625 739 l 1,8,-1
 759.698242188 739 l 1,9,-1
 745.68359375 722.521484375 l 1,10,-1
 105.68359375 -6.478515625 l 1,11,-1
 102.688476562 -10 l 1,0,-1
144.102539062 402.682617188 m 0,12,13
 114.170898438 436.541015625 114.170898438 436.541015625 114.170898438 499.44140625 c 0,14,15
 114.170898438 511.174804688 114.170898438 511.174804688 115.181640625 523.706054688 c 128,-1,16
 116.193359375 536.23828125 116.193359375 536.23828125 118.197265625 549.487304688 c 128,-1,17
 120.203125 562.736328125 120.203125 562.736328125 123.20703125 576.807617188 c 0,18,19
 132.359375 619.677734375 132.359375 619.677734375 153.934570312 656.057617188 c 0,20,21
 175.750976562 692.845703125 175.750976562 692.845703125 210.166015625 717.919921875 c 0,22,23
 227.951171875 730.87890625 227.951171875 730.87890625 249.809570312 737.3515625 c 128,-1,24
 271.665039062 744 271.665039062 744 297.095703125 744 c 0,25,26
 412.463867188 744 412.463867188 744 412.463867188 616.393554688 c 0,27,28
 412.462890625 606.620117188 412.462890625 606.620117188 412.065429688 597.21484375 c 128,-1,29
 411.66796875 587.810546875 411.66796875 587.810546875 410.87109375 578.741210938 c 128,-1,30
 410.07421875 569.671875 410.07421875 569.671875 408.872070312 560.958984375 c 128,-1,31
 407.669921875 552.247070312 407.669921875 552.247070312 406.063476562 543.884765625 c 128,-1,32
 404.458984375 535.522460938 404.458984375 535.522460938 402.443359375 527.50390625 c 128,-1,33
 400.42578125 519.486328125 400.42578125 519.486328125 398.002929688 511.830078125 c 0,34,35
 383.44921875 465.858398438 383.44921875 465.858398438 358.44921875 434.278320312 c 0,36,37
 333.216796875 402.404296875 333.216796875 402.404296875 300.610351562 385.311523438 c 0,38,39
 284.172851562 376.6953125 284.172851562 376.6953125 266.600585938 372.34765625 c 128,-1,40
 249.028320312 368 249.028320312 368 230.578125 368 c 0,41,42
 216.942382812 368 216.942382812 368 204.645507812 370.15625 c 128,-1,43
 192.350585938 372.3125 192.350585938 372.3125 181.462890625 376.61328125 c 128,-1,44
 170.576171875 380.915039062 170.576171875 380.915039062 161.173828125 387.459960938 c 128,-1,45
 151.772460938 394.005859375 151.772460938 394.005859375 144.102539062 402.682617188 c 0,12,13
219.606445312 463.865234375 m 0,46,47
 226.606445312 451 226.606445312 451 242.009765625 451 c 0,48,49
 259.704101562 451 259.704101562 451 272.6953125 466.786132812 c 0,50,51
 287.86328125 485.216796875 287.86328125 485.216796875 297.721679688 510.127929688 c 0,52,53
 307.732421875 535.42578125 307.732421875 535.42578125 311.740234375 562.580078125 c 0,54,55
 313.774414062 576.357421875 313.774414062 576.357421875 314.7890625 587.436523438 c 128,-1,56
 315.803710938 598.514648438 315.803710938 598.514648438 315.803710938 606.657226562 c 0,57,58
 315.803710938 620.493164062 315.803710938 620.493164062 313.547851562 631.39453125 c 128,-1,59
 311.29296875 642.295898438 311.29296875 642.295898438 307.028320312 650.134765625 c 0,60,61
 303.232421875 657.108398438 303.232421875 657.108398438 298.254882812 660.053710938 c 128,-1,62
 293.275390625 663 293.275390625 663 285.663085938 663 c 0,63,64
 274.060546875 663 274.060546875 663 261.435546875 652.559570312 c 0,65,66
 247.342773438 640.90625 247.342773438 640.90625 236.275390625 620.126953125 c 0,67,68
 234.388671875 616.583007812 234.388671875 616.583007812 232.619140625 612.838867188 c 128,-1,69
 230.848632812 609.095703125 230.848632812 609.095703125 229.193359375 605.139648438 c 128,-1,70
 227.536132812 601.184570312 227.536132812 601.184570312 225.999023438 597.021484375 c 128,-1,71
 224.461914062 592.857421875 224.461914062 592.857421875 223.043945312 588.491210938 c 128,-1,72
 221.624023438 584.124023438 221.624023438 584.124023438 220.32421875 579.540039062 c 128,-1,73
 219.025390625 574.956054688 219.025390625 574.956054688 217.850585938 570.17578125 c 0,74,75
 214.345703125 555.916015625 214.345703125 555.916015625 212.587890625 540.688476562 c 128,-1,76
 210.830078125 525.459960938 210.830078125 525.459960938 210.830078125 509.251953125 c 0,77,78
 210.830078125 479.993164062 210.830078125 479.993164062 219.606445312 463.865234375 c 0,46,47
369.288085938 18.5380859375 m 0,79,80
 338.669921875 51.482421875 338.669921875 51.482421875 338.669921875 114.545898438 c 0,81,82
 338.669921875 149.64453125 338.669921875 149.64453125 348.244140625 192.514648438 c 0,83,84
 357.926757812 235.872070312 357.926757812 235.872070312 379.502929688 271.76171875 c 0,85,86
 401.267578125 307.967773438 401.267578125 307.967773438 435.040039062 333.491210938 c 0,87,88
 470.116210938 360 470.116210938 360 521.594726562 360 c 0,89,90
 578.38671875 360 578.38671875 360 607.921875 327.165039062 c 128,-1,91
 637.45703125 294.331054688 637.45703125 294.331054688 638.001953125 232.48046875 c 0,92,93
 638.002929688 220.725585938 638.002929688 220.725585938 637.430664062 209.522460938 c 128,-1,94
 636.859375 198.318359375 636.859375 198.318359375 635.708007812 187.600585938 c 128,-1,95
 634.557617188 176.8828125 634.557617188 176.8828125 632.827148438 166.697265625 c 128,-1,96
 631.095703125 156.510742188 631.095703125 156.510742188 628.774414062 146.807617188 c 128,-1,97
 626.452148438 137.104492188 626.452148438 137.104492188 623.541992188 127.9140625 c 0,98,99
 608.999023438 81.99609375 608.999023438 81.99609375 584.03515625 49.9638671875 c 0,100,101
 557.985351562 17.4658203125 557.985351562 17.4658203125 525.91015625 1.3203125 c 0,102,103
 509.50390625 -6.755859375 509.50390625 -6.755859375 491.998046875 -10.8232421875 c 128,-1,104
 474.493164062 -15 474.493164062 -15 456.116210938 -15 c 0,105,106
 400.458007812 -15 400.458007812 -15 369.288085938 18.5380859375 c 0,79,80
444.15234375 79.2568359375 m 0,107,108
 451.180664062 66 451.180664062 66 466.509765625 66 c 0,109,110
 484.204101562 66 484.204101562 66 497.1953125 81.7900390625 c 0,111,112
 500.95703125 86.36328125 500.95703125 86.36328125 504.396484375 91.3701171875 c 128,-1,113
 507.833984375 96.3759765625 507.833984375 96.3759765625 510.963867188 101.841796875 c 128,-1,114
 514.094726562 107.30859375 514.094726562 107.30859375 516.90625 113.24609375 c 128,-1,115
 519.719726562 119.184570312 519.719726562 119.184570312 522.200195312 125.56640625 c 0,116,117
 532.262695312 151.458007812 532.262695312 151.458007812 536.7890625 178.262695312 c 0,118,119
 539.068359375 191.764648438 539.068359375 191.764648438 540.205078125 202.684570312 c 128,-1,120
 541.342773438 213.604492188 541.342773438 213.604492188 541.342773438 221.690429688 c 0,121,122
 541.342773438 249.09765625 541.342773438 249.09765625 532.518554688 265.743164062 c 0,123,124
 525.490234375 279 525.490234375 279 511.201171875 279 c 0,125,126
 505.685546875 279 505.685546875 279 499.708984375 276.4375 c 128,-1,127
 493.733398438 273.875 493.733398438 273.875 487.11328125 268.196289062 c 0,128,129
 472.856445312 255.96875 472.856445312 255.96875 461.213867188 235.017578125 c 0,130,131
 455.306640625 224.3828125 455.306640625 224.3828125 450.580078125 211.92578125 c 128,-1,132
 445.854492188 199.469726562 445.854492188 199.469726562 442.348632812 185.201171875 c 0,133,134
 435.330078125 156.629882812 435.330078125 156.629882812 435.329101562 125.219726562 c 0,135,136
 435.329101562 95.90234375 435.329101562 95.90234375 444.15234375 79.2568359375 c 0,107,108
EndSplineSet
EndChar

StartChar: ampersand
Encoding: 38 38 9
Width: 550
VWidth: 1177
Flags: W
LayerCount: 2
Fore
SplineSet
374.57421875 337.119140625 m 2,0,1
 388.469726562 313.297851562 388.469726562 313.297851562 403.303710938 291.046875 c 0,2,3
 408.259765625 283.61328125 408.259765625 283.61328125 413.864257812 274.745117188 c 256,4,5
 419.469726562 265.875976562 419.469726562 265.875976562 424.155273438 258.099609375 c 1,6,7
 429.875 270.33203125 429.875 270.33203125 435.19921875 282.953125 c 256,8,9
 440.5234375 295.57421875 440.5234375 295.57421875 445.5234375 308.73828125 c 256,10,11
 450.522460938 321.90234375 450.522460938 321.90234375 455.262695312 335.8125 c 256,12,13
 460.00390625 349.72265625 460.00390625 349.72265625 464.4921875 364.33984375 c 256,14,15
 468.981445312 378.956054688 468.981445312 378.956054688 473.348632812 394.676757812 c 2,16,-1
 475.651367188 402.967773438 l 1,17,-1
 484.194335938 401.926757812 l 1,18,-1
 566.194335938 391.926757812 l 1,19,-1
 577.860351562 390.50390625 l 1,20,-1
 574.587890625 379.215820312 l 2,21,22
 569.547851562 361.826171875 569.547851562 361.826171875 564.221679688 345.250976562 c 256,23,24
 558.896484375 328.676757812 558.896484375 328.676757812 553.280273438 312.8984375 c 256,25,26
 547.6640625 297.119140625 547.6640625 297.119140625 541.75390625 282.140625 c 256,27,28
 535.84375 267.161132812 535.84375 267.161132812 529.645507812 252.9921875 c 0,29,30
 506.19140625 199.381835938 506.19140625 199.381835938 480.336914062 157.323242188 c 1,31,32
 495.318359375 124.96484375 495.318359375 124.96484375 508.826171875 89.5654296875 c 0,33,34
 523.5390625 51.005859375 523.5390625 51.005859375 535.684570312 2.42578125 c 2,35,-1
 538.791015625 -10 l 1,36,-1
 525.983398438 -10 l 1,37,-1
 424.983398438 -10 l 1,38,-1
 416.983398438 -10 l 1,39,-1
 415.227539062 -2.1953125 l 2,40,41
 408.211914062 28.9814453125 408.211914062 28.9814453125 399.130859375 59.6953125 c 1,42,43
 377.329101562 40.0068359375 377.329101562 40.0068359375 355.529296875 25.83203125 c 256,44,45
 333.73046875 11.658203125 333.73046875 11.658203125 310.776367188 2.2470703125 c 0,46,47
 258.953125 -19 258.953125 -19 205.983398438 -19 c 0,48,49
 188.0703125 -19 188.0703125 -19 171.706054688 -15.9404296875 c 256,50,51
 155.341796875 -12.8798828125 155.341796875 -12.8798828125 140.625 -6.7255859375 c 0,52,53
 111.1328125 5.607421875 111.1328125 5.607421875 89.6611328125 28.6884765625 c 0,54,55
 68.423828125 51.51953125 68.423828125 51.51953125 56.2333984375 81.201171875 c 256,56,57
 43.9833984375 111.026367188 43.9833984375 111.026367188 43.9833984375 145 c 0,58,59
 43.9833984375 174.173828125 43.9833984375 174.173828125 51.7548828125 206.81640625 c 0,60,61
 59.5908203125 239.72265625 59.5908203125 239.72265625 77.810546875 271.4765625 c 0,62,63
 86.892578125 287.307617188 86.892578125 287.307617188 98.767578125 302.796875 c 256,64,65
 110.641601562 318.28515625 110.641601562 318.28515625 125.291015625 333.448242188 c 0,66,67
 154.63671875 363.822265625 154.63671875 363.822265625 198.592773438 391.422851562 c 2,68,-1
 213.854492188 401.376953125 l 1,69,70
 198.40234375 431.169921875 198.40234375 431.169921875 188.981445312 459.881835938 c 0,71,72
 177.983398438 493.401367188 177.983398438 493.401367188 177.983398438 527 c 0,73,74
 177.983398438 540.452148438 177.983398438 540.452148438 179.153320312 553.200195312 c 256,75,76
 180.322265625 565.948242188 180.322265625 565.948242188 182.66796875 578.029296875 c 256,77,78
 185.014648438 590.110351562 185.014648438 590.110351562 188.5625 601.5078125 c 256,79,80
 192.109375 612.905273438 192.109375 612.905273438 196.845703125 623.561523438 c 0,81,82
 215.671875 665.921875 215.671875 665.921875 247.16015625 695.310546875 c 0,83,84
 262.866210938 709.969726562 262.866210938 709.969726562 281.086914062 721.243164062 c 256,85,86
 299.30859375 732.516601562 299.30859375 732.516601562 319.93359375 740.348632812 c 0,87,88
 333.651367188 745.557617188 333.651367188 745.557617188 347.6875 749.037109375 c 256,89,90
 361.723632812 752.515625 361.723632812 752.515625 376.056640625 754.2578125 c 256,91,92
 390.388671875 756 390.388671875 756 404.983398438 756 c 0,93,94
 432.638671875 756 432.638671875 756 457.706054688 747.466796875 c 256,95,96
 482.879882812 738.896484375 482.879882812 738.896484375 502.256835938 723.287109375 c 0,97,98
 508.899414062 717.935546875 508.899414062 717.935546875 514.578125 711.509765625 c 256,99,100
 520.255859375 705.083007812 520.255859375 705.083007812 524.892578125 697.705078125 c 256,101,102
 529.528320312 690.327148438 529.528320312 690.327148438 533.154296875 681.987304688 c 0,103,104
 543.983398438 657.080078125 543.983398438 657.080078125 543.983398438 624 c 0,105,106
 543.983398438 594.501953125 543.983398438 594.501953125 534.043945312 562.0703125 c 0,107,108
 529.0546875 545.787109375 529.0546875 545.787109375 520.969726562 529.487304688 c 256,109,110
 512.884765625 513.186523438 512.884765625 513.186523438 501.743164062 496.862304688 c 0,111,112
 479.520507812 464.303710938 479.520507812 464.303710938 443.553710938 432.9609375 c 0,113,114
 431.470703125 422.431640625 431.470703125 422.431640625 417.703125 412.528320312 c 256,115,116
 403.936523438 402.625 403.936523438 402.625 388.401367188 393.278320312 c 256,117,118
 372.866210938 383.931640625 372.866210938 383.931640625 355.3515625 375.001953125 c 2,119,-1
 352.356445312 373.620117188 l 1,120,-1
 374.57421875 337.119140625 l 2,0,1
163.983398438 159 m 0,121,122
 163.983398438 150.194335938 163.983398438 150.194335938 165.112304688 142.29296875 c 256,123,124
 166.241210938 134.391601562 166.241210938 134.391601562 168.490234375 127.41015625 c 256,125,126
 170.739257812 120.4296875 170.739257812 120.4296875 174.03515625 114.321289062 c 256,127,128
 177.331054688 108.211914062 177.331054688 108.211914062 181.73046875 102.82421875 c 0,129,130
 198.729492188 82 198.729492188 82 236.983398438 82 c 0,131,132
 244.509765625 82 244.509765625 82 252.099609375 83.111328125 c 256,133,134
 259.690429688 84.2216796875 259.690429688 84.2216796875 267.434570312 86.46875 c 256,135,136
 275.1796875 88.71484375 275.1796875 88.71484375 283.08203125 92.1435546875 c 256,137,138
 290.983398438 95.572265625 290.983398438 95.572265625 299.0078125 100.174804688 c 0,139,140
 329.298828125 117.546875 329.298828125 117.546875 360.119140625 153.44140625 c 1,141,142
 347.416992188 178.951171875 347.416992188 178.951171875 334.9609375 201.298828125 c 256,143,144
 322.50390625 223.646484375 322.50390625 223.646484375 309.0078125 245.19140625 c 0,145,146
 283.540039062 285.852539062 283.540039062 285.852539062 259.8125 324.12890625 c 1,147,-1
 257.28125 322.518554688 l 2,148,149
 227.38671875 304.1953125 227.38671875 304.1953125 209.82421875 285.209960938 c 0,150,151
 201.020507812 275.69140625 201.020507812 275.69140625 194.177734375 266.018554688 c 256,152,153
 187.3359375 256.345703125 187.3359375 256.345703125 182.428710938 246.528320312 c 0,154,155
 172.536132812 226.745117188 172.536132812 226.745117188 168.297851562 205.080078125 c 0,156,157
 163.983398438 183.03125 163.983398438 183.03125 163.983398438 159 c 0,121,122
318.543945312 454.962890625 m 2,158,159
 325.383789062 458.5 325.383789062 458.5 331.958007812 462.451171875 c 256,160,161
 338.532226562 466.40234375 338.532226562 466.40234375 344.765625 470.71875 c 256,162,163
 350.999023438 475.034179688 350.999023438 475.034179688 356.889648438 479.716796875 c 256,164,165
 362.780273438 484.399414062 362.780273438 484.399414062 368.240234375 489.384765625 c 0,166,167
 390.358398438 509.579101562 390.358398438 509.579101562 405.190429688 531.588867188 c 256,168,169
 419.91015625 553.4296875 419.91015625 553.4296875 426.9765625 575.100585938 c 0,170,171
 430.502929688 585.915039062 430.502929688 585.915039062 432.243164062 595.893554688 c 256,172,173
 433.983398438 605.87109375 433.983398438 605.87109375 433.983398438 615 c 0,174,175
 433.983398438 626.5078125 433.983398438 626.5078125 430.416992188 634.315429688 c 256,176,177
 426.850585938 642.122070312 426.850585938 642.122070312 419.587890625 647.421875 c 0,178,179
 415.5703125 650.354492188 415.5703125 650.354492188 411.38671875 652.525390625 c 256,180,181
 407.202148438 654.696289062 407.202148438 654.696289062 402.772460938 656.137695312 c 256,182,183
 398.341796875 657.579101562 398.341796875 657.579101562 393.665039062 658.290039062 c 256,184,185
 388.98828125 659 388.98828125 659 383.983398438 659 c 0,186,187
 367.002929688 659 367.002929688 659 349.86328125 651.783203125 c 0,188,189
 333.188476562 644.762695312 333.188476562 644.762695312 320.271484375 628.7265625 c 0,190,191
 315.853515625 623.243164062 315.853515625 623.243164062 311.971679688 616.862304688 c 256,192,193
 308.08984375 610.481445312 308.08984375 610.481445312 304.688476562 603.057617188 c 256,194,195
 301.288085938 595.633789062 301.288085938 595.633789062 298.452148438 587.284179688 c 0,196,197
 289.983398438 562.348632812 289.983398438 562.348632812 289.983398438 528 c 0,198,199
 289.983398438 505.318359375 289.983398438 505.318359375 295.141601562 486.090820312 c 0,200,201
 299.42578125 470.123046875 299.42578125 470.123046875 308.666992188 450.284179688 c 1,202,-1
 318.543945312 454.962890625 l 2,158,159
EndSplineSet
EndChar

StartChar: quotesingle
Encoding: 39 39 10
Width: 550
VWidth: 1177
Flags: W
LayerCount: 2
Fore
SplineSet
501.08984375 797.618164062 m 1,0,-1
 488.106445312 744.684570312 l 2,1,2
 486.1015625 735.995117188 486.1015625 735.995117188 483.689453125 726.408203125 c 256,3,4
 481.278320312 716.822265625 481.278320312 716.822265625 478.477539062 706.397460938 c 256,5,6
 475.674804688 695.97265625 475.674804688 695.97265625 472.498046875 684.771484375 c 0,7,8
 462.950195312 651.100585938 462.950195312 651.100585938 451.403320312 614.95703125 c 256,9,10
 439.872070312 578.858398438 439.872070312 578.858398438 427.836914062 543.756835938 c 0,11,12
 425.82421875 537.885742188 425.82421875 537.885742188 423.83984375 532.239257812 c 256,13,14
 421.854492188 526.592773438 421.854492188 526.592773438 419.895507812 521.162109375 c 256,15,16
 417.936523438 515.731445312 417.936523438 515.731445312 416.00390625 510.521484375 c 256,17,18
 414.0703125 505.311523438 414.0703125 505.311523438 412.1640625 500.3203125 c 256,19,20
 410.256835938 495.329101562 410.256835938 495.329101562 408.375976562 490.5546875 c 256,21,22
 406.494140625 485.78125 406.494140625 485.78125 404.638671875 481.2265625 c 2,23,-1
 402.1015625 475 l 1,24,-1
 395.377929688 475 l 1,25,-1
 335.377929688 475 l 1,26,-1
 324.609375 475 l 1,27,-1
 325.405273438 485.73828125 l 2,28,29
 327.42578125 513.0078125 327.42578125 513.0078125 331.958984375 548.275390625 c 256,30,31
 336.484375 583.466796875 336.484375 583.466796875 342.513671875 619.643554688 c 256,32,33
 348.532226562 655.754882812 348.532226562 655.754882812 355.055664062 689.877929688 c 0,34,35
 361.625 724.2421875 361.625 724.2421875 368.674804688 750.424804688 c 2,36,-1
 380.633789062 802.249023438 l 1,37,-1
 382.422851562 810 l 1,38,-1
 390.377929688 810 l 1,39,-1
 491.377929688 810 l 1,40,-1
 504.126953125 810 l 1,41,-1
 501.08984375 797.618164062 l 1,0,-1
EndSplineSet
EndChar

StartChar: parenleft
Encoding: 40 40 11
Width: 550
VWidth: 1177
Flags: W
LayerCount: 2
Fore
SplineSet
603.708007812 741.513671875 m 2,0,1
 527.663085938 694.109375 527.663085938 694.109375 464.4609375 631.401367188 c 256,2,3
 401.224609375 568.658203125 401.224609375 568.658203125 354.809570312 497.060546875 c 0,4,5
 339.3671875 473.240234375 339.3671875 473.240234375 326.232421875 448.721679688 c 256,6,7
 313.09765625 424.204101562 313.09765625 424.204101562 302.272460938 398.999023438 c 256,8,9
 291.447265625 373.793945312 291.447265625 373.793945312 282.916992188 347.874023438 c 0,10,11
 257.41796875 270.396484375 257.41796875 270.396484375 257.41796875 191 c 0,12,13
 257.41796875 163.258789062 257.41796875 163.258789062 260.731445312 135.80859375 c 256,14,15
 264.045898438 108.359375 264.045898438 108.359375 270.686523438 81.1484375 c 256,16,17
 277.327148438 53.9384765625 277.327148438 53.9384765625 287.296875 26.9677734375 c 0,18,19
 317.075195312 -53.5791015625 317.075195312 -53.5791015625 386.633789062 -126.077148438 c 2,20,-1
 393.415039062 -133.14453125 l 1,21,-1
 386.489257812 -140.071289062 l 1,22,-1
 322.489257812 -204.071289062 l 1,23,-1
 315.41796875 -211.142578125 l 1,24,-1
 308.346679688 -204.071289062 l 2,25,26
 221.856445312 -117.581054688 221.856445312 -117.581054688 183.094726562 -17.615234375 c 0,27,28
 163.7734375 32.2138671875 163.7734375 32.2138671875 154.095703125 82.8935546875 c 256,29,30
 144.41796875 133.572265625 144.41796875 133.572265625 144.41796875 185 c 0,31,32
 144.41796875 200.762695312 144.41796875 200.762695312 145.251953125 216.48828125 c 256,33,34
 146.0859375 232.212890625 146.0859375 232.212890625 147.75390625 247.890625 c 256,35,36
 149.420898438 263.569335938 149.420898438 263.569335938 151.919921875 279.203125 c 256,37,38
 154.419921875 294.837890625 154.419921875 294.837890625 157.751953125 310.422851562 c 256,39,40
 161.08203125 326.008789062 161.08203125 326.008789062 165.24609375 341.545898438 c 256,41,42
 169.407226562 357.08203125 169.407226562 357.08203125 174.400390625 372.568359375 c 0,43,44
 204.298828125 465.302734375 204.298828125 465.302734375 258.498046875 549.89453125 c 256,45,46
 312.627929688 634.377929688 312.627929688 634.377929688 388.467773438 707.689453125 c 0,47,48
 426.388671875 744.346679688 426.388671875 744.346679688 468.114257812 776.083984375 c 256,49,50
 509.83984375 807.8203125 509.83984375 807.8203125 555.34375 834.6171875 c 2,51,-1
 564.572265625 840.051757812 l 1,52,-1
 569.362304688 830.471679688 l 1,53,-1
 607.362304688 754.471679688 l 1,54,-1
 611.43359375 746.330078125 l 1,55,-1
 603.708007812 741.513671875 l 2,0,1
EndSplineSet
Substitution2: "'case' Case-Sensitive Forms lookup 17 subtable" Parenleft
EndChar

StartChar: parenright
Encoding: 41 41 12
Width: 550
VWidth: 1177
Flags: W
LayerCount: 2
Fore
SplineSet
47.6376953125 -112.513671875 m 2,0,1
 85.6748046875 -88.802734375 85.6748046875 -88.802734375 120.61328125 -61.271484375 c 256,2,3
 155.552734375 -33.740234375 155.552734375 -33.740234375 187.412109375 -2.3740234375 c 0,4,5
 251.114257812 60.3408203125 251.114257812 60.3408203125 297.009765625 131.8984375 c 256,6,7
 342.840820312 203.35546875 342.840820312 203.35546875 368.947265625 281.180664062 c 0,8,9
 381.947265625 319.935546875 381.947265625 319.935546875 388.4375 359.122070312 c 256,10,11
 394.927734375 398.309570312 394.927734375 398.309570312 394.927734375 438 c 0,12,13
 394.927734375 479.599609375 394.927734375 479.599609375 387.344726562 520.572265625 c 256,14,15
 379.76171875 561.543945312 379.76171875 561.543945312 364.56640625 601.982421875 c 0,16,17
 334.276367188 682.59375 334.276367188 682.59375 265.663085938 755.127929688 c 2,18,-1
 259.03125 762.138671875 l 1,19,-1
 265.80078125 769.015625 l 1,20,-1
 328.80078125 833.015625 l 1,21,-1
 335.87109375 840.198242188 l 1,22,-1
 342.999023438 833.071289062 l 2,23,24
 429.47265625 746.596679688 429.47265625 746.596679688 468.734375 646.65625 c 0,25,26
 488.314453125 596.8203125 488.314453125 596.8203125 498.12109375 546.129882812 c 256,27,28
 507.927734375 495.439453125 507.927734375 495.439453125 507.927734375 444 c 0,29,30
 507.927734375 412.4765625 507.927734375 412.4765625 504.592773438 381.110351562 c 256,31,32
 501.256835938 349.744140625 501.256835938 349.744140625 494.594726562 318.576171875 c 256,33,34
 487.932617188 287.407226562 487.932617188 287.407226562 477.9453125 256.431640625 c 0,35,36
 448.047851562 163.697265625 448.047851562 163.697265625 393.84765625 79.10546875 c 256,37,38
 339.7265625 -5.3642578125 339.7265625 -5.3642578125 264.401367188 -78.6669921875 c 256,39,40
 189.00390625 -152.040039062 189.00390625 -152.040039062 95.919921875 -205.665039062 c 2,41,-1
 86.7275390625 -210.959960938 l 1,42,-1
 81.9833984375 -201.471679688 l 1,43,-1
 43.9833984375 -125.471679688 l 1,44,-1
 39.912109375 -117.330078125 l 1,45,-1
 47.6376953125 -112.513671875 l 2,0,1
EndSplineSet
Substitution2: "'case' Case-Sensitive Forms lookup 17 subtable" Parenright
EndChar

StartChar: asterisk
Encoding: 42 42 13
Width: 550
VWidth: 1177
Flags: W
LayerCount: 2
Fore
SplineSet
443.887695312 483.6875 m 1,0,1
 469.032226562 460.997070312 469.032226562 460.997070312 494.1015625 436.677734375 c 0,2,3
 527.6484375 404.130859375 527.6484375 404.130859375 552.453125 366.327148438 c 1,4,-1
 556.708984375 362.071289062 l 1,5,-1
 564.94140625 353.837890625 l 1,6,-1
 555.559570312 346.942382812 l 1,7,-1
 472.559570312 285.942382812 l 1,8,-1
 463.872070312 279.557617188 l 1,9,-1
 458.157226562 288.700195312 l 1,10,-1
 453.372070312 296.356445312 l 2,11,12
 426.7890625 332.317382812 426.7890625 332.317382812 407.086914062 374.247070312 c 0,13,14
 403.487304688 381.907226562 403.487304688 381.907226562 399.75 389.888671875 c 256,15,16
 396.012695312 397.870117188 396.012695312 397.870117188 392.40234375 405.60546875 c 256,17,18
 388.791015625 413.340820312 388.791015625 413.340820312 385.309570312 420.821289062 c 256,19,20
 381.828125 428.301757812 381.828125 428.301757812 378.606445312 435.25 c 1,21,22
 364.348632812 404.932617188 364.348632812 404.932617188 349.103515625 374.071289062 c 0,23,24
 328.163085938 331.6796875 328.163085938 331.6796875 300.440429688 295.743164062 c 2,25,-1
 295.3203125 289.598632812 l 1,26,-1
 289.322265625 282.401367188 l 1,27,-1
 281.75 287.916992188 l 1,28,-1
 200.75 346.916992188 l 1,29,-1
 192.741210938 352.75 l 1,30,-1
 198.5 360.8125 l 1,31,-1
 203.530273438 367.853515625 l 2,32,33
 231.041015625 405.553710938 231.041015625 405.553710938 263.623046875 437.626953125 c 0,34,35
 275.55859375 449.375976562 275.55859375 449.375976562 288.168945312 461.270507812 c 256,36,37
 300.778320312 473.1640625 300.778320312 473.1640625 312.80078125 484.0390625 c 1,38,39
 295.8203125 486.381835938 295.8203125 486.381835938 278.919921875 488.755859375 c 256,40,41
 262.020507812 491.129882812 262.020507812 491.129882812 244.723632812 493.600585938 c 0,42,43
 198.294921875 500.233398438 198.294921875 500.233398438 156.266601562 514.584960938 c 2,44,-1
 148.126953125 517.63671875 l 1,45,-1
 139.272460938 520.95703125 l 1,46,-1
 142.092773438 529.982421875 l 1,47,-1
 172.092773438 625.982421875 l 1,48,-1
 175.247070312 636.076171875 l 1,49,-1
 185.1484375 632.36328125 l 1,50,-1
 193.211914062 629.33984375 l 2,51,52
 234.655273438 613.166992188 234.655273438 613.166992188 277.0234375 592.486328125 c 0,53,54
 292.793945312 584.7890625 292.793945312 584.7890625 308.224609375 576.90234375 c 256,55,56
 323.655273438 569.014648438 323.655273438 569.014648438 338.4296875 561.112304688 c 1,57,58
 337 568.15234375 337 568.15234375 335.676757812 574.858398438 c 256,59,60
 334.352539062 581.564453125 334.352539062 581.564453125 333.100585938 588.114257812 c 256,61,62
 331.846679688 594.6640625 331.846679688 594.6640625 330.624023438 601.27734375 c 256,63,64
 329.401367188 607.890625 329.401367188 607.890625 328.211914062 614.53515625 c 256,65,66
 327.021484375 621.180664062 327.021484375 621.180664062 325.786132812 628.286132812 c 0,67,68
 317.637695312 675.13671875 317.637695312 675.13671875 317.637695312 721 c 2,69,-1
 317.637695312 729 l 1,70,-1
 317.637695312 739 l 1,71,-1
 327.637695312 739 l 1,72,-1
 429.637695312 739 l 1,73,-1
 439.637695312 739 l 1,74,-1
 439.637695312 729 l 1,75,-1
 439.637695312 721 l 2,76,77
 439.638671875 698.063476562 439.638671875 698.063476562 437.599609375 674.881835938 c 256,78,79
 435.561523438 651.701171875 435.561523438 651.701171875 431.490234375 628.286132812 c 0,80,81
 425.547851562 594.1171875 425.547851562 594.1171875 419.446289062 561.296875 c 1,82,83
 449.204101562 577.720703125 449.204101562 577.720703125 480.342773438 592.530273438 c 0,84,85
 521.256835938 611.990234375 521.256835938 611.990234375 561.634765625 627.178710938 c 1,86,-1
 569.166015625 630.944335938 l 1,87,-1
 579.608398438 636.166015625 l 1,88,-1
 583.163085938 625.043945312 l 1,89,-1
 614.163085938 528.043945312 l 1,90,-1
 617.303710938 518.21875 l 1,91,-1
 607.385742188 515.384765625 l 1,92,-1
 600.5234375 513.423828125 l 2,93,94
 579.846679688 506.868164062 579.846679688 506.868164062 557.630859375 501.76171875 c 256,95,96
 535.4140625 496.655273438 535.4140625 496.655273438 512.142578125 493.114257812 c 0,97,98
 477.760742188 487.881835938 477.760742188 487.881835938 443.887695312 483.6875 c 1,0,1
EndSplineSet
EndChar

StartChar: plus
Encoding: 43 43 14
Width: 550
VWidth: 1177
Flags: W
LayerCount: 2
Fore
SplineSet
454.241210938 565.626953125 m 1,0,-1
 404.263671875 361 l 1,1,-1
 581.52734375 361 l 1,2,-1
 594.259765625 361 l 1,3,-1
 591.2421875 348.630859375 l 1,4,-1
 571.243164062 266.630859375 l 1,5,-1
 569.381835938 259 l 1,6,-1
 561.52734375 259 l 1,7,-1
 379.387695312 259 l 1,8,-1
 328.244140625 48.6376953125 l 1,9,-1
 326.387695312 41 l 1,10,-1
 318.52734375 41 l 1,11,-1
 230.52734375 41 l 1,12,-1
 217.91796875 41 l 1,13,-1
 220.790039062 53.2783203125 l 1,14,-1
 268.91796875 259 l 1,15,-1
 88.52734375 259 l 1,16,-1
 75.794921875 259 l 1,17,-1
 78.8115234375 271.369140625 l 1,18,-1
 98.8125 353.369140625 l 1,19,-1
 100.673828125 361 l 1,20,-1
 108.52734375 361 l 1,21,-1
 293.67578125 361 l 1,22,-1
 344.8125 570.373046875 l 1,23,-1
 346.67578125 578 l 1,24,-1
 354.52734375 578 l 1,25,-1
 444.52734375 578 l 1,26,-1
 457.263671875 578 l 1,27,-1
 454.241210938 565.626953125 l 1,0,-1
EndSplineSet
EndChar

StartChar: comma
Encoding: 44 44 15
Width: 550
VWidth: 1177
Flags: W
LayerCount: 2
Fore
SplineSet
242.025390625 -16.3134765625 m 1,0,1
 213.856445312 -8.599609375 213.856445312 -8.599609375 198.3203125 12.5859375 c 0,2,3
 179.884765625 37.7265625 179.884765625 37.7265625 179.884765625 69 c 0,4,5
 179.884765625 112.922851562 179.884765625 112.922851562 208.051757812 143.299804688 c 0,6,7
 236.51953125 174 236.51953125 174 284.884765625 174 c 0,8,9
 328.95703125 174 328.95703125 174 352.453125 141.907226562 c 0,10,11
 374.884765625 111.26953125 374.884765625 111.26953125 374.884765625 67 c 0,12,13
 374.884765625 31.1943359375 374.884765625 31.1943359375 360.252929688 -7.9970703125 c 256,14,15
 345.620117188 -47.1943359375 345.620117188 -47.1943359375 314.431640625 -83.0615234375 c 256,16,17
 283.215820312 -118.958984375 283.215820312 -118.958984375 234.581054688 -144.829101562 c 0,18,19
 218.319335938 -153.478515625 218.319335938 -153.478515625 200.028320312 -160.263671875 c 256,20,21
 181.737304688 -167.048828125 181.737304688 -167.048828125 161.581054688 -171.942382812 c 256,22,23
 141.424804688 -176.8359375 141.424804688 -176.8359375 119.256835938 -179.905273438 c 2,24,-1
 109.137695312 -181.306640625 l 1,25,-1
 107.952148438 -171.161132812 l 1,26,-1
 98.9521484375 -94.1611328125 l 1,27,-1
 97.7119140625 -83.5458984375 l 1,28,-1
 108.385742188 -83.0126953125 l 2,29,30
 113.092773438 -82.77734375 113.092773438 -82.77734375 117.998046875 -82.2451171875 c 256,31,32
 122.903320312 -81.7119140625 122.903320312 -81.7119140625 128.024414062 -80.8798828125 c 256,33,34
 133.145507812 -80.046875 133.145507812 -80.046875 138.48828125 -78.9072265625 c 256,35,36
 143.830078125 -77.7666015625 143.830078125 -77.7666015625 149.360351562 -76.32421875 c 0,37,38
 171.395507812 -70.5751953125 171.395507812 -70.5751953125 191 -61.0126953125 c 0,39,40
 210.215820312 -51.638671875 210.215820312 -51.638671875 225.658203125 -37.6005859375 c 0,41,42
 235.931640625 -28.2607421875 235.931640625 -28.2607421875 242.025390625 -16.3134765625 c 1,0,1
EndSplineSet
EndChar

StartChar: hyphen
Encoding: 45 45 16
Width: 550
VWidth: 1177
Flags: W
LayerCount: 2
Fore
SplineSet
165.909179688 355 m 1,0,-1
 517.909179688 355 l 1,1,-1
 530.44921875 355 l 1,2,-1
 527.658203125 342.774414062 l 1,3,-1
 506.658203125 250.774414062 l 1,4,-1
 504.883789062 243 l 1,5,-1
 496.909179688 243 l 1,6,-1
 142.909179688 243 l 1,7,-1
 130.100585938 243 l 1,8,-1
 133.208007812 255.42578125 l 1,9,-1
 156.208007812 347.42578125 l 1,10,-1
 158.1015625 355 l 1,11,-1
 165.909179688 355 l 1,0,-1
EndSplineSet
Substitution2: "'case' Case-Sensitive Forms lookup 17 subtable" Hyphen
EndChar

StartChar: period
Encoding: 46 46 17
Width: 550
VWidth: 1177
Flags: W
LayerCount: 2
Fore
SplineSet
265.184570312 -24 m 0,0,1
 253.123046875 -24 253.123046875 -24 242.142578125 -21.5068359375 c 256,2,3
 231.161132812 -19.0146484375 231.161132812 -19.0146484375 221.309570312 -13.9853515625 c 256,4,5
 211.458007812 -8.9560546875 211.458007812 -8.9560546875 203.041015625 -1.4736328125 c 0,6,7
 190.0234375 10.0966796875 190.0234375 10.0966796875 183.604492188 26.9306640625 c 256,8,9
 177.184570312 43.763671875 177.184570312 43.763671875 177.184570312 65 c 0,10,11
 177.184570312 118.307617188 177.184570312 118.307617188 207.814453125 147.266601562 c 0,12,13
 238.206054688 176 238.206054688 176 280.184570312 176 c 0,14,15
 316.93359375 176 316.93359375 176 343.2578125 153.036132812 c 0,16,17
 370.184570312 129.546875 370.184570312 129.546875 370.184570312 84 c 0,18,19
 370.184570312 59.8779296875 370.184570312 59.8779296875 361.323242188 39.9384765625 c 0,20,21
 356.948242188 30.095703125 356.948242188 30.095703125 351.009765625 21.533203125 c 256,22,23
 345.0703125 12.970703125 345.0703125 12.970703125 337.620117188 5.796875 c 0,24,25
 332.685546875 1.0439453125 332.685546875 1.0439453125 327.293945312 -2.9970703125 c 256,26,27
 321.904296875 -7.0390625 321.904296875 -7.0390625 316.068359375 -10.3583984375 c 256,28,29
 310.233398438 -13.6767578125 310.233398438 -13.6767578125 303.9921875 -16.2470703125 c 0,30,31
 285.163085938 -24 285.163085938 -24 265.184570312 -24 c 0,0,1
EndSplineSet
EndChar

StartChar: slash
Encoding: 47 47 18
Width: 550
VWidth: 1177
Flags: W
LayerCount: 2
Fore
SplineSet
75.029296875 -204 m 1,0,-1
 -23.970703125 -204 l 1,1,-1
 -41.0966796875 -204 l 1,2,-1
 -32.6787109375 -189.084960938 l 1,3,-1
 541.321289062 827.915039062 l 1,4,-1
 544.190429688 833 l 1,5,-1
 550.029296875 833 l 1,6,-1
 647.029296875 833 l 1,7,-1
 664.126953125 833 l 1,8,-1
 655.745117188 818.09765625 l 1,9,-1
 83.7451171875 -198.90234375 l 1,10,-1
 80.87890625 -204 l 1,11,-1
 75.029296875 -204 l 1,0,-1
EndSplineSet
Substitution2: "'case' Case-Sensitive Forms lookup 17 subtable" Slash
Substitution2: "'ss02' Style Set 2 lookup 14 subtable" fraction
Substitution2: "'frac' Diagonal Fractions lookup 12 subtable" fraction
EndChar

StartChar: zero
Encoding: 48 48 19
Width: 550
VWidth: 1177
Flags: W
LayerCount: 2
Fore
SplineSet
588.659179688 689.099609375 m 0,0,1
 632.73828125 633.366210938 632.73828125 633.366210938 632.73828125 522.864257812 c 0,2,3
 632.73828125 509.981445312 632.73828125 509.981445312 632.135742188 496.6171875 c 128,-1,4
 631.532226562 483.252929688 631.532226562 483.252929688 630.328125 469.420898438 c 128,-1,5
 629.123046875 455.588867188 629.123046875 455.588867188 627.3203125 441.291015625 c 128,-1,6
 625.517578125 426.994140625 625.517578125 426.994140625 623.115234375 412.208984375 c 0,7,8
 618.310546875 382.638671875 618.310546875 382.638671875 611.232421875 352.8359375 c 128,-1,9
 604.155273438 323.034179688 604.155273438 323.034179688 594.807617188 293.002929688 c 0,10,11
 576.045898438 232.723632812 576.045898438 232.723632812 547.133789062 177.86328125 c 0,12,13
 518.047851562 122.672851562 518.047851562 122.672851562 476.942382812 80.3291015625 c 0,14,15
 463.029296875 66.12109375 463.029296875 66.12109375 447.809570312 53.7314453125 c 128,-1,16
 432.58984375 41.341796875 432.58984375 41.341796875 416.056640625 30.7734375 c 128,-1,17
 399.524414062 20.2041015625 399.524414062 20.2041015625 381.72265625 11.490234375 c 0,18,19
 327.606445312 -15 327.606445312 -15 263.034179688 -15 c 0,20,21
 163.819335938 -15 163.819335938 -15 118.817382812 41.900390625 c 0,22,23
 74.73828125 97.6337890625 74.73828125 97.6337890625 74.73828125 207.161132812 c 0,24,25
 74.73828125 258.58984375 74.73828125 258.58984375 84.359375 318.291992188 c 0,26,27
 89.1650390625 348.115234375 89.1650390625 348.115234375 96.2470703125 377.810546875 c 128,-1,28
 103.328125 407.504882812 103.328125 407.504882812 112.682617188 437.065429688 c 0,29,30
 131.435546875 496.330078125 131.435546875 496.330078125 160.326171875 551.643554688 c 0,31,32
 189.41796875 607.342773438 189.41796875 607.342773438 231.073242188 650.188476562 c 0,33,34
 273.37890625 693.33203125 273.37890625 693.33203125 325.671875 719.46875 c 0,35,36
 378.75390625 746 378.75390625 746 444.442382812 746 c 0,37,38
 543.657226562 746 543.657226562 746 588.659179688 689.099609375 c 0,0,1
495.38671875 367.599609375 m 128,-1,40
 513.73828125 442.302734375 513.73828125 442.302734375 513.73828125 509.745117188 c 0,41,42
 513.73828125 546.643554688 513.73828125 546.643554688 509.024414062 572.756835938 c 128,-1,43
 504.243164062 598.87109375 504.243164062 598.87109375 495.426757812 613.08984375 c 0,44,45
 487.122070312 626.484375 487.122070312 626.484375 471.610351562 633.2421875 c 128,-1,46
 456.099609375 640 456.099609375 640 431.637695312 640 c 0,47,48
 383.806640625 640 383.806640625 640 341.5859375 601.376953125 c 0,49,50
 326.935546875 587.974609375 326.935546875 587.974609375 313.462890625 572.151367188 c 128,-1,51
 299.989257812 556.328125 299.989257812 556.328125 287.624023438 537.959960938 c 128,-1,52
 275.258789062 519.591796875 275.258789062 519.591796875 264.098632812 498.782226562 c 0,53,54
 247.303710938 467.462890625 247.303710938 467.462890625 234.299804688 433.2578125 c 128,-1,55
 221.294921875 399.051757812 221.294921875 399.051757812 212.086914062 361.940429688 c 0,56,57
 193.73828125 287.725585938 193.73828125 287.725585938 193.73828125 221.254882812 c 0,58,59
 193.73828125 184.384765625 193.73828125 184.384765625 198.698242188 158.3359375 c 128,-1,60
 203.724609375 132.286132812 203.724609375 132.286132812 212.99609375 118.099609375 c 0,61,62
 230.706054688 91 230.706054688 91 275.838867188 91 c 0,63,64
 323.70703125 91 323.70703125 91 366.467773438 129.662109375 c 0,65,66
 388.723632812 149.78515625 388.723632812 149.78515625 408.090820312 175.171875 c 128,-1,67
 427.459960938 200.55859375 427.459960938 200.55859375 443.91015625 231.251953125 c 0,68,39
 476.982421875 292.956054688 476.982421875 292.956054688 495.38671875 367.599609375 c 128,-1,40
383.58203125 298.38671875 m 128,-1,70
 366.921875 292 366.921875 292 348.40234375 292 c 0,71,72
 315.439453125 292 315.439453125 292 293.172851562 311.12890625 c 0,73,74
 270.50390625 330.600585938 270.50390625 330.600585938 270.50390625 369 c 0,75,76
 270.50390625 380.001953125 270.50390625 380.001953125 272.194335938 389.959960938 c 128,-1,77
 273.885742188 399.916992188 273.885742188 399.916992188 277.291992188 408.866210938 c 128,-1,78
 280.697265625 417.815429688 280.697265625 417.815429688 285.9375 425.666015625 c 128,-1,79
 291.1796875 433.517578125 291.1796875 433.517578125 298.172851562 440.071289062 c 0,80,81
 311.782226562 452.825195312 311.782226562 452.825195312 327.981445312 459.412109375 c 128,-1,82
 344.181640625 466 344.181640625 466 362.275390625 466 c 0,83,84
 395.344726562 466 395.344726562 466 419.240234375 444.754882812 c 0,85,86
 443.375976562 423.296875 443.375976562 423.296875 443.375 385 c 0,87,88
 443.375976562 379.102539062 443.375976562 379.102539062 442.791992188 373.486328125 c 128,-1,89
 442.20703125 367.870117188 442.20703125 367.870117188 441.029296875 362.524414062 c 128,-1,90
 439.850585938 357.1796875 439.850585938 357.1796875 438.088867188 352.153320312 c 128,-1,91
 436.328125 347.127929688 436.328125 347.127929688 433.958984375 342.401367188 c 128,-1,92
 431.588867188 337.674804688 431.588867188 337.674804688 428.639648438 333.3046875 c 128,-1,93
 425.689453125 328.934570312 425.689453125 328.934570312 422.1171875 324.893554688 c 128,-1,94
 418.543945312 320.852539062 418.543945312 320.852539062 414.392578125 317.205078125 c 0,95,69
 400.243164062 304.7734375 400.243164062 304.7734375 383.58203125 298.38671875 c 128,-1,70
EndSplineSet
Substitution2: "'ss02' Style Set 2 lookup 15 subtable" zerosuperior
Substitution2: "'sinf' Scientific Inferiors lookup 11 subtable" zero.sinf
Substitution2: "'subs' Subscript lookup 10 subtable" zero.sinf
Substitution2: "'sups' Superscript lookup 9 subtable" zero.sups
Substitution2: "'dnom' Denominators lookup 8 subtable" zeroinferior
Substitution2: "'numr' Numerators lookup 6 subtable" zerosuperior
EndChar

StartChar: one
Encoding: 49 49 20
Width: 550
VWidth: 1177
Flags: W
LayerCount: 2
Fore
SplineSet
174.618164062 574.43359375 m 1,0,-1
 182.768554688 577.397460938 l 2,1,2
 253.560546875 601.12890625 253.560546875 601.12890625 323.842773438 636.748046875 c 0,3,4
 358.772460938 654.44921875 358.772460938 654.44921875 392.399414062 676.850585938 c 128,-1,5
 425.842773438 699.250976562 425.842773438 699.250976562 455.428710938 726.37109375 c 2,6,-1
 458.296875 729 l 1,7,-1
 462.186523438 729 l 1,8,-1
 531.186523438 729 l 1,9,-1
 543.865234375 729 l 1,10,-1
 540.911132812 716.669921875 l 1,11,-1
 385.616210938 82 l 1,12,-1
 512.186523438 82 l 1,13,-1
 524.91796875 82 l 1,14,-1
 521.901367188 72.251953125 l 1,15,-1
 501.901367188 7.630859375 l 1,16,-1
 500.040039062 0 l 1,17,-1
 492.186523438 0 l 1,18,-1
 81.1865234375 0 l 1,19,-1
 68.4541015625 0 l 1,20,-1
 71.470703125 9.9443359375 l 1,21,-1
 91.470703125 75.8662109375 l 1,22,-1
 93.33203125 82 l 1,23,-1
 101.186523438 82 l 1,24,-1
 257.129882812 82 l 1,25,-1
 379.561523438 550.66015625 l 1,26,27
 372.54296875 546.563476562 372.54296875 546.563476562 364.712890625 542.370117188 c 0,28,29
 342.038085938 530.224609375 342.038085938 530.224609375 316.077148438 518.09375 c 128,-1,30
 289.998046875 505.908203125 289.998046875 505.908203125 261.71875 495.252929688 c 0,31,32
 247.557617188 489.91796875 247.557617188 489.91796875 234.064453125 485.462890625 c 128,-1,33
 220.573242188 481.0078125 220.573242188 481.0078125 207.736328125 477.43359375 c 2,34,-1
 196.310546875 474.251953125 l 1,35,-1
 193.858398438 484.946289062 l 1,36,-1
 176.399414062 565.946289062 l 1,37,-1
 174.618164062 574.43359375 l 1,0,-1
EndSplineSet
Substitution2: "'ss02' Style Set 2 lookup 15 subtable" onesuperior
Substitution2: "'sinf' Scientific Inferiors lookup 11 subtable" one.sinf
Substitution2: "'subs' Subscript lookup 10 subtable" one.sinf
Substitution2: "'sups' Superscript lookup 9 subtable" one.sups
Substitution2: "'dnom' Denominators lookup 8 subtable" oneinferior
Substitution2: "'numr' Numerators lookup 6 subtable" onesuperior
EndChar

StartChar: two
Encoding: 50 50 21
Width: 550
VWidth: 1177
Flags: W
LayerCount: 2
Fore
SplineSet
611.1328125 634.853515625 m 0,0,1
 622.211914062 603.7265625 622.211914062 603.7265625 622.211914062 571 c 0,2,3
 622.211914062 552.09765625 622.211914062 552.09765625 620.203125 534.580078125 c 128,-1,4
 618.1953125 517.063476562 618.1953125 517.063476562 614.1328125 500.797851562 c 128,-1,5
 610.069335938 484.533203125 610.069335938 484.533203125 603.958007812 469.692382812 c 0,6,7
 594.915039062 447.729492188 594.915039062 447.729492188 582.627929688 427.553710938 c 128,-1,8
 570.341796875 407.377929688 570.341796875 407.377929688 554.849609375 389.044921875 c 0,9,10
 524.17578125 352.748046875 524.17578125 352.748046875 481.630859375 320.606445312 c 0,11,12
 460.055664062 304.819335938 460.055664062 304.819335938 437.263671875 288.64453125 c 128,-1,13
 414.471679688 272.469726562 414.471679688 272.469726562 390.526367188 255.950195312 c 0,14,15
 385.78125 252.643554688 385.78125 252.643554688 380.967773438 249.248046875 c 128,-1,16
 376.15625 245.852539062 376.15625 245.852539062 371.278320312 242.370117188 c 128,-1,17
 366.403320312 238.888671875 366.403320312 238.888671875 361.462890625 235.3203125 c 128,-1,18
 356.522460938 231.750976562 356.522460938 231.750976562 351.525390625 228.100585938 c 128,-1,19
 346.52734375 224.450195312 346.52734375 224.450195312 341.467773438 220.713867188 c 128,-1,20
 336.409179688 216.978515625 336.409179688 216.978515625 331.297851562 213.165039062 c 0,21,22
 300.77734375 190.39453125 300.77734375 190.39453125 272.912109375 166.157226562 c 0,23,24
 245.404296875 142.231445312 245.404296875 142.231445312 224.692382812 116.903320312 c 0,25,26
 210.407226562 99.4326171875 210.407226562 99.4326171875 201.96875 82 c 1,27,-1
 522.211914062 82 l 1,28,-1
 535.094726562 82 l 1,29,-1
 531.8984375 72.1611328125 l 1,30,-1
 510.8984375 7.51953125 l 1,31,-1
 508.973632812 0 l 1,32,-1
 501.1484375 0 l 1,33,-1
 56.2119140625 0 l 1,34,-1
 44.7099609375 0 l 1,35,-1
 46.30859375 11.044921875 l 2,36,37
 54.5263671875 67.82421875 54.5263671875 67.82421875 76.70703125 112.344726562 c 0,38,39
 98.6982421875 156.483398438 98.6982421875 156.483398438 129.40234375 193.703125 c 0,40,41
 144.677734375 212.219726562 144.677734375 212.219726562 161.609375 229.379882812 c 0,42,43
 179.412109375 246.5390625 179.412109375 246.5390625 199.16015625 262.333984375 c 0,44,45
 238.28125 293.623046875 238.28125 293.623046875 280.046875 321.955078125 c 0,46,47
 287.291015625 326.952148438 287.291015625 326.952148438 294.474609375 331.904296875 c 128,-1,48
 301.659179688 336.85546875 301.659179688 336.85546875 308.772460938 341.7578125 c 128,-1,49
 315.88671875 346.659179688 315.88671875 346.659179688 322.935546875 351.51171875 c 128,-1,50
 329.981445312 356.36328125 329.981445312 356.36328125 336.954101562 361.16015625 c 128,-1,51
 343.924804688 365.95703125 343.924804688 365.95703125 350.822265625 370.701171875 c 128,-1,52
 357.721679688 375.444335938 357.721679688 375.444335938 364.536132812 380.126953125 c 0,53,54
 404.830078125 407.81640625 404.830078125 407.81640625 435.635742188 436.395507812 c 0,55,56
 465.931640625 464.501953125 465.931640625 464.501953125 483.817382812 494.802734375 c 0,57,58
 488.153320312 502.149414062 488.153320312 502.149414062 491.396484375 509.833984375 c 128,-1,59
 494.641601562 517.518554688 494.641601562 517.518554688 496.811523438 525.599609375 c 128,-1,60
 498.982421875 533.6796875 498.982421875 533.6796875 500.065429688 542.16015625 c 128,-1,61
 501.1484375 550.639648438 501.1484375 550.639648438 501.149414062 559.541992188 c 0,62,63
 501.149414062 598.368164062 501.149414062 598.368164062 479.052734375 619.811523438 c 0,64,65
 457.220703125 641 457.220703125 641 405.479492188 641 c 0,66,67
 376.194335938 641 376.194335938 641 348.971679688 633.412109375 c 0,68,69
 339.672851562 630.8203125 339.672851562 630.8203125 331.068359375 627.959960938 c 128,-1,70
 322.466796875 625.099609375 322.466796875 625.099609375 314.63671875 622.002929688 c 128,-1,71
 306.806640625 618.90625 306.806640625 618.90625 299.681640625 615.555664062 c 0,72,73
 295.349609375 613.518554688 295.349609375 613.518554688 291.2265625 611.442382812 c 128,-1,74
 287.102539062 609.366210938 287.102539062 609.366210938 283.209960938 607.265625 c 128,-1,75
 279.31640625 605.1640625 279.31640625 605.1640625 275.633789062 603.028320312 c 128,-1,76
 271.951171875 600.891601562 271.951171875 600.891601562 268.497070312 598.731445312 c 128,-1,77
 265.04296875 596.572265625 265.04296875 596.572265625 261.801757812 594.379882812 c 128,-1,78
 258.545898438 592.178710938 258.545898438 592.178710938 255.564453125 590.024414062 c 128,-1,79
 252.58203125 587.870117188 252.58203125 587.870117188 249.950195312 585.82421875 c 128,-1,80
 247.319335938 583.77734375 247.319335938 583.77734375 244.975585938 581.797851562 c 128,-1,81
 242.631835938 579.818359375 242.631835938 579.818359375 240.62890625 577.953125 c 128,-1,82
 238.625976562 576.088867188 238.625976562 576.088867188 236.923828125 574.310546875 c 2,83,-1
 225.993164062 562.883789062 l 1,84,-1
 219.319335938 576.916015625 l 1,85,-1
 183.176757812 652.916015625 l 1,86,-1
 180.188476562 659.202148438 l 1,87,-1
 185.364257812 664.071289062 l 2,88,89
 193.322265625 671.557617188 193.322265625 671.557617188 203.3671875 678.775390625 c 128,-1,90
 213.411132812 685.993164062 213.411132812 685.993164062 225.588867188 693.0234375 c 0,91,92
 249.705078125 706.944335938 249.705078125 706.944335938 280.259765625 718.75 c 128,-1,93
 310.791992188 730.546875 310.791992188 730.546875 345.083984375 738.228515625 c 0,94,95
 379.782226562 746 379.782226562 746 418.235351562 746 c 0,96,97
 429.403320312 746 429.403320312 746 439.921875 745.404296875 c 128,-1,98
 450.439453125 744.80859375 450.439453125 744.80859375 460.411132812 743.6015625 c 128,-1,99
 470.384765625 742.393554688 470.384765625 742.393554688 479.7109375 740.576171875 c 128,-1,100
 489.036132812 738.758789062 489.036132812 738.758789062 497.801757812 736.306640625 c 0,101,102
 506.306640625 733.853515625 506.306640625 733.853515625 513.947265625 730.775390625 c 0,103,104
 551.893554688 715.4921875 551.893554688 715.4921875 575.859375 690.993164062 c 0,105,106
 587.836914062 678.749023438 587.836914062 678.749023438 596.680664062 664.680664062 c 128,-1,107
 605.5234375 650.612304688 605.5234375 650.612304688 611.1328125 634.853515625 c 0,0,1
EndSplineSet
Substitution2: "'ss02' Style Set 2 lookup 15 subtable" twosuperior
Substitution2: "'sinf' Scientific Inferiors lookup 11 subtable" two.sinf
Substitution2: "'subs' Subscript lookup 10 subtable" two.sinf
Substitution2: "'sups' Superscript lookup 9 subtable" two.sups
Substitution2: "'dnom' Denominators lookup 8 subtable" twoinferior
Substitution2: "'numr' Numerators lookup 6 subtable" twosuperior
EndChar

StartChar: three
Encoding: 51 51 22
Width: 550
VWidth: 1177
Flags: W
LayerCount: 2
Fore
SplineSet
139.774414062 105.759765625 m 0,0,1
 177.291992188 91 177.291992188 91 241.129882812 91 c 0,2,3
 284.356445312 91 284.356445312 91 321.787109375 100.270507812 c 0,4,5
 358.62890625 109.395507812 358.62890625 109.395507812 385.176757812 127.509765625 c 0,6,7
 398.28515625 136.453125 398.28515625 136.453125 408.356445312 147.556640625 c 128,-1,8
 418.42578125 158.659179688 418.42578125 158.659179688 425.603515625 172.08203125 c 0,9,10
 439.9609375 198.9375 439.9609375 198.9375 439.959960938 235.186523438 c 0,11,12
 439.959960938 249.123046875 439.959960938 249.123046875 437.256835938 260.872070312 c 128,-1,13
 434.552734375 272.62109375 434.552734375 272.62109375 429.099609375 282.314453125 c 128,-1,14
 423.646484375 292.0078125 423.646484375 292.0078125 415.58203125 299.734375 c 128,-1,15
 407.516601562 307.4609375 407.516601562 307.4609375 396.642578125 313.510742188 c 0,16,17
 373.970703125 326.124023438 373.970703125 326.124023438 343.07421875 332.5625 c 128,-1,18
 312.178710938 339 312.178710938 339 273.028320312 339 c 2,19,-1
 250.69921875 339 l 1,20,-1
 237.372070312 339 l 1,21,-1
 240.33203125 351.221679688 l 1,22,-1
 259.470703125 430.221679688 l 1,23,-1
 261.35546875 438 l 1,24,-1
 269.837890625 438 l 1,25,-1
 303.862304688 438 l 2,26,27
 338.610351562 438 338.610351562 438 372.874023438 446.252929688 c 0,28,29
 389.836914062 450.338867188 389.836914062 450.338867188 404.93359375 456.541992188 c 128,-1,30
 420.028320312 462.744140625 420.028320312 462.744140625 433.342773438 471.078125 c 0,31,32
 459.693359375 487.571289062 459.693359375 487.571289062 476.077148438 511.606445312 c 0,33,34
 481.399414062 519.415039062 481.399414062 519.415039062 484.938476562 527.951171875 c 128,-1,35
 488.477539062 536.487304688 488.477539062 536.487304688 490.268554688 545.94140625 c 128,-1,36
 491.997070312 555.395507812 491.997070312 555.395507812 491.997070312 565.73828125 c 0,37,38
 491.997070312 578.9609375 491.997070312 578.9609375 489.181640625 589.706054688 c 128,-1,39
 486.301757812 600.451171875 486.301757812 600.451171875 480.833984375 608.547851562 c 128,-1,40
 475.365234375 616.64453125 475.365234375 616.64453125 467.177734375 622.760742188 c 0,41,42
 454.506835938 632.227539062 454.506835938 632.227539062 436.100585938 637.11328125 c 128,-1,43
 417.694335938 642 417.694335938 642 393.176757812 642 c 0,44,45
 381.66015625 642 381.66015625 642 370.71875 641.131835938 c 128,-1,46
 359.780273438 640.262695312 359.780273438 640.262695312 349.446289062 638.530273438 c 128,-1,47
 339.11328125 636.798828125 339.11328125 636.798828125 329.375 634.219726562 c 128,-1,48
 319.638671875 631.640625 319.638671875 631.640625 310.447265625 628.206054688 c 0,49,50
 291.498046875 621.126953125 291.498046875 621.126953125 275.346679688 613.470703125 c 128,-1,51
 259.194335938 605.814453125 259.194335938 605.814453125 245.884765625 597.629882812 c 2,52,-1
 233.958007812 590.294921875 l 1,53,-1
 229.87890625 603.137695312 l 1,54,-1
 205.424804688 680.137695312 l 1,55,-1
 203.133789062 687.344726562 l 1,56,-1
 209.862304688 691.412109375 l 2,57,58
 217.646484375 696.118164062 217.646484375 696.118164062 226.965820312 700.887695312 c 128,-1,59
 236.286132812 705.65625 236.286132812 705.65625 247.200195312 710.533203125 c 0,60,61
 269.142578125 720.334960938 269.142578125 720.334960938 295.374023438 728.044921875 c 0,62,63
 308.440429688 731.884765625 308.440429688 731.884765625 322.165039062 735.080078125 c 128,-1,64
 335.888671875 738.274414062 335.888671875 738.274414062 350.270507812 740.826171875 c 128,-1,65
 364.84375 743.413085938 364.84375 743.413085938 379.560546875 744.706054688 c 128,-1,66
 394.279296875 746 394.279296875 746 409.125 746 c 0,67,68
 463.04296875 746 463.04296875 746 501.818359375 733.268554688 c 0,69,70
 539.407226562 720.374023438 539.407226562 720.374023438 563.990234375 696.9453125 c 128,-1,71
 588.643554688 673.44921875 588.643554688 673.44921875 599.91796875 642.586914062 c 0,72,73
 610.997070312 612.26171875 610.997070312 612.26171875 610.997070312 577.456054688 c 0,74,75
 610.997070312 567.171875 610.997070312 567.171875 610.138671875 557.322265625 c 128,-1,76
 609.279296875 547.471679688 609.279296875 547.471679688 607.555664062 538.044921875 c 128,-1,77
 605.83203125 528.6171875 605.83203125 528.6171875 603.25 519.6484375 c 128,-1,78
 600.66796875 510.6796875 600.66796875 510.6796875 597.211914062 502.151367188 c 128,-1,79
 593.754882812 493.623046875 593.754882812 493.623046875 589.44140625 485.578125 c 128,-1,80
 585.127929688 477.533203125 585.127929688 477.533203125 579.930664062 469.947265625 c 128,-1,81
 574.733398438 462.361328125 574.733398438 462.361328125 568.6796875 455.284179688 c 0,82,83
 533.479492188 414.131835938 533.479492188 414.131835938 475.130859375 387.883789062 c 1,84,85
 478.602539062 386.030273438 478.602539062 386.030273438 481.766601562 384.184570312 c 128,-1,86
 484.9296875 382.338867188 484.9296875 382.338867188 487.936523438 380.420898438 c 128,-1,87
 490.943359375 378.50390625 490.943359375 378.50390625 493.997070312 376.274414062 c 0,88,89
 503.620117188 369.243164062 503.620117188 369.243164062 512.158203125 360.665039062 c 128,-1,90
 520.696289062 352.086914062 520.696289062 352.086914062 528.12109375 342.01171875 c 0,91,92
 542.970703125 321.861328125 542.970703125 321.861328125 552.447265625 295.189453125 c 0,93,94
 557.240234375 281.698242188 557.240234375 281.698242188 559.619140625 266.765625 c 128,-1,95
 561.997070312 251.83203125 561.997070312 251.83203125 561.997070312 235.49609375 c 0,96,97
 561.997070312 224.427734375 561.997070312 224.427734375 561.189453125 213.701171875 c 128,-1,98
 560.381835938 202.973632812 560.381835938 202.973632812 558.759765625 192.569335938 c 128,-1,99
 557.138671875 182.165039062 557.138671875 182.165039062 554.70703125 172.1171875 c 128,-1,100
 552.275390625 162.069335938 552.275390625 162.069335938 549.022460938 152.353515625 c 128,-1,101
 545.76953125 142.638671875 545.76953125 142.638671875 541.704101562 133.294921875 c 0,102,103
 531.522460938 109.895507812 531.522460938 109.895507812 516.580078125 89.84765625 c 128,-1,104
 501.638671875 69.798828125 501.638671875 69.798828125 481.48046875 53.2568359375 c 0,105,106
 439.932617188 20.263671875 439.932617188 20.263671875 378.2734375 2.6083984375 c 0,107,108
 347.634765625 -6.1650390625 347.634765625 -6.1650390625 312.55859375 -10.5244140625 c 128,-1,109
 277.482421875 -15 277.482421875 -15 237.940429688 -15 c 0,110,111
 227.934570312 -15 227.934570312 -15 218.329101562 -14.7138671875 c 128,-1,112
 208.723632812 -14.427734375 208.723632812 -14.427734375 199.495117188 -13.853515625 c 128,-1,113
 190.264648438 -13.2802734375 190.264648438 -13.2802734375 181.416015625 -12.4150390625 c 128,-1,114
 172.567382812 -11.55078125 172.567382812 -11.55078125 164.110351562 -10.396484375 c 0,115,116
 131.869140625 -5.7958984375 131.869140625 -5.7958984375 107.197265625 1.400390625 c 128,-1,117
 82.6328125 8.564453125 82.6328125 8.564453125 65.591796875 15.7939453125 c 0,118,119
 47.7314453125 23.37109375 47.7314453125 23.37109375 40.595703125 29.3173828125 c 2,120,-1
 34.8701171875 34.0888671875 l 1,121,-1
 37.8056640625 40.939453125 l 1,122,-1
 73.8056640625 124.939453125 l 1,123,-1
 78.318359375 135.46875 l 1,124,-1
 88.142578125 129.575195312 l 2,125,126
 102.484375 120.969726562 102.484375 120.969726562 139.774414062 105.759765625 c 0,0,1
EndSplineSet
Substitution2: "'ss02' Style Set 2 lookup 15 subtable" threesuperior
Substitution2: "'sinf' Scientific Inferiors lookup 11 subtable" three.sinf
Substitution2: "'subs' Subscript lookup 10 subtable" three.sinf
Substitution2: "'sups' Superscript lookup 9 subtable" three.sups
Substitution2: "'dnom' Denominators lookup 8 subtable" threeinferior
Substitution2: "'numr' Numerators lookup 6 subtable" threesuperior
EndChar

StartChar: four
Encoding: 52 52 23
Width: 550
VWidth: 1177
Flags: W
LayerCount: 2
Fore
SplineSet
573.346679688 176 m 1,0,-1
 495.344726562 176 l 1,1,-1
 451.642578125 7.748046875 l 1,2,-1
 449.7421875 0 l 1,3,-1
 441.30859375 0 l 1,4,-1
 339.498046875 0 l 1,5,-1
 326.021484375 0 l 1,6,-1
 329.190429688 11.6875 l 1,7,-1
 373.745117188 176 l 1,8,-1
 54.3466796875 176 l 1,9,-1
 41.6328125 176 l 1,10,-1
 44.6279296875 188.135742188 l 1,11,-1
 60.6279296875 252.958984375 l 1,12,-1
 60.98046875 254.384765625 l 1,13,-1
 61.7412109375 255.647460938 l 2,14,15
 91.01953125 304.235351562 91.01953125 304.235351562 139.346679688 367.5234375 c 0,16,17
 163.591796875 399.127929688 163.591796875 399.127929688 191.838867188 430.963867188 c 128,-1,18
 220.084960938 462.799804688 220.084960938 462.799804688 250.985351562 494.870117188 c 0,19,20
 312.801757812 559.029296875 312.801757812 559.029296875 382.053710938 619.7109375 c 128,-1,21
 451.408203125 680.483398438 451.408203125 680.483398438 517.305664062 726.96875 c 2,22,-1
 519.984375 729 l 1,23,-1
 523.346679688 729 l 1,24,-1
 619.346679688 729 l 1,25,-1
 632.053710938 729 l 1,26,-1
 629.06640625 716.916015625 l 1,27,-1
 520.053710938 276 l 1,28,-1
 592.346679688 276 l 1,29,-1
 605 276 l 1,30,-1
 602.076171875 263.689453125 l 1,31,-1
 583.076171875 183.689453125 l 1,32,-1
 581.25 176 l 1,33,-1
 573.346679688 176 l 1,0,-1
400.05078125 276 m 1,34,-1
 476.435546875 579.2109375 l 1,35,36
 447.885742188 555.375976562 447.885742188 555.375976562 418.489257812 528.340820312 c 0,37,38
 375.765625 489.05078125 375.765625 489.05078125 333.55859375 445.2734375 c 128,-1,39
 291.412109375 401.557617188 291.412109375 401.557617188 252.416992188 354.354492188 c 0,40,41
 219.952148438 315.056640625 219.952148438 315.056640625 193.278320312 276 c 1,42,-1
 400.05078125 276 l 1,34,-1
EndSplineSet
Substitution2: "'ss02' Style Set 2 lookup 15 subtable" foursuperior
Substitution2: "'sinf' Scientific Inferiors lookup 11 subtable" four.sinf
Substitution2: "'subs' Subscript lookup 10 subtable" four.sinf
Substitution2: "'sups' Superscript lookup 9 subtable" four.sups
Substitution2: "'dnom' Denominators lookup 8 subtable" fourinferior
Substitution2: "'numr' Numerators lookup 6 subtable" foursuperior
EndChar

StartChar: five
Encoding: 53 53 24
Width: 550
VWidth: 1177
Flags: W
LayerCount: 2
Fore
SplineSet
629.778320312 647 m 1,0,-1
 375.436523438 647 l 1,1,2
 368.791015625 628.016601562 368.791015625 628.016601562 360.983398438 605.389648438 c 0,3,4
 351.467773438 577.811523438 351.467773438 577.811523438 341.422851562 550.234375 c 128,-1,5
 331.423828125 522.782226562 331.423828125 522.782226562 322.481445312 497.337890625 c 0,6,7
 316.405273438 480.05078125 316.405273438 480.05078125 311.924804688 466.353515625 c 1,8,9
 342.08203125 462.25390625 342.08203125 462.25390625 368.399414062 456.198242188 c 128,-1,10
 394.717773438 450.142578125 394.717773438 450.142578125 417.625976562 441.9921875 c 128,-1,11
 440.533203125 433.842773438 440.533203125 433.842773438 459.916992188 423.536132812 c 128,-1,12
 479.299804688 413.228515625 479.299804688 413.228515625 495.272460938 400.708007812 c 0,13,14
 517.798828125 383.051757812 517.798828125 383.051757812 532.875976562 360.284179688 c 0,15,16
 547.61328125 337.516601562 547.61328125 337.516601562 554.696289062 310.1875 c 128,-1,17
 561.778320312 282.858398438 561.778320312 282.858398438 561.778320312 251 c 0,18,19
 561.778320312 243.044921875 561.778320312 243.044921875 561.3984375 235.239257812 c 128,-1,20
 561.018554688 227.432617188 561.018554688 227.432617188 560.2578125 219.767578125 c 128,-1,21
 559.497070312 212.102539062 559.497070312 212.102539062 558.356445312 204.58984375 c 128,-1,22
 557.21484375 197.077148438 557.21484375 197.077148438 555.690429688 189.708984375 c 128,-1,23
 554.166015625 182.340820312 554.166015625 182.340820312 552.260742188 175.129882812 c 128,-1,24
 550.356445312 167.918945312 550.356445312 167.918945312 548.065429688 160.85546875 c 128,-1,25
 545.775390625 153.791992188 545.775390625 153.791992188 543.104492188 146.889648438 c 0,26,27
 538.240234375 134.739257812 538.240234375 134.739257812 531.918945312 123.345703125 c 128,-1,28
 525.59765625 111.951171875 525.59765625 111.951171875 517.9375 101.3515625 c 128,-1,29
 510.279296875 90.7509765625 510.279296875 90.7509765625 501.288085938 80.9423828125 c 128,-1,30
 492.294921875 71.1337890625 492.294921875 71.1337890625 481.98828125 62.140625 c 0,31,32
 461.334960938 44.119140625 461.334960938 44.119140625 435.07421875 29.9794921875 c 128,-1,33
 408.813476562 15.83984375 408.813476562 15.83984375 377.041992188 5.5380859375 c 0,34,35
 355.826171875 -1.341796875 355.826171875 -1.341796875 332.086914062 -5.912109375 c 128,-1,36
 308.349609375 -10.4814453125 308.349609375 -10.4814453125 282.282226562 -12.7412109375 c 128,-1,37
 256.213867188 -15 256.213867188 -15 227.603515625 -15 c 0,38,39
 190.868164062 -15 190.868164062 -15 158.889648438 -9.859375 c 0,40,41
 128.65625 -4.783203125 128.65625 -4.783203125 103.713867188 1.833984375 c 0,42,43
 91.1533203125 5.1669921875 91.1533203125 5.1669921875 80.865234375 8.5107421875 c 128,-1,44
 70.5771484375 11.853515625 70.5771484375 11.853515625 62.4111328125 15.2783203125 c 0,45,46
 53.73828125 18.9150390625 53.73828125 18.9150390625 48.4052734375 21.63671875 c 128,-1,47
 43.072265625 24.3583984375 43.072265625 24.3583984375 39.53125 27.19140625 c 2,48,-1
 33.408203125 32.08984375 l 1,49,-1
 36.705078125 39.205078125 l 1,50,-1
 74.705078125 121.205078125 l 1,51,-1
 79.3828125 131.298828125 l 1,52,-1
 88.9228515625 125.575195312 l 2,53,54
 95.751953125 121.477539062 95.751953125 121.477539062 108.275390625 115.950195312 c 128,-1,55
 120.797851562 110.422851562 120.797851562 110.422851562 138.290039062 103.86328125 c 0,56,57
 173.634765625 91 173.634765625 91 233.928710938 91 c 0,58,59
 276.697265625 91 276.697265625 91 314.783203125 101.26953125 c 0,60,61
 352.504882812 111.442382812 352.504882812 111.442382812 379.981445312 130.271484375 c 0,62,63
 386.772460938 134.924804688 386.772460938 134.924804688 392.795898438 140.08984375 c 128,-1,64
 398.818359375 145.254882812 398.818359375 145.254882812 404.09375 150.952148438 c 128,-1,65
 409.370117188 156.649414062 409.370117188 156.649414062 413.904296875 162.877929688 c 128,-1,66
 418.4375 169.106445312 418.4375 169.106445312 422.254882812 175.897460938 c 0,67,68
 427.293945312 184.866210938 427.293945312 184.866210938 430.655273438 194.616210938 c 128,-1,69
 434.015625 204.366210938 434.015625 204.366210938 435.717773438 215.067382812 c 128,-1,70
 437.419921875 225.768554688 437.419921875 225.768554688 437.419921875 237.357421875 c 0,71,72
 437.419921875 280.991210938 437.419921875 280.991210938 412.365234375 305.328125 c 0,73,74
 386.137695312 330.803710938 386.137695312 330.803710938 347.887695312 343.58984375 c 0,75,76
 328.271484375 350.147460938 328.271484375 350.147460938 306.806640625 354.375976562 c 128,-1,77
 285.340820312 358.604492188 285.340820312 358.604492188 262 360.490234375 c 0,78,79
 214.06640625 364.364257812 214.06640625 364.364257812 174.055664062 367.267578125 c 2,80,-1
 160.096679688 368.28125 l 1,81,-1
 165.012695312 380.333984375 l 2,82,83
 183.958007812 426.775390625 183.958007812 426.775390625 200.26171875 469.322265625 c 128,-1,84
 216.569335938 511.879882812 216.569335938 511.879882812 231.294921875 552.974609375 c 128,-1,85
 246.016601562 594.0546875 246.016601562 594.0546875 259.684570312 635.619140625 c 0,86,87
 266.508789062 656.366210938 266.508789062 656.366210938 273.0703125 677.842773438 c 128,-1,88
 279.6328125 699.319335938 279.6328125 699.319335938 285.934570312 721.524414062 c 2,89,-1
 287.990234375 729 l 1,90,-1
 296.135742188 729 l 1,91,-1
 648.778320312 729 l 1,92,-1
 661.360351562 729 l 1,93,-1
 658.520507812 719.146484375 l 1,94,-1
 639.520507812 653.224609375 l 1,95,-1
 637.7265625 647 l 1,96,-1
 629.778320312 647 l 1,0,-1
EndSplineSet
Substitution2: "'ss02' Style Set 2 lookup 15 subtable" fivesuperior
Substitution2: "'sinf' Scientific Inferiors lookup 11 subtable" five.sinf
Substitution2: "'subs' Subscript lookup 10 subtable" five.sinf
Substitution2: "'sups' Superscript lookup 9 subtable" five.sups
Substitution2: "'dnom' Denominators lookup 8 subtable" fiveinferior
Substitution2: "'numr' Numerators lookup 6 subtable" fivesuperior
EndChar

StartChar: six
Encoding: 54 54 25
Width: 550
VWidth: 1177
Flags: W
LayerCount: 2
Fore
SplineSet
285.5625 350.34375 m 0,0,1
 250.7578125 345.081054688 250.7578125 345.081054688 213.899414062 328.904296875 c 1,2,3
 203.4765625 298.447265625 203.4765625 298.447265625 198.654296875 267.827148438 c 0,4,5
 197.34765625 259.534179688 197.34765625 259.534179688 196.384765625 251.65625 c 128,-1,6
 195.463867188 243.779296875 195.463867188 243.779296875 194.854492188 236.353515625 c 128,-1,7
 194.244140625 228.928710938 194.244140625 228.928710938 193.939453125 221.950195312 c 128,-1,8
 193.634765625 214.970703125 193.634765625 214.970703125 193.634765625 208.42578125 c 0,9,10
 193.634765625 147.602539062 193.634765625 147.602539062 216.737304688 114.78125 c 0,11,12
 238.58203125 84 238.58203125 84 296.57421875 84 c 0,13,14
 337.447265625 84 337.447265625 84 369.0859375 99.6962890625 c 0,15,16
 401.086914062 115.573242188 401.086914062 115.573242188 422.030273438 140.908203125 c 0,17,18
 443.252929688 166.578125 443.252929688 166.578125 454.40234375 199.223632812 c 0,19,20
 465.62109375 232.0703125 465.62109375 232.0703125 465.620117188 266.297851562 c 0,21,22
 465.62109375 311.661132812 465.62109375 311.661132812 442.465820312 333.952148438 c 0,23,24
 419.56640625 356 419.56640625 356 362.4921875 356 c 0,25,26
 322.970703125 356 322.970703125 356 285.5625 350.34375 c 0,0,1
128.138671875 42.3486328125 m 0,27,28
 76.634765625 99.1650390625 76.634765625 99.1650390625 76.634765625 198.296875 c 0,29,30
 76.634765625 308.18359375 76.634765625 308.18359375 114.279296875 405.293945312 c 0,31,32
 133.111328125 453.874023438 133.111328125 453.874023438 160.014648438 496.344726562 c 128,-1,33
 186.91796875 538.81640625 186.91796875 538.81640625 223.435546875 575.065429688 c 0,34,35
 297.723632812 647.58984375 297.723632812 647.58984375 401.736328125 690.268554688 c 128,-1,36
 505.875 733 505.875 733 627.634765625 733 c 2,37,-1
 641.634765625 733 l 1,38,-1
 653.165039062 733 l 1,39,-1
 651.534179688 721.5859375 l 1,40,-1
 639.534179688 637.5859375 l 1,41,-1
 638.307617188 629 l 1,42,-1
 629.634765625 629 l 1,43,-1
 624.634765625 629 l 2,44,45
 552.206054688 629 552.206054688 629 490.677734375 611.033203125 c 0,46,47
 469.69140625 605.022460938 469.69140625 605.022460938 450.291992188 597.685546875 c 128,-1,48
 430.893554688 590.34765625 430.893554688 590.34765625 413.1328125 581.71484375 c 128,-1,49
 395.372070312 573.08203125 395.372070312 573.08203125 379.169921875 563.126953125 c 128,-1,50
 362.927734375 553.146484375 362.927734375 553.146484375 348.201171875 542.10546875 c 128,-1,51
 333.473632812 531.064453125 333.473632812 531.064453125 320.26953125 518.971679688 c 128,-1,52
 307.064453125 506.87890625 307.064453125 506.87890625 295.344726562 493.708984375 c 0,53,54
 269.309570312 463.739257812 269.309570312 463.739257812 252.053710938 431.15625 c 1,55,56
 266 436.317382812 266 436.317382812 278.872070312 440.240234375 c 128,-1,57
 291.741210938 444.1640625 291.741210938 444.1640625 306.127929688 447.678710938 c 0,58,59
 348.375 458 348.375 458 388.0078125 458 c 0,60,61
 405.271484375 458 405.271484375 458 420.987304688 456.364257812 c 128,-1,62
 436.701171875 454.729492188 436.701171875 454.729492188 451.088867188 451.390625 c 128,-1,63
 465.474609375 448.051757812 465.474609375 448.051757812 478.296875 443.015625 c 0,64,65
 516.501953125 428.0078125 516.501953125 428.0078125 541.4296875 403.001953125 c 0,66,67
 565.463867188 377.897460938 565.463867188 377.897460938 576.151367188 345.44921875 c 0,68,69
 581.401367188 329.51171875 581.401367188 329.51171875 584.018554688 312.34375 c 128,-1,70
 586.634765625 295.176757812 586.634765625 295.176757812 586.634765625 276.830078125 c 0,71,72
 586.634765625 250.141601562 586.634765625 250.141601562 582.517578125 223.931640625 c 128,-1,73
 578.399414062 197.721679688 578.399414062 197.721679688 570.17578125 172.051757812 c 0,74,75
 553.596679688 120.299804688 553.596679688 120.299804688 517.434570312 78.1923828125 c 0,76,77
 479.767578125 35.8427734375 479.767578125 35.8427734375 421.25 10.41796875 c 128,-1,78
 362.747070312 -15 362.747070312 -15 281.689453125 -15 c 0,79,80
 180.124023438 -15 180.124023438 -15 128.138671875 42.3486328125 c 0,27,28
EndSplineSet
Substitution2: "'ss02' Style Set 2 lookup 15 subtable" sixsuperior
Substitution2: "'sinf' Scientific Inferiors lookup 11 subtable" six.sinf
Substitution2: "'subs' Subscript lookup 10 subtable" six.sinf
Substitution2: "'sups' Superscript lookup 9 subtable" six.sups
Substitution2: "'dnom' Denominators lookup 8 subtable" sixinferior
Substitution2: "'numr' Numerators lookup 6 subtable" sixsuperior
EndChar

StartChar: seven
Encoding: 55 55 26
Width: 550
VWidth: 1177
Flags: W
LayerCount: 2
Fore
SplineSet
119.696289062 0 m 1,0,-1
 123.337890625 12.7470703125 l 2,1,2
 147.576171875 97.578125 147.576171875 97.578125 192.952148438 191.35546875 c 0,3,4
 238.205078125 284.87890625 238.205078125 284.87890625 297.9765625 373.369140625 c 128,-1,5
 357.813476562 461.814453125 357.813476562 461.814453125 422.481445312 538.228515625 c 0,6,7
 476.182617188 601.682617188 476.182617188 601.682617188 525.692382812 647 c 1,8,-1
 187.953125 647 l 1,9,-1
 175.372070312 647 l 1,10,-1
 178.211914062 656.65625 l 1,11,-1
 197.211914062 721.256835938 l 1,12,-1
 199.005859375 729 l 1,13,-1
 206.953125 729 l 1,14,-1
 683.953125 729 l 1,15,-1
 696.580078125 729 l 1,16,-1
 693.6875 719.172851562 l 1,17,-1
 673.6875 651.2109375 l 1,18,-1
 672.947265625 648.693359375 l 1,19,-1
 670.502929688 647 l 2,20,21
 659.448242188 637.411132812 659.448242188 637.411132812 647.485351562 625.959960938 c 128,-1,22
 635.522460938 614.508789062 635.522460938 614.508789062 622.6484375 601.192382812 c 128,-1,23
 609.774414062 587.875976562 609.774414062 587.875976562 595.978515625 572.669921875 c 128,-1,24
 582.182617188 557.463867188 582.182617188 557.463867188 566.959960938 540.438476562 c 0,25,26
 535.828125 506.411132812 535.828125 506.411132812 504.926757812 467.745117188 c 128,-1,27
 474.024414062 429.079101562 474.024414062 429.079101562 443.365234375 385.782226562 c 0,28,29
 382.064453125 299.21484375 382.064453125 299.21484375 329.173828125 201.625 c 0,30,31
 276.462890625 104.362304688 276.462890625 104.362304688 245.912109375 7.162109375 c 2,32,-1
 243.658203125 0 l 1,33,-1
 235.953125 0 l 1,34,-1
 132.953125 0 l 1,35,-1
 119.696289062 0 l 1,0,-1
EndSplineSet
Substitution2: "'ss02' Style Set 2 lookup 15 subtable" sevensuperior
Substitution2: "'sinf' Scientific Inferiors lookup 11 subtable" seven.sinf
Substitution2: "'subs' Subscript lookup 10 subtable" seven.sinf
Substitution2: "'sups' Superscript lookup 9 subtable" seven.sups
Substitution2: "'dnom' Denominators lookup 8 subtable" seveninferior
Substitution2: "'numr' Numerators lookup 6 subtable" sevensuperior
EndChar

StartChar: eight
Encoding: 56 56 27
Width: 550
VWidth: 1177
Flags: W
LayerCount: 2
Fore
SplineSet
532.991210938 389.206054688 m 0,0,1
 514.182617188 376.342773438 514.182617188 376.342773438 492.064453125 365.452148438 c 1,2,3
 522.038085938 343.188476562 522.038085938 343.188476562 543.501953125 314.900390625 c 0,4,5
 557.328125 296.678710938 557.328125 296.678710938 564.143554688 273.114257812 c 128,-1,6
 570.959960938 249.549804688 570.959960938 249.549804688 570.959960938 220.953125 c 0,7,8
 570.959960938 174.217773438 570.959960938 174.217773438 552.70703125 131.036132812 c 128,-1,9
 534.370117188 87.658203125 534.370117188 87.658203125 496.909179688 55.03125 c 0,10,11
 458.643554688 22.4853515625 458.643554688 22.4853515625 400.793945312 3.79296875 c 0,12,13
 381.541992188 -2.427734375 381.541992188 -2.427734375 360.212890625 -6.5615234375 c 128,-1,14
 338.883789062 -10.8046875 338.883789062 -10.8046875 315.659179688 -12.90234375 c 128,-1,15
 292.435546875 -15 292.435546875 -15 267.131835938 -15 c 0,16,17
 208.796875 -15 208.796875 -15 168.767578125 -0.1826171875 c 0,18,19
 130.348632812 14.6884765625 130.348632812 14.6884765625 105.888671875 38.5224609375 c 0,20,21
 93.6396484375 50.4580078125 93.6396484375 50.4580078125 84.6494140625 64.1865234375 c 128,-1,22
 75.6591796875 77.9150390625 75.6591796875 77.9150390625 70.0390625 93.30078125 c 0,23,24
 66.3603515625 103.370117188 66.3603515625 103.370117188 63.900390625 113.415039062 c 128,-1,25
 61.4404296875 123.459960938 61.4404296875 123.459960938 60.2001953125 133.517578125 c 128,-1,26
 58.9599609375 143.57421875 58.9599609375 143.57421875 58.9599609375 153.569335938 c 0,27,28
 58.9599609375 231.831054688 58.9599609375 231.831054688 104.943359375 291.912109375 c 0,29,30
 146.481445312 346.184570312 146.481445312 346.184570312 220.358398438 381.87109375 c 1,31,32
 162 432.477539062 162 432.477539062 162.959960938 507.334960938 c 0,33,34
 162.959960938 554.947265625 162.959960938 554.947265625 180.78125 598.100585938 c 0,35,36
 187.068359375 612.515625 187.068359375 612.515625 195.348632812 625.831054688 c 128,-1,37
 203.629882812 639.146484375 203.629882812 639.146484375 213.874023438 651.3203125 c 128,-1,38
 224.118164062 663.494140625 224.118164062 663.494140625 236.306640625 674.50390625 c 0,39,40
 254.591796875 691.021484375 254.591796875 691.021484375 276.591796875 704.094726562 c 128,-1,41
 298.594726562 717.16796875 298.594726562 717.16796875 324.1953125 726.762695312 c 0,42,43
 375.524414062 746 375.524414062 746 440.287109375 746 c 0,44,45
 494.453125 746 494.453125 746 532.787109375 731.133789062 c 0,46,47
 551.106445312 723.740234375 551.106445312 723.740234375 566.185546875 714.334960938 c 128,-1,48
 581.263671875 704.9296875 581.263671875 704.9296875 593.03125 693.466796875 c 0,49,50
 616.569335938 670.538085938 616.569335938 670.538085938 628.330078125 639.815429688 c 0,51,52
 639.959960938 609.43359375 639.959960938 609.43359375 639.959960938 578.453125 c 0,53,54
 639.959960938 563.6640625 639.959960938 563.6640625 638.217773438 549.560546875 c 128,-1,55
 636.475585938 535.45703125 636.475585938 535.45703125 632.98828125 522.053710938 c 128,-1,56
 629.5 508.649414062 629.5 508.649414062 624.279296875 495.989257812 c 128,-1,57
 619.05859375 483.329101562 619.05859375 483.329101562 612.084960938 471.40234375 c 128,-1,58
 605.112304688 459.4765625 605.112304688 459.4765625 596.416015625 448.3515625 c 0,59,60
 583.58203125 431.934570312 583.58203125 431.934570312 567.521484375 417.001953125 c 128,-1,61
 551.4609375 402.0703125 551.4609375 402.0703125 532.991210938 389.206054688 c 0,0,1
415.708984375 293.020507812 m 0,62,63
 380.868164062 322.12109375 380.868164062 322.12109375 317.666015625 343.211914062 c 1,64,65
 303.375976562 336.709960938 303.375976562 336.709960938 290.881835938 329.689453125 c 128,-1,66
 278.387695312 322.669921875 278.387695312 322.669921875 265.353515625 313.873046875 c 0,67,68
 261.47265625 311.252929688 261.47265625 311.252929688 257.741210938 308.556640625 c 128,-1,69
 254.0078125 305.860351562 254.0078125 305.860351562 250.431640625 303.091796875 c 128,-1,70
 246.854492188 300.323242188 246.854492188 300.323242188 243.424804688 297.478515625 c 128,-1,71
 239.99609375 294.6328125 239.99609375 294.6328125 236.719726562 291.715820312 c 128,-1,72
 233.444335938 288.798828125 233.444335938 288.798828125 230.315429688 285.803710938 c 128,-1,73
 227.186523438 282.809570312 227.186523438 282.809570312 224.209960938 279.743164062 c 128,-1,74
 221.232421875 276.676757812 221.232421875 276.676757812 218.401367188 273.533203125 c 0,75,76
 211.828125 266.235351562 211.828125 266.235351562 206.166992188 258.533203125 c 128,-1,77
 200.505859375 250.830078125 200.505859375 250.830078125 195.75390625 242.724609375 c 128,-1,78
 191.002929688 234.619140625 191.002929688 234.619140625 187.140625 226.081054688 c 0,79,80
 175.959960938 200.958984375 175.959960938 200.958984375 175.959960938 175 c 0,81,82
 175.959960938 170.315429688 175.959960938 170.315429688 176.251953125 165.73046875 c 128,-1,83
 176.54296875 161.145507812 176.54296875 161.145507812 177.125976562 156.662109375 c 128,-1,84
 177.708984375 152.177734375 177.708984375 152.177734375 178.580078125 147.79296875 c 128,-1,85
 179.481445312 143.409179688 179.481445312 143.409179688 180.716796875 139.109375 c 0,86,87
 185.372070312 122.89453125 185.372070312 122.89453125 196.975585938 110.66015625 c 0,88,89
 200.776367188 106.653320312 200.776367188 106.653320312 205.450195312 103.203125 c 128,-1,90
 210.123046875 99.7529296875 210.123046875 99.7529296875 215.89453125 96.759765625 c 128,-1,91
 221.666015625 93.767578125 221.666015625 93.767578125 228.420898438 91.3447265625 c 0,92,93
 248.901367188 84 248.901367188 84 280.94140625 84 c 0,94,95
 316.37109375 84 316.37109375 84 347.645507812 93.9716796875 c 128,-1,96
 378.793945312 103.903320312 378.793945312 103.903320312 401.760742188 121.291992188 c 0,97,98
 424.321289062 138.375 424.321289062 138.375 437.08984375 163.337890625 c 128,-1,99
 449.848632812 188.282226562 449.848632812 188.282226562 449.84765625 217 c 0,100,101
 449.84765625 264.50390625 449.84765625 264.50390625 415.708984375 293.020507812 c 0,62,63
342.416992188 421.501953125 m 128,-1,103
 363.088867188 410.15625 363.088867188 410.15625 390.65625 400.849609375 c 1,104,105
 415.633789062 413.037109375 415.633789062 413.037109375 438.27734375 428.580078125 c 0,106,107
 450.59765625 437.036132812 450.59765625 437.036132812 461.607421875 446.31640625 c 128,-1,108
 472.619140625 455.596679688 472.619140625 455.596679688 482.338867188 465.708984375 c 0,109,110
 501.255859375 485.391601562 501.255859375 485.391601562 511.703125 509.745117188 c 0,111,112
 515.147460938 517.771484375 515.147460938 517.771484375 517.44921875 526.424804688 c 128,-1,113
 519.749023438 535.078125 519.749023438 535.078125 520.860351562 544.4921875 c 128,-1,114
 521.959960938 553.907226562 521.959960938 553.907226562 521.959960938 564 c 0,115,116
 521.959960938 570.8671875 521.959960938 570.8671875 521.03515625 578.15234375 c 128,-1,117
 520.109375 585.436523438 520.109375 585.436523438 518.133789062 593.143554688 c 0,118,119
 516.30078125 600.260742188 516.30078125 600.260742188 512.774414062 606.686523438 c 128,-1,120
 509.249023438 613.111328125 509.249023438 613.111328125 503.90625 619.015625 c 0,121,122
 493.360351562 630.668945312 493.360351562 630.668945312 475.028320312 637.748046875 c 0,123,124
 456.251953125 645 456.251953125 645 427.540039062 645 c 0,125,126
 396.63671875 645 396.63671875 645 370.370117188 635.203125 c 128,-1,127
 344.262695312 625.465820312 344.262695312 625.465820312 325.103515625 607.428710938 c 128,-1,128
 305.87890625 589.333007812 305.87890625 589.333007812 295.001953125 564.666015625 c 0,129,130
 289.5703125 552.345703125 289.5703125 552.345703125 286.848632812 538.958984375 c 128,-1,131
 284.127929688 525.572265625 284.127929688 525.572265625 284.127929688 511 c 0,132,133
 284.127929688 470.930664062 284.127929688 470.930664062 309.435546875 445.309570312 c 0,134,102
 321.744140625 432.848632812 321.744140625 432.848632812 342.416992188 421.501953125 c 128,-1,103
EndSplineSet
Substitution2: "'ss02' Style Set 2 lookup 15 subtable" eightsuperior
Substitution2: "'sinf' Scientific Inferiors lookup 11 subtable" eight.sinf
Substitution2: "'subs' Subscript lookup 10 subtable" eight.sinf
Substitution2: "'sups' Superscript lookup 9 subtable" eight.sups
Substitution2: "'dnom' Denominators lookup 8 subtable" eightinferior
Substitution2: "'numr' Numerators lookup 6 subtable" eightsuperior
EndChar

StartChar: nine
Encoding: 57 57 28
Width: 550
VWidth: 1177
Flags: W
LayerCount: 2
Fore
SplineSet
408.99609375 284.735351562 m 0,0,1
 366.997070312 276 366.997070312 276 326.563476562 276 c 0,2,3
 317.981445312 276 317.981445312 276 309.784179688 276.37890625 c 128,-1,4
 301.587890625 276.7578125 301.587890625 276.7578125 293.7265625 277.51953125 c 128,-1,5
 285.864257812 278.282226562 285.864257812 278.282226562 278.373046875 279.435546875 c 128,-1,6
 270.881835938 280.588867188 270.881835938 280.588867188 263.75 282.130859375 c 128,-1,7
 256.619140625 283.673828125 256.619140625 283.673828125 249.83984375 285.620117188 c 128,-1,8
 243.059570312 287.56640625 243.059570312 287.56640625 236.6640625 289.908203125 c 0,9,10
 223.987304688 294.55078125 223.987304688 294.55078125 212.741210938 300.37109375 c 128,-1,11
 201.49609375 306.190429688 201.49609375 306.190429688 191.619140625 313.250976562 c 128,-1,12
 181.743164062 320.3125 181.743164062 320.3125 173.388671875 328.54296875 c 0,13,14
 149.83984375 353.115234375 149.83984375 353.115234375 138.6484375 385.987304688 c 0,15,16
 127.634765625 418.3359375 127.634765625 418.3359375 127.634765625 454.192382812 c 0,17,18
 127.634765625 507.614257812 127.634765625 507.614257812 144.611328125 559.493164062 c 0,19,20
 153.142578125 585.5625 153.142578125 585.5625 166.108398438 608.921875 c 0,21,22
 179.482421875 632.280273438 179.482421875 632.280273438 197.903320312 652.822265625 c 128,-1,23
 216.446289062 673.499023438 216.446289062 673.499023438 240.090820312 690.078125 c 128,-1,24
 263.733398438 706.657226562 263.733398438 706.657226562 292.317382812 719.079101562 c 0,25,26
 349.665039062 744 349.665039062 744 425.283203125 744 c 0,27,28
 533.168945312 744 533.168945312 744 585.65625 685.654296875 c 0,29,30
 637.634765625 627.874023438 637.634765625 627.874023438 637.634765625 530.717773438 c 0,31,32
 637.634765625 418.958984375 637.634765625 418.958984375 601.537109375 321.91015625 c 0,33,34
 565.356445312 224.637695312 565.356445312 224.637695312 496.266601562 152.595703125 c 0,35,36
 460.21875 116.540039062 460.21875 116.540039062 416.431640625 88.1826171875 c 128,-1,37
 372.645507812 59.8251953125 372.645507812 59.8251953125 321.258789062 39.23046875 c 0,38,39
 218.383789062 -2 218.383789062 -2 91.634765625 -2 c 2,40,-1
 80.634765625 -2 l 2,41,42
 79.455078125 -2 79.455078125 -2 78.072265625 -1.95703125 c 128,-1,43
 76.689453125 -1.9130859375 76.689453125 -1.9130859375 75.13671875 -1.830078125 c 128,-1,44
 73.5830078125 -1.7470703125 73.5830078125 -1.7470703125 71.7724609375 -1.619140625 c 128,-1,45
 69.9619140625 -1.4912109375 69.9619140625 -1.4912109375 67.98828125 -1.3291015625 c 128,-1,46
 66.0146484375 -1.1669921875 66.0146484375 -1.1669921875 63.7294921875 -0.958984375 c 2,47,-1
 52.46484375 0.0654296875 l 1,48,-1
 54.8623046875 11.119140625 l 1,49,-1
 72.8623046875 94.119140625 l 1,50,-1
 75.048828125 104.204101562 l 1,51,-1
 85.060546875 101.701171875 l 2,52,53
 87.8662109375 101 87.8662109375 101 92.634765625 101 c 2,54,-1
 101.634765625 101 l 2,55,56
 137.9296875 101 137.9296875 101 170.170898438 105.274414062 c 0,57,58
 204.25390625 109.548828125 204.25390625 109.548828125 234.170898438 118.052734375 c 0,59,60
 294.096679688 135.0859375 294.096679688 135.0859375 339.94140625 164.922851562 c 0,61,62
 362.907226562 179.869140625 362.907226562 179.869140625 382.477539062 197.309570312 c 128,-1,63
 402.047851562 214.749023438 402.047851562 214.749023438 418.278320312 234.723632812 c 0,64,65
 442.80078125 265.504882812 442.80078125 265.504882812 461.967773438 299.50390625 c 1,66,67
 436.078125 290.368164062 436.078125 290.368164062 408.99609375 284.735351562 c 0,0,1
272.575195312 400.299804688 m 128,-1,69
 295.9921875 377 295.9921875 377 352.040039062 377 c 0,70,71
 391.452148438 377 391.452148438 377 429.815429688 383.120117188 c 0,72,73
 465.274414062 388.776367188 465.274414062 388.776367188 502.454101562 404.147460938 c 1,74,75
 512.276367188 434.768554688 512.276367188 434.768554688 517.078125 466 c 0,76,77
 521.634765625 497.232421875 521.634765625 497.232421875 521.634765625 530.259765625 c 0,78,79
 521.634765625 583.02734375 521.634765625 583.02734375 496.848632812 614.2265625 c 0,80,81
 472.958984375 644 472.958984375 644 417.852539062 644 c 0,82,83
 404.119140625 644 404.119140625 644 391.533203125 662 c 0,84,85
 378.946289062 660.16015625 378.946289062 660.16015625 367.600585938 656.53515625 c 128,-1,86
 356.25390625 652.91015625 356.25390625 652.91015625 345.936523438 647.478515625 c 0,87,88
 314.451171875 630.903320312 314.451171875 630.903320312 292.99609375 604.131835938 c 0,89,90
 288.671875 598.736328125 288.671875 598.736328125 284.774414062 593.052734375 c 128,-1,91
 280.875 587.369140625 280.875 587.369140625 277.390625 581.37890625 c 128,-1,92
 273.907226562 575.388671875 273.907226562 575.388671875 270.844726562 569.099609375 c 128,-1,93
 267.783203125 562.809570312 267.783203125 562.809570312 265.13671875 556.205078125 c 128,-1,94
 262.490234375 549.600585938 262.490234375 549.600585938 260.262695312 542.685546875 c 0,95,96
 249.07421875 507.958007812 249.07421875 507.958007812 249.073242188 472.267578125 c 0,97,68
 249.073242188 423.685546875 249.073242188 423.685546875 272.575195312 400.299804688 c 128,-1,69
EndSplineSet
Substitution2: "'ss02' Style Set 2 lookup 15 subtable" ninesuperior
Substitution2: "'sinf' Scientific Inferiors lookup 11 subtable" nine.sinf
Substitution2: "'subs' Subscript lookup 10 subtable" nine.sinf
Substitution2: "'sups' Superscript lookup 9 subtable" nine.sups
Substitution2: "'dnom' Denominators lookup 8 subtable" nineinferior
Substitution2: "'numr' Numerators lookup 6 subtable" ninesuperior
EndChar

StartChar: less
Encoding: 60 60 31
Width: 550
VWidth: 1177
Flags: W
LayerCount: 2
Fore
SplineSet
476.528320312 55.998046875 m 1,0,-1
 77.5283203125 248.998046875 l 1,1,-1
 70.2939453125 252.498046875 l 1,2,-1
 72.154296875 260.31640625 l 1,3,-1
 92.1552734375 344.31640625 l 1,4,-1
 93.365234375 349.400390625 l 1,5,-1
 98.2314453125 351.309570312 l 1,6,-1
 590.231445312 544.309570312 l 1,7,-1
 602.920898438 549.287109375 l 1,8,-1
 603.859375 535.688476562 l 1,9,-1
 609.859375 448.688476562 l 1,10,-1
 610.368164062 441.307617188 l 1,11,-1
 603.4609375 438.662109375 l 1,12,-1
 223.631835938 293.155273438 l 1,13,-1
 530.064453125 152.083984375 l 1,14,-1
 540.0234375 147.499023438 l 1,15,-1
 534.544921875 138.002929688 l 1,16,-1
 489.544921875 60.0029296875 l 1,17,-1
 484.8984375 51.94921875 l 1,18,-1
 476.528320312 55.998046875 l 1,0,-1
EndSplineSet
EndChar

StartChar: equal
Encoding: 61 61 32
Width: 550
VWidth: 1177
Flags: W
LayerCount: 2
Fore
SplineSet
136.13671875 473 m 1,0,-1
 609.13671875 473 l 1,1,-1
 621.796875 473 l 1,2,-1
 618.865234375 460.68359375 l 1,3,-1
 598.864257812 376.68359375 l 1,4,-1
 597.03515625 369 l 1,5,-1
 589.13671875 369 l 1,6,-1
 116.13671875 369 l 1,7,-1
 103.4765625 369 l 1,8,-1
 106.409179688 381.31640625 l 1,9,-1
 126.409179688 465.31640625 l 1,10,-1
 128.237304688 473 l 1,11,-1
 136.13671875 473 l 1,0,-1
82.13671875 249 m 1,12,-1
 555.13671875 249 l 1,13,-1
 567.796875 249 l 1,14,-1
 564.864257812 236.68359375 l 1,15,-1
 544.865234375 152.68359375 l 1,16,-1
 543.03515625 145 l 1,17,-1
 535.13671875 145 l 1,18,-1
 62.13671875 145 l 1,19,-1
 49.4755859375 145 l 1,20,-1
 52.408203125 157.31640625 l 1,21,-1
 72.408203125 241.31640625 l 1,22,-1
 74.23828125 249 l 1,23,-1
 82.13671875 249 l 1,12,-1
EndSplineSet
EndChar

StartChar: greater
Encoding: 62 62 33
Width: 550
VWidth: 1177
Flags: W
LayerCount: 2
Fore
SplineSet
183.479492188 544.001953125 m 1,0,-1
 582.479492188 351.001953125 l 1,1,-1
 589.71484375 347.501953125 l 1,2,-1
 587.852539062 339.68359375 l 1,3,-1
 567.853515625 255.68359375 l 1,4,-1
 566.642578125 250.599609375 l 1,5,-1
 561.77734375 248.690429688 l 1,6,-1
 69.77734375 55.6904296875 l 1,7,-1
 57.0869140625 50.712890625 l 1,8,-1
 56.1484375 64.3115234375 l 1,9,-1
 50.1484375 151.311523438 l 1,10,-1
 49.6396484375 158.702148438 l 1,11,-1
 56.560546875 161.342773438 l 1,12,-1
 435.450195312 305.907226562 l 1,13,-1
 129.91015625 447.931640625 l 1,14,-1
 120.004882812 452.536132812 l 1,15,-1
 125.462890625 461.997070312 l 1,16,-1
 170.462890625 539.997070312 l 1,17,-1
 175.109375 548.05078125 l 1,18,-1
 183.479492188 544.001953125 l 1,0,-1
EndSplineSet
EndChar

StartChar: question
Encoding: 63 63 34
Width: 550
VWidth: 1177
Flags: W
LayerCount: 2
Fore
SplineSet
237.029296875 250.7890625 m 1,0,-1
 241.025390625 272.763671875 l 2,1,2
 247.416992188 308.986328125 247.416992188 308.986328125 269.25 339.338867188 c 0,3,4
 279.798828125 354.00390625 279.798828125 354.00390625 292.0078125 367.754882812 c 256,5,6
 304.217773438 381.506835938 304.217773438 381.506835938 318.07421875 394.337890625 c 256,7,8
 331.747070312 406.997070312 331.747070312 406.997070312 346.173828125 419.147460938 c 256,9,10
 360.6015625 431.296875 360.6015625 431.296875 375.784179688 442.936523438 c 0,11,12
 390.573242188 454.274414062 390.573242188 454.274414062 404.112304688 465.844726562 c 256,13,14
 417.65234375 477.415039062 417.65234375 477.415039062 429.943359375 489.213867188 c 0,15,16
 454.072265625 512.377929688 454.072265625 512.377929688 469.924804688 537.358398438 c 0,17,18
 477.427734375 549.181640625 477.427734375 549.181640625 481.1484375 562.2578125 c 256,19,20
 484.868164062 575.334960938 484.868164062 575.334960938 484.868164062 590 c 0,21,22
 484.868164062 618.720703125 484.868164062 618.720703125 465.962890625 636.766601562 c 256,23,24
 446.861328125 655 446.861328125 655 400.868164062 655 c 0,25,26
 367.94921875 655 367.94921875 655 337.005859375 648.231445312 c 0,27,28
 321.583007812 644.857421875 321.583007812 644.857421875 304.552734375 639.018554688 c 256,29,30
 287.522460938 633.1796875 287.522460938 633.1796875 268.951171875 624.872070312 c 2,31,-1
 256.891601562 619.4765625 l 1,32,-1
 254.973632812 632.548828125 l 1,33,-1
 243.973632812 707.548828125 l 1,34,-1
 242.955078125 714.498046875 l 1,35,-1
 249.146484375 717.814453125 l 2,36,37
 258.954101562 723.069335938 258.954101562 723.069335938 270.5234375 727.8125 c 256,38,39
 282.094726562 732.556640625 282.094726562 732.556640625 295.265625 736.752929688 c 256,40,41
 308.436523438 740.950195312 308.436523438 740.950195312 323.442382812 744.701171875 c 0,42,43
 368.63671875 756 368.63671875 756 415.868164062 756 c 0,44,45
 432.942382812 756 432.942382812 756 449.653320312 754.056640625 c 256,46,47
 466.364257812 752.11328125 466.364257812 752.11328125 482.684570312 748.228515625 c 0,48,49
 499.239257812 744.286132812 499.239257812 744.286132812 514.182617188 737.938476562 c 256,50,51
 529.127929688 731.590820312 529.127929688 731.590820312 542.375976562 722.845703125 c 0,52,53
 569.517578125 704.93359375 569.517578125 704.93359375 585.213867188 675.1640625 c 0,54,55
 593.108398438 660.193359375 593.108398438 660.193359375 596.98828125 642.12890625 c 256,56,57
 600.868164062 624.064453125 600.868164062 624.064453125 600.868164062 603 c 0,58,59
 600.868164062 556.607421875 600.868164062 556.607421875 582.78515625 520.974609375 c 0,60,61
 576.895507812 509.368164062 576.895507812 509.368164062 569.900390625 498.442382812 c 256,62,63
 562.905273438 487.517578125 562.905273438 487.517578125 554.821289062 477.296875 c 256,64,65
 546.737304688 467.075195312 546.737304688 467.075195312 537.569335938 457.561523438 c 0,66,67
 524.018554688 443.499023438 524.018554688 443.499023438 509.0703125 430.467773438 c 256,68,69
 494.123046875 417.436523438 494.123046875 417.436523438 477.787109375 405.440429688 c 0,70,71
 471.454101562 400.7890625 471.454101562 400.7890625 465.260742188 396.080078125 c 256,72,73
 459.06640625 391.370117188 459.06640625 391.370117188 453.015625 386.603515625 c 256,74,75
 446.963867188 381.837890625 446.963867188 381.837890625 441.05078125 377.012695312 c 256,76,77
 435.137695312 372.1875 435.137695312 372.1875 429.366210938 367.3046875 c 256,78,79
 423.594726562 362.422851562 423.594726562 362.422851562 417.962890625 357.482421875 c 0,80,81
 390.159179688 333.09375 390.159179688 333.09375 368.731445312 305.822265625 c 0,82,83
 348.295898438 279.813476562 348.295898438 279.813476562 342.723632812 247.310546875 c 2,84,-1
 341.299804688 239 l 1,85,-1
 332.868164062 239 l 1,86,-1
 246.868164062 239 l 1,87,-1
 234.88671875 239 l 1,88,-1
 237.029296875 250.7890625 l 1,0,-1
241.868164062 -24 m 0,89,90
 206.96484375 -24 206.96484375 -24 185.09375 -3.85546875 c 0,91,92
 162.868164062 16.615234375 162.868164062 16.615234375 162.868164062 57 c 0,93,94
 162.868164062 72.07421875 162.868164062 72.07421875 165.856445312 85.1826171875 c 256,95,96
 168.844726562 98.291015625 168.844726562 98.291015625 175.016601562 109.563476562 c 256,97,98
 181.188476562 120.836914062 181.188476562 120.836914062 190.4453125 129.716796875 c 0,99,100
 217.84765625 156 217.84765625 156 254.868164062 156 c 0,101,102
 261.669921875 156 261.669921875 156 268.096679688 155.189453125 c 256,103,104
 274.524414062 154.379882812 274.524414062 154.379882812 280.590820312 152.7421875 c 256,105,106
 286.658203125 151.10546875 286.658203125 151.10546875 292.274414062 148.66015625 c 256,107,108
 297.891601562 146.21484375 297.891601562 146.21484375 303.091796875 142.916992188 c 256,109,110
 308.291992188 139.618164062 308.291992188 139.618164062 312.966796875 135.514648438 c 0,111,112
 325.029296875 124.922851562 325.029296875 124.922851562 330.948242188 109.329101562 c 256,113,114
 336.868164062 93.7353515625 336.868164062 93.7353515625 336.868164062 74 c 0,115,116
 336.0390625 28.41796875 336.0390625 28.41796875 307.002929688 2.0185546875 c 0,117,118
 277.663085938 -24 277.663085938 -24 241.868164062 -24 c 0,89,90
EndSplineSet
EndChar

StartChar: at
Encoding: 64 64 35
Width: 550
VWidth: 1177
Flags: W
LayerCount: 2
Fore
SplineSet
545.46484375 64.80859375 m 2,0,1
 516.419921875 52.3603515625 516.419921875 52.3603515625 484.801757812 46.6591796875 c 0,2,3
 453.420898438 41 453.420898438 41 423.526367188 41 c 0,4,5
 386.953125 41 386.953125 41 354.456054688 51.4833984375 c 0,6,7
 321.543945312 62.099609375 321.543945312 62.099609375 295.518554688 84.4072265625 c 0,8,9
 269.215820312 106.953125 269.215820312 106.953125 254.299804688 142.64453125 c 0,10,11
 239.525390625 177.994140625 239.525390625 177.994140625 239.526367188 229 c 0,12,13
 239.526367188 256.752929688 239.526367188 256.752929688 243.645507812 283.53125 c 256,14,15
 247.765625 310.309570312 247.765625 310.309570312 256.001953125 336.047851562 c 0,16,17
 272.595703125 387.904296875 272.595703125 387.904296875 306.34375 428.401367188 c 0,18,19
 340.33203125 469.188476562 340.33203125 469.188476562 392.956054688 492.634765625 c 256,20,21
 445.399414062 516 445.399414062 516 518.526367188 516 c 0,22,23
 526.8203125 516 526.8203125 516 535.614257812 515.482421875 c 0,24,25
 537.892578125 515.348632812 537.892578125 515.348632812 540.451171875 515.1640625 c 256,26,27
 543.009765625 514.98046875 543.009765625 514.98046875 545.684570312 514.763671875 c 0,28,29
 548.157226562 526.890625 548.157226562 526.890625 549.341796875 538.494140625 c 256,30,31
 550.526367188 550.09765625 550.526367188 550.09765625 550.526367188 562 c 0,32,33
 550.526367188 603.467773438 550.526367188 603.467773438 529.744140625 629.219726562 c 0,34,35
 509.747070312 654 509.747070312 654 457.526367188 654 c 0,36,37
 397.147460938 654 397.147460938 654 345.927734375 611.317382812 c 0,38,39
 319.694335938 589.456054688 319.694335938 589.456054688 297.03515625 561.193359375 c 256,40,41
 274.376953125 532.931640625 274.376953125 532.931640625 255.291992188 498.185546875 c 0,42,43
 242.502929688 474.904296875 242.502929688 474.904296875 231.569335938 450.032226562 c 256,44,45
 220.634765625 425.159179688 220.634765625 425.159179688 211.541015625 398.64453125 c 256,46,47
 202.447265625 372.129882812 202.447265625 372.129882812 195.2109375 344.0078125 c 0,48,49
 184.359375 301.8359375 184.359375 301.8359375 178.943359375 261.087890625 c 256,50,51
 173.526367188 220.340820312 173.526367188 220.340820312 173.526367188 181 c 0,52,53
 173.526367188 170.602539062 173.526367188 170.602539062 173.938476562 160.4453125 c 256,54,55
 174.349609375 150.288085938 174.349609375 150.288085938 175.171875 140.387695312 c 256,56,57
 175.993164062 130.486328125 175.993164062 130.486328125 177.225585938 120.825195312 c 256,58,59
 178.458007812 111.163085938 178.458007812 111.163085938 180.09765625 101.756835938 c 256,60,61
 181.737304688 92.349609375 181.737304688 92.349609375 183.786132812 83.1806640625 c 0,62,63
 188.861328125 60.458984375 188.861328125 60.458984375 196.663085938 40.8955078125 c 256,64,65
 204.46484375 21.33203125 204.46484375 21.33203125 214.958007812 4.876953125 c 0,66,67
 235.727539062 -27.6943359375 235.727539062 -27.6943359375 267.78125 -47.4921875 c 0,68,69
 299.366210938 -67 299.366210938 -67 344.526367188 -67 c 0,70,71
 354.168945312 -67 354.168945312 -67 364.331054688 -66.2744140625 c 256,72,73
 374.495117188 -65.5478515625 374.495117188 -65.5478515625 385.174804688 -64.091796875 c 256,74,75
 395.803710938 -62.642578125 395.803710938 -62.642578125 407.221679688 -60.212890625 c 256,76,77
 418.640625 -57.783203125 418.640625 -57.783203125 430.830078125 -54.3701171875 c 2,78,-1
 445.14453125 -50.3623046875 l 1,79,-1
 443.461914062 -65.1318359375 l 1,80,-1
 434.461914062 -144.131835938 l 1,81,-1
 433.6875 -150.922851562 l 1,82,-1
 427.080078125 -152.66796875 l 2,83,84
 372.825195312 -167 372.825195312 -167 327.526367188 -167 c 0,85,86
 313.916992188 -167 313.916992188 -167 300.997070312 -165.924804688 c 256,87,88
 288.077148438 -164.849609375 288.077148438 -164.849609375 275.788085938 -162.682617188 c 256,89,90
 263.499023438 -160.516601562 263.499023438 -160.516601562 251.920898438 -157.264648438 c 256,91,92
 240.342773438 -154.01171875 240.342773438 -154.01171875 229.418945312 -149.64453125 c 256,93,94
 218.494140625 -145.27734375 218.494140625 -145.27734375 208.301757812 -139.813476562 c 0,95,96
 157.618164062 -112.642578125 157.618164062 -112.642578125 125.234375 -64.5888671875 c 0,97,98
 93.2294921875 -17.0986328125 93.2294921875 -17.0986328125 77.806640625 46.6484375 c 0,99,100
 62.52734375 109.807617188 62.52734375 109.807617188 62.5263671875 181 c 0,101,102
 62.5263671875 245.924804688 62.5263671875 245.924804688 75.1953125 313.833984375 c 256,103,104
 87.857421875 381.697265625 87.857421875 381.697265625 111.666992188 445.01953125 c 256,105,106
 135.495117188 508.392578125 135.495117188 508.392578125 169.978515625 565.189453125 c 0,107,108
 204.697265625 622.373046875 204.697265625 622.373046875 249.708984375 664.31640625 c 0,109,110
 264.736328125 678.318359375 264.736328125 678.318359375 280.694335938 690.458007812 c 256,111,112
 296.65234375 702.596679688 296.65234375 702.596679688 313.553710938 712.875976562 c 256,113,114
 330.45703125 723.15625 330.45703125 723.15625 348.263671875 731.545898438 c 0,115,116
 402.2890625 757 402.2890625 757 464.526367188 757 c 0,117,118
 496.89453125 757 496.89453125 757 523.959960938 751.099609375 c 256,119,120
 551.025390625 745.200195312 551.025390625 745.200195312 573.10546875 733.06640625 c 256,121,122
 595.18359375 720.932617188 595.18359375 720.932617188 611.489257812 702.657226562 c 0,123,124
 635.512695312 675.728515625 635.512695312 675.728515625 647.51953125 641.16015625 c 256,125,126
 659.526367188 606.592773438 659.526367188 606.592773438 659.526367188 565 c 0,127,128
 659.525390625 543.885742188 659.525390625 543.885742188 656.9609375 522.336914062 c 256,129,130
 654.395507812 500.788085938 654.395507812 500.788085938 649.2578125 478.697265625 c 2,131,-1
 551.249023438 71.6591796875 l 1,132,-1
 550.07421875 66.7841796875 l 1,133,-1
 545.46484375 64.80859375 l 2,0,1
521.576171875 415.141601562 m 1,134,135
 513.374023438 417.2578125 513.374023438 417.2578125 506.916015625 418.12890625 c 256,136,137
 500.458984375 419 500.458984375 419 493.526367188 419 c 0,138,139
 458.171875 419 458.171875 419 431.471679688 403.80859375 c 0,140,141
 424.672851562 399.940429688 424.672851562 399.940429688 418.454101562 395.4765625 c 256,142,143
 412.235351562 391.012695312 412.235351562 391.012695312 406.57421875 385.935546875 c 256,144,145
 400.913085938 380.857421875 400.913085938 380.857421875 395.807617188 375.165039062 c 256,146,147
 390.704101562 369.47265625 390.704101562 369.47265625 386.133789062 363.145507812 c 0,148,149
 367.760742188 337.706054688 367.760742188 337.706054688 359.227539062 303.57421875 c 0,150,151
 356.331054688 291.98828125 356.331054688 291.98828125 354.3984375 279.96875 c 256,152,153
 352.466796875 267.94921875 352.466796875 267.94921875 351.497070312 255.44921875 c 256,154,155
 350.526367188 242.948242188 350.526367188 242.948242188 350.526367188 230 c 0,156,157
 350.526367188 206.8984375 350.526367188 206.8984375 355.443359375 189.522460938 c 256,158,159
 360.359375 172.146484375 360.359375 172.146484375 369.849609375 160.229492188 c 0,160,161
 379.123046875 148.583984375 379.123046875 148.583984375 392.53125 142.791992188 c 256,162,163
 405.940429688 137 405.940429688 137 424.526367188 137 c 0,164,165
 432.7421875 137 432.7421875 137 441.466796875 138.377929688 c 0,166,167
 447.84765625 139.384765625 447.84765625 139.384765625 455.21875 141.177734375 c 1,168,-1
 521.576171875 415.141601562 l 1,134,135
EndSplineSet
Substitution2: "'case' Case-Sensitive Forms lookup 17 subtable" At
EndChar

StartChar: A
Encoding: 65 65 36
Width: 550
VWidth: 1177
Flags: W
LayerCount: 2
Fore
SplineSet
557.053710938 0 m 1,0,-1
 557.109375 10.052734375 l 1,1,-1
 558.110351562 191 l 1,2,-1
 279.587890625 191 l 1,3,-1
 187.352539062 5.7373046875 l 1,4,-1
 184.522460938 0 l 1,5,-1
 178.180664062 0 l 1,6,-1
 81.1806640625 0 l 1,7,-1
 65 0 l 1,8,-1
 72.236328125 14.0830078125 l 2,9,10
 111.276367188 90.0654296875 111.276367188 90.0654296875 158.305664062 178.188476562 c 0,11,12
 206.484375 266.309570312 206.484375 266.309570312 260.396484375 359.290039062 c 128,-1,13
 314.359375 452.354492188 314.359375 452.354492188 372.547851562 545.8984375 c 128,-1,14
 430.774414062 639.501953125 430.774414062 639.501953125 489.008789062 724.34375 c 2,15,-1
 492.120117188 729 l 1,16,-1
 497.940429688 729 l 1,17,-1
 617.180664062 729 l 1,18,-1
 625.796875 729 l 1,19,-1
 627.0703125 720.477539062 l 2,20,21
 640.119140625 635.51171875 640.119140625 635.51171875 648.641601562 541.840820312 c 128,-1,22
 657.15234375 448.310546875 657.15234375 448.310546875 663.161132812 355.264648438 c 128,-1,23
 669.16796875 262.233398438 669.16796875 262.233398438 672.672851562 174.0546875 c 128,-1,24
 676.174804688 85.9443359375 676.174804688 85.9443359375 678.176757812 9.9794921875 c 2,25,-1
 678.440429688 0 l 1,26,-1
 668.180664062 0 l 1,27,-1
 567.180664062 0 l 1,28,-1
 557.053710938 0 l 1,0,-1
530.684570312 593.159179688 m 128,-1,30
 529.416992188 603.818359375 529.416992188 603.818359375 528.15234375 613.986328125 c 1,31,32
 507.311523438 580.934570312 507.311523438 580.934570312 485.401367188 544.7421875 c 128,-1,33
 463.4921875 508.548828125 463.4921875 508.548828125 439.5625 467.655273438 c 0,34,35
 426.341796875 445.064453125 426.341796875 445.064453125 413.079101562 422.046875 c 128,-1,36
 399.81640625 399.029296875 399.81640625 399.029296875 386.569335938 375.686523438 c 128,-1,37
 373.3203125 352.342773438 373.3203125 352.342773438 360.086914062 328.6796875 c 128,-1,38
 346.854492188 305.016601562 346.854492188 305.016601562 333.616210938 281 c 1,39,-1
 554.77734375 281 l 1,40,41
 552.426757812 381.235351562 552.426757812 381.235351562 543.41796875 474.0859375 c 0,42,43
 542.147460938 487.172851562 542.147460938 487.172851562 540.870117188 499.836914062 c 128,-1,44
 539.59375 512.501953125 539.59375 512.501953125 538.319335938 524.647460938 c 128,-1,45
 537.046875 536.79296875 537.046875 536.79296875 535.771484375 548.471679688 c 128,-1,46
 534.497070312 560.149414062 534.497070312 560.149414062 533.223632812 571.32421875 c 128,-1,29
 531.951171875 582.5 531.951171875 582.5 530.684570312 593.159179688 c 128,-1,30
EndSplineSet
EndChar

StartChar: B
Encoding: 66 66 37
Width: 550
VWidth: 1177
Flags: W
LayerCount: 2
Fore
SplineSet
366.2890625 10.6904296875 m 128,-1,1
 296.318359375 -6 296.318359375 -6 206.040039062 -6 c 0,2,3
 195.860351562 -6 195.860351562 -6 184.638671875 -5.7470703125 c 128,-1,4
 173.418945312 -5.4951171875 173.418945312 -5.4951171875 161.14453125 -4.990234375 c 0,5,6
 136.688476562 -3.9814453125 136.688476562 -3.9814453125 112.986328125 -1.9638671875 c 0,7,8
 101.059570312 -0.94921875 101.059570312 -0.94921875 89.50390625 0.4482421875 c 128,-1,9
 77.9482421875 1.8447265625 77.9482421875 1.8447265625 66.763671875 3.6240234375 c 0,10,11
 44.0458984375 7.140625 44.0458984375 7.140625 27.3515625 12.2177734375 c 2,12,-1
 18.4462890625 14.92578125 l 1,13,-1
 20.6064453125 23.7578125 l 1,14,-1
 191.514648438 710.748046875 l 1,15,-1
 192.982421875 716.420898438 l 1,16,-1
 199.115234375 717.905273438 l 2,17,18
 219.77734375 722.90625 219.77734375 722.90625 245.212890625 726.390625 c 0,19,20
 270.432617188 729.94140625 270.432617188 729.94140625 297.241210938 731.967773438 c 0,21,22
 302.56640625 732.37109375 302.56640625 732.37109375 307.807617188 732.733398438 c 128,-1,23
 313.047851562 733.095703125 313.047851562 733.095703125 318.208007812 733.41796875 c 128,-1,24
 323.3671875 733.740234375 323.3671875 733.740234375 328.44140625 734.022460938 c 128,-1,25
 333.514648438 734.3046875 333.514648438 734.3046875 338.5078125 734.546875 c 128,-1,26
 343.5 734.7890625 343.5 734.7890625 348.408203125 734.990234375 c 0,27,28
 372.971679688 736 372.971679688 736 393.303710938 736 c 0,29,30
 496.658203125 736 496.658203125 736 558.850585938 701.091796875 c 0,31,32
 623.334960938 664.68359375 623.334960938 664.68359375 623.334960938 582.147460938 c 0,33,34
 623.334960938 512.092773438 623.334960938 512.092773438 588.241210938 459.048828125 c 0,35,36
 583.171875 451.38671875 583.171875 451.38671875 577.13671875 444.171875 c 128,-1,37
 571.102539062 436.95703125 571.102539062 436.95703125 564.166992188 430.254882812 c 128,-1,38
 557.23046875 423.552734375 557.23046875 423.552734375 549.403320312 417.310546875 c 128,-1,39
 541.575195312 411.067382812 541.575195312 411.067382812 532.840820312 405.287109375 c 128,-1,40
 524.106445312 399.505859375 524.106445312 399.505859375 514.55859375 394.200195312 c 128,-1,41
 505.010742188 388.893554688 505.010742188 388.893554688 494.046875 384.001953125 c 1,42,43
 509.901367188 376.614257812 509.901367188 376.614257812 522.950195312 366.451171875 c 128,-1,44
 535.999023438 356.287109375 535.999023438 356.287109375 547.956054688 342.578125 c 0,45,46
 581.334960938 304.309570312 581.334960938 304.309570312 581.334960938 253.018554688 c 0,47,48
 581.334960938 129.313476562 581.334960938 129.313476562 485.825195312 61.15234375 c 0,49,0
 436.259765625 27.3798828125 436.259765625 27.3798828125 366.2890625 10.6904296875 c 128,-1,1
312.896484375 330 m 2,50,-1
 216.478515625 330 l 1,51,-1
 154.5078125 98.134765625 l 1,52,53
 160.52734375 97.56640625 160.52734375 97.56640625 169.377929688 96.8837890625 c 0,54,55
 177.447265625 96.26171875 177.447265625 96.26171875 187.251953125 95.8427734375 c 128,-1,56
 197.056640625 95.4248046875 197.056640625 95.4248046875 208.666992188 95.212890625 c 128,-1,57
 220.278320312 95 220.278320312 95 233.547851562 95 c 0,58,59
 253.6796875 95 253.6796875 95 274.083984375 91.751953125 c 128,-1,60
 294.48828125 88.50390625 294.48828125 88.50390625 315.178710938 82 c 0,61,62
 355.694335938 89.4921875 355.694335938 89.4921875 388.493164062 108.404296875 c 0,63,64
 404.608398438 117.696289062 404.608398438 117.696289062 417.685546875 130.229492188 c 128,-1,65
 430.763671875 142.762695312 430.763671875 142.762695312 440.958007812 158.701171875 c 0,66,67
 461.014648438 190.0625 461.014648438 190.0625 461.015625 241.305664062 c 0,68,69
 461.015625 291.100585938 461.015625 291.100585938 422.034179688 309.645507812 c 0,70,71
 379.247070312 330 379.247070312 330 312.896484375 330 c 2,50,-1
296.235351562 631.731445312 m 1,72,-1
 241.72265625 430 l 1,73,-1
 309.72265625 430 l 2,74,75
 345.791992188 430 345.791992188 430 382.405273438 436.040039062 c 0,76,77
 400.260742188 438.986328125 400.260742188 438.986328125 416.104492188 444.381835938 c 128,-1,78
 431.947265625 449.776367188 431.947265625 449.776367188 445.885742188 457.625976562 c 0,79,80
 473.377929688 473.107421875 473.377929688 473.107421875 490.059570312 497.86328125 c 0,81,82
 506.334960938 522.274414062 506.334960938 522.274414062 506.334960938 560.59765625 c 0,83,84
 506.334960938 564.051757812 506.334960938 564.051757812 506.076171875 567.278320312 c 128,-1,85
 505.81640625 570.504882812 505.81640625 570.504882812 505.305664062 573.4609375 c 128,-1,86
 504.793945312 576.416015625 504.793945312 576.416015625 504.045898438 579.142578125 c 128,-1,87
 503.296875 581.869140625 503.296875 581.869140625 502.248046875 584.372070312 c 128,-1,88
 501.200195312 586.875 501.200195312 586.875 499.927734375 589.143554688 c 128,-1,89
 498.654296875 591.411132812 498.654296875 591.411132812 497.133789062 593.499023438 c 0,90,91
 492.239257812 600.219726562 492.239257812 600.219726562 485.724609375 605.775390625 c 128,-1,92
 479.20703125 611.33203125 479.20703125 611.33203125 470.913085938 615.81640625 c 0,93,94
 453.931640625 624.99609375 453.931640625 624.99609375 430.291992188 629.43359375 c 0,95,96
 405.966796875 634 405.966796875 634 379.549804688 634 c 0,97,98
 368.650390625 634 368.650390625 634 358.688476562 633.947265625 c 128,-1,99
 348.724609375 633.89453125 348.724609375 633.89453125 339.717773438 633.7890625 c 128,-1,100
 330.711914062 633.68359375 330.711914062 633.68359375 322.6484375 633.525390625 c 0,101,102
 306.41796875 633.208007812 306.41796875 633.208007812 296.235351562 631.731445312 c 1,72,-1
EndSplineSet
EndChar

StartChar: C
Encoding: 67 67 38
Width: 550
VWidth: 1177
Flags: W
LayerCount: 2
Fore
SplineSet
394.436523438 -9.8837890625 m 128,-1,1
 359.301757812 -15 359.301757812 -15 319.403320312 -15 c 0,2,3
 204.758789062 -15 204.758789062 -15 141.462890625 54.5556640625 c 0,4,5
 78.9609375 123.577148438 78.9609375 123.577148438 78.9609375 241.264648438 c 0,6,7
 78.9609375 333.291015625 78.9609375 333.291015625 106.370117188 423.797851562 c 0,8,9
 133.844726562 514.5234375 133.844726562 514.5234375 185.819335938 585.524414062 c 0,10,11
 240.224609375 656.830078125 240.224609375 656.830078125 319.7421875 701.23046875 c 0,12,13
 399.91796875 746 399.91796875 746 499.009765625 746 c 0,14,15
 576.072265625 746 576.072265625 746 621.002929688 726.146484375 c 0,16,17
 665.331054688 710.571289062 665.331054688 710.571289062 686.4375 696.3046875 c 2,18,-1
 692.88671875 691.9453125 l 1,19,-1
 688.545898438 686.16796875 l 1,20,-1
 642.545898438 619.254882812 l 1,21,-1
 636.309570312 608.81640625 l 1,22,-1
 627.271484375 616.950195312 l 2,23,24
 618.176757812 625.135742188 618.176757812 625.135742188 604.443359375 632.713867188 c 128,-1,25
 590.708984375 640.29296875 590.708984375 640.29296875 572.482421875 647 c 0,26,27
 534.103515625 640 534.103515625 640 491.614257812 640 c 0,28,29
 457.13671875 640 457.13671875 640 426.602539062 631.852539062 c 128,-1,30
 396.068359375 623.705078125 396.068359375 623.705078125 369.08984375 607.356445312 c 0,31,32
 341.760742188 590.795898438 341.760742188 590.795898438 318.643554688 568.984375 c 128,-1,33
 295.52734375 547.173828125 295.52734375 547.173828125 276.541015625 519.994140625 c 128,-1,34
 257.432617188 492.63671875 257.432617188 492.63671875 242.6953125 461.943359375 c 128,-1,35
 227.958007812 431.249023438 227.958007812 431.249023438 217.592773438 397.169921875 c 0,36,37
 196.9609375 328.967773438 196.9609375 328.967773438 196.9609375 256.954101562 c 0,38,39
 196.9609375 178.237304688 196.9609375 178.237304688 234.259765625 134.048828125 c 0,40,41
 270.706054688 91 270.706054688 91 341.58984375 91 c 0,42,43
 400.095703125 91 400.095703125 91 444.427734375 104.987304688 c 0,44,45
 489.21484375 119.1171875 489.21484375 119.1171875 510.352539062 131.502929688 c 2,46,-1
 524.400390625 139.734375 l 1,47,-1
 526.401367188 124.2109375 l 1,48,-1
 536.966796875 42.2109375 l 1,49,-1
 537.651367188 36.8935546875 l 1,50,-1
 533.354492188 33.4072265625 l 2,51,52
 524.78515625 26.4560546875 524.78515625 26.4560546875 504.357421875 17.8623046875 c 0,53,54
 484.612304688 9.5556640625 484.612304688 9.5556640625 456.905273438 2.3564453125 c 128,-1,0
 429.375976562 -4.7958984375 429.375976562 -4.7958984375 394.436523438 -9.8837890625 c 128,-1,1
EndSplineSet
EndChar

StartChar: D
Encoding: 68 68 39
Width: 550
VWidth: 1177
Flags: W
LayerCount: 2
Fore
SplineSet
556.130859375 667.470703125 m 0,0,1
 627.0859375 598.911132812 627.0859375 598.911132812 627.0859375 474.157226562 c 0,2,3
 627.0859375 428.243164062 627.0859375 428.243164062 620.8671875 383.770507812 c 128,-1,4
 614.6484375 339.296875 614.6484375 339.296875 602.211914062 296.30859375 c 0,5,6
 577.1875 209.8125 577.1875 209.8125 524.0078125 142.6171875 c 0,7,8
 496.778320312 108.903320312 496.778320312 108.903320312 460.984375 81.9130859375 c 128,-1,9
 425.189453125 54.923828125 425.189453125 54.923828125 381.9453125 34.7470703125 c 0,10,11
 360.182617188 24.5927734375 360.182617188 24.5927734375 336.344726562 16.98828125 c 128,-1,12
 312.506835938 9.3828125 312.506835938 9.3828125 286.676757812 4.341796875 c 128,-1,13
 260.846679688 -0.8359375 260.846679688 -0.8359375 233.055664062 -3.41796875 c 128,-1,14
 205.265625 -6 205.265625 -6 175.443359375 -6 c 0,15,16
 170.3671875 -6 170.3671875 -6 165.280273438 -5.9443359375 c 128,-1,17
 160.194335938 -5.8896484375 160.194335938 -5.8896484375 155.100585938 -5.7783203125 c 128,-1,18
 150.006835938 -5.66796875 150.006835938 -5.66796875 144.905273438 -5.501953125 c 128,-1,19
 139.803710938 -5.3359375 139.803710938 -5.3359375 134.693359375 -5.1142578125 c 128,-1,20
 129.666015625 -4.8935546875 129.666015625 -4.8935546875 124.821289062 -4.6162109375 c 128,-1,21
 119.975585938 -4.33984375 119.975585938 -4.33984375 115.123046875 -4.0078125 c 128,-1,22
 110.26953125 -3.67578125 110.26953125 -3.67578125 105.409179688 -3.2890625 c 128,-1,23
 100.548828125 -2.9013671875 100.548828125 -2.9013671875 95.6806640625 -2.458984375 c 0,24,25
 56.244140625 1.03125 56.244140625 1.03125 20.3388671875 11.01953125 c 2,26,-1
 11.134765625 13.580078125 l 1,27,-1
 13.3603515625 22.64453125 l 1,28,-1
 185.23828125 711.001953125 l 1,29,-1
 186.759765625 716.869140625 l 1,30,-1
 193.13671875 718.225585938 l 2,31,32
 276.690429688 736 276.690429688 736 352.8828125 736 c 0,33,34
 483.977539062 736 483.977539062 736 556.130859375 667.470703125 c 0,0,1
287.560546875 630.088867188 m 1,35,-1
 149.2265625 82 l 1,36,37
 156.268554688 86.1689453125 156.268554688 86.1689453125 165.059570312 90.1494140625 c 128,-1,38
 173.751953125 94.0849609375 173.751953125 94.0849609375 181.63671875 96.0419921875 c 128,-1,39
 189.522460938 98 189.522460938 98 196.56640625 98 c 0,40,41
 263.782226562 98 263.782226562 98 320.698242188 123.973632812 c 128,-1,42
 377.758789062 150.01171875 377.758789062 150.01171875 419.609375 197.990234375 c 0,43,44
 440.630859375 222.08984375 440.630859375 222.08984375 457.083984375 250.950195312 c 128,-1,45
 473.538085938 279.810546875 473.538085938 279.810546875 485.4140625 313.505859375 c 128,-1,46
 497.291992188 347.206054688 497.291992188 347.206054688 503.245117188 384.415039062 c 128,-1,47
 509.0859375 421.625 509.0859375 421.625 509.0859375 462.377929688 c 0,48,49
 509.0859375 545.606445312 509.0859375 545.606445312 468.390625 589.6640625 c 0,50,51
 428.251953125 633 428.251953125 633 339.15234375 633 c 0,52,53
 310.793945312 633 310.793945312 633 287.560546875 630.088867188 c 1,35,-1
EndSplineSet
EndChar

StartChar: E
Encoding: 69 69 40
Width: 550
VWidth: 1177
Flags: W
LayerCount: 2
Fore
SplineSet
39 0 m 1,0,-1
 41.98046875 12.013671875 l 1,1,-1
 221.173828125 721.346679688 l 1,2,-1
 223.12109375 729 l 1,3,-1
 231.419921875 729 l 1,4,-1
 655.701171875 729 l 1,5,-1
 668.43359375 729 l 1,6,-1
 665.416992188 719.055664062 l 1,7,-1
 645.416992188 653.133789062 l 1,8,-1
 643.555664062 647 l 1,9,-1
 635.701171875 647 l 1,10,-1
 320.891601562 647 l 1,11,-1
 269.049804688 433 l 1,12,-1
 543.4453125 433 l 1,13,-1
 556.397460938 433 l 1,14,-1
 553.422851562 420.657226562 l 1,15,-1
 532.610351562 337.657226562 l 1,16,-1
 530.666015625 330 l 1,17,-1
 522.362304688 330 l 1,18,-1
 242.891601562 330 l 1,19,-1
 182.602539062 82 l 1,20,-1
 524.470703125 82 l 1,21,-1
 537.892578125 82 l 1,22,-1
 534.711914062 72.251953125 l 1,23,-1
 513.629882812 7.630859375 l 1,24,-1
 511.666992188 0 l 1,25,-1
 503.387695312 0 l 1,26,-1
 51.701171875 0 l 1,27,-1
 39 0 l 1,0,-1
EndSplineSet
EndChar

StartChar: F
Encoding: 70 70 41
Width: 550
VWidth: 1177
Flags: W
LayerCount: 2
Fore
SplineSet
43 0 m 1,0,-1
 45.98046875 12.013671875 l 1,1,-1
 225.123046875 721.346679688 l 1,2,-1
 227.068359375 729 l 1,3,-1
 235.360351562 729 l 1,4,-1
 665.701171875 729 l 1,5,-1
 678.43359375 729 l 1,6,-1
 675.416992188 719.055664062 l 1,7,-1
 655.416992188 653.133789062 l 1,8,-1
 653.555664062 647 l 1,9,-1
 645.701171875 647 l 1,10,-1
 324.7578125 647 l 1,11,-1
 271.908203125 429 l 1,12,-1
 552.395507812 429 l 1,13,-1
 565.470703125 429 l 1,14,-1
 562.41015625 416.602539062 l 1,15,-1
 541.555664062 335.602539062 l 1,16,-1
 539.579101562 328 l 1,17,-1
 531.330078125 328 l 1,18,-1
 244.74609375 328 l 1,19,-1
 162.432617188 7.6962890625 l 1,20,-1
 160.611328125 0 l 1,21,-1
 152.701171875 0 l 1,22,-1
 55.701171875 0 l 1,23,-1
 43 0 l 1,0,-1
EndSplineSet
EndChar

StartChar: G
Encoding: 71 71 42
Width: 550
VWidth: 1177
Flags: W
LayerCount: 2
Fore
SplineSet
379.060546875 -11.4365234375 m 128,-1,1
 345.674804688 -15 345.674804688 -15 311.227539062 -15 c 0,2,3
 256.838867188 -14.611328125 256.838867188 -14.611328125 211.866210938 3.302734375 c 0,4,5
 167.879882812 21.2392578125 167.879882812 21.2392578125 138.352539062 55.11328125 c 0,6,7
 109.090820312 88.681640625 109.090820312 88.681640625 92.98046875 136.232421875 c 0,8,9
 76.9775390625 183.465820312 76.9775390625 183.465820312 76.9775390625 241.485351562 c 0,10,11
 76.9775390625 333.415039062 76.9775390625 333.415039062 104.38671875 423.828125 c 0,12,13
 131.868164062 514.481445312 131.868164062 514.481445312 184.36328125 585.421875 c 0,14,15
 239.365234375 656.616210938 239.365234375 656.616210938 318.416015625 700.956054688 c 0,16,17
 358.274414062 723.3125 358.274414062 723.3125 403.369140625 734.502929688 c 0,18,19
 448.463867188 746 448.463867188 746 498.471679688 746 c 0,20,21
 511.825195312 746 511.825195312 746 523.969726562 745.376953125 c 128,-1,22
 536.115234375 744.75390625 536.115234375 744.75390625 547.223632812 743.484375 c 128,-1,23
 558.333007812 742.215820312 558.333007812 742.215820312 567.973632812 740.298828125 c 0,24,25
 595.9609375 734.59765625 595.9609375 734.59765625 616.888671875 725.703125 c 0,26,27
 637.670898438 718.635742188 637.670898438 718.635742188 652.384765625 711.067382812 c 0,28,29
 667.2890625 703.400390625 667.2890625 703.400390625 677.048828125 695.590820312 c 2,30,-1
 682.55859375 691.182617188 l 1,31,-1
 678.5625 685.829101562 l 1,32,-1
 632.5625 618.526367188 l 1,33,-1
 626.326171875 608.087890625 l 1,34,-1
 617.288085938 616.22265625 l 2,35,36
 611.109375 621.783203125 611.109375 621.783203125 603.513671875 627.0390625 c 128,-1,37
 595.91796875 632.294921875 595.91796875 632.294921875 586.73046875 637.321289062 c 128,-1,38
 577.541992188 642.34765625 577.541992188 642.34765625 566.955078125 647 c 0,39,40
 550.84375 644.013671875 550.84375 644.013671875 531.831054688 642.506835938 c 128,-1,41
 512.819335938 641 512.819335938 641 491.06640625 641 c 0,42,43
 422.295898438 641 422.295898438 641 367.81640625 608.328125 c 0,44,45
 312.564453125 575.19140625 312.564453125 575.19140625 274.635742188 521.420898438 c 0,46,47
 236.372070312 467.176757812 236.372070312 467.176757812 215.643554688 398.15625 c 128,-1,48
 194.977539062 328.9609375 194.977539062 328.9609375 194.977539062 256.916015625 c 0,49,50
 194.977539062 217.217773438 194.977539062 217.217773438 204.314453125 186.291992188 c 128,-1,51
 213.767578125 155.366210938 213.767578125 155.366210938 232.385742188 132.946289062 c 0,52,53
 268.880859375 89 268.880859375 89 339.790039062 89 c 0,54,55
 369.397460938 89 369.397460938 89 391.622070312 93.296875 c 0,56,57
 394.186523438 93.79296875 394.186523438 93.79296875 396.732421875 94.3056640625 c 128,-1,58
 399.27734375 94.818359375 399.27734375 94.818359375 401.65234375 95.3154296875 c 128,-1,59
 404.028320312 95.8134765625 404.028320312 95.8134765625 406.329101562 96.3134765625 c 128,-1,60
 408.630859375 96.814453125 408.630859375 96.814453125 410.740234375 97.291015625 c 128,-1,61
 412.850585938 97.7685546875 412.850585938 97.7685546875 414.828125 98.234375 c 128,-1,62
 416.803710938 98.69921875 416.803710938 98.69921875 418.569335938 99.1337890625 c 128,-1,63
 420.333984375 99.568359375 420.333984375 99.568359375 421.907226562 99.9765625 c 2,64,-1
 490.298828125 370.326171875 l 1,65,-1
 492.240234375 378 l 1,66,-1
 500.587890625 378 l 1,67,-1
 600.977539062 378 l 1,68,-1
 613.658203125 378 l 1,69,-1
 610.702148438 365.66796875 l 1,70,-1
 526.7421875 23.66796875 l 1,71,-1
 525.524414062 18.8671875 l 1,72,-1
 520.751953125 16.8623046875 l 2,73,74
 510.420898438 12.521484375 510.420898438 12.521484375 488.932617188 7.3134765625 c 0,75,76
 486.3046875 6.67578125 486.3046875 6.67578125 483.5703125 6.0400390625 c 128,-1,77
 480.834960938 5.4033203125 480.834960938 5.4033203125 477.998046875 4.7685546875 c 128,-1,78
 475.161132812 4.1337890625 475.161132812 4.1337890625 472.21875 3.5 c 128,-1,79
 469.27734375 2.8662109375 469.27734375 2.8662109375 466.229492188 2.232421875 c 128,-1,80
 463.181640625 1.599609375 463.181640625 1.599609375 460.03125 0.9677734375 c 128,-1,81
 456.87890625 0.3359375 456.87890625 0.3359375 453.62109375 -0.2958984375 c 128,-1,82
 450.362304688 -0.927734375 450.362304688 -0.927734375 447.001953125 -1.55859375 c 128,-1,83
 443.640625 -2.189453125 443.640625 -2.189453125 440.170898438 -2.8203125 c 0,84,0
 412.262695312 -7.8935546875 412.262695312 -7.8935546875 379.060546875 -11.4365234375 c 128,-1,1
EndSplineSet
EndChar

StartChar: H
Encoding: 72 72 43
Width: 550
VWidth: 1177
Flags: W
LayerCount: 2
Fore
SplineSet
577.80859375 729 m 1,0,-1
 585.684570312 729 l 1,1,-1
 682.684570312 729 l 1,2,-1
 695.385742188 729 l 1,3,-1
 692.405273438 716.986328125 l 1,4,-1
 513.619140625 7.6533203125 l 1,5,-1
 511.684570312 0 l 1,6,-1
 503.439453125 0 l 1,7,-1
 402.904296875 0 l 1,8,-1
 389.634765625 0 l 1,9,-1
 392.71875 12.32421875 l 1,10,-1
 474.461914062 339 l 1,11,-1
 214.264648438 339 l 1,12,-1
 130.404296875 7.6484375 l 1,13,-1
 128.553710938 0 l 1,14,-1
 120.684570312 0 l 1,15,-1
 24.6845703125 0 l 1,16,-1
 12 0 l 1,17,-1
 14.9609375 12.001953125 l 1,18,-1
 192.69921875 721.333984375 l 1,19,-1
 194.625976562 729 l 1,20,-1
 202.881835938 729 l 1,21,-1
 303.416992188 729 l 1,22,-1
 316.671875 729 l 1,23,-1
 313.604492188 716.686523438 l 1,24,-1
 240.223632812 422 l 1,25,-1
 500.427734375 422 l 1,26,-1
 575.962890625 721.34375 l 1,27,-1
 577.80859375 729 l 1,0,-1
EndSplineSet
EndChar

StartChar: I
Encoding: 73 73 44
Width: 550
VWidth: 1177
Flags: W
LayerCount: 2
Fore
SplineSet
615.732421875 647 m 1,0,-1
 480.947265625 647 l 1,1,-1
 340.986328125 82 l 1,2,-1
 477.912109375 82 l 1,3,-1
 491.396484375 82 l 1,4,-1
 488.201171875 72.251953125 l 1,5,-1
 467.018554688 7.630859375 l 1,6,-1
 465.047851562 0 l 1,7,-1
 456.73046875 0 l 1,8,-1
 62.732421875 0 l 1,9,-1
 50 0 l 1,10,-1
 53.0166015625 9.9443359375 l 1,11,-1
 73.0166015625 75.8662109375 l 1,12,-1
 74.8779296875 82 l 1,13,-1
 82.732421875 82 l 1,14,-1
 217.490234375 82 l 1,15,-1
 355.40625 647 l 1,16,-1
 220.553710938 647 l 1,17,-1
 207.068359375 647 l 1,18,-1
 210.262695312 656.748046875 l 1,19,-1
 231.444335938 721.369140625 l 1,20,-1
 233.416015625 729 l 1,21,-1
 241.734375 729 l 1,22,-1
 635.732421875 729 l 1,23,-1
 648.463867188 729 l 1,24,-1
 645.447265625 719.055664062 l 1,25,-1
 625.447265625 653.133789062 l 1,26,-1
 623.5859375 647 l 1,27,-1
 615.732421875 647 l 1,0,-1
EndSplineSet
EndChar

StartChar: J
Encoding: 74 74 45
Width: 550
VWidth: 1177
Flags: W
LayerCount: 2
Fore
SplineSet
666.249023438 729 m 1,0,-1
 663.3125 717.012695312 l 1,1,-1
 545.2421875 235.259765625 l 2,2,3
 540.6015625 218.481445312 540.6015625 218.481445312 535.569335938 202.435546875 c 128,-1,4
 530.538085938 186.388671875 530.538085938 186.388671875 525.091796875 171.00390625 c 128,-1,5
 519.645507812 155.619140625 519.645507812 155.619140625 513.760742188 140.823242188 c 0,6,7
 495.658203125 95.3173828125 495.658203125 95.3173828125 462.673828125 60.861328125 c 0,8,9
 446.036132812 43.4814453125 446.036132812 43.4814453125 424.870117188 29.708984375 c 128,-1,10
 403.704101562 15.9375 403.704101562 15.9375 378.166992188 5.8134765625 c 0,11,12
 327.081054688 -15 327.081054688 -15 249.951171875 -15 c 0,13,14
 209.67578125 -15 209.67578125 -15 176.822265625 -7.73828125 c 0,15,16
 145.504882812 -0.5498046875 145.504882812 -0.5498046875 120.739257812 9.76953125 c 0,17,18
 95.748046875 20.1826171875 95.748046875 20.1826171875 78.3671875 32.2958984375 c 0,19,20
 69.57421875 38.4248046875 69.57421875 38.4248046875 62.974609375 44.2138671875 c 128,-1,21
 56.3759765625 50.00390625 56.3759765625 50.00390625 51.7763671875 55.7529296875 c 2,22,-1
 47.1943359375 61.4814453125 l 1,23,-1
 51.2822265625 67.572265625 l 1,24,-1
 102.282226562 143.572265625 l 1,25,-1
 109.057617188 153.669921875 l 1,26,-1
 117.65625 145.071289062 l 2,27,28
 118.72265625 144.004882812 118.72265625 144.004882812 119.895507812 142.880859375 c 128,-1,29
 121.067382812 141.756835938 121.067382812 141.756835938 122.353515625 140.568359375 c 128,-1,30
 123.639648438 139.380859375 123.639648438 139.380859375 125.02734375 138.138671875 c 128,-1,31
 126.416015625 136.897460938 126.416015625 136.897460938 127.918945312 135.592773438 c 128,-1,32
 129.421875 134.287109375 129.421875 134.287109375 131.022460938 132.932617188 c 128,-1,33
 132.624023438 131.578125 132.624023438 131.578125 134.340820312 130.16015625 c 128,-1,34
 136.057617188 128.743164062 136.057617188 128.743164062 137.869140625 127.279296875 c 0,35,36
 150.071289062 117.423828125 150.071289062 117.423828125 166.659179688 108.892578125 c 0,37,38
 184.28125 100.293945312 184.28125 100.293945312 205.56640625 94.052734375 c 0,39,40
 226.211914062 88 226.211914062 88 252.0625 88 c 0,41,42
 322.455078125 88 322.455078125 88 361.028320312 126.850585938 c 0,43,44
 380.616210938 146.580078125 380.616210938 146.580078125 396.329101562 179.001953125 c 128,-1,45
 412.041015625 211.424804688 412.041015625 211.424804688 423.379882812 256.33984375 c 2,46,-1
 522.647460938 647 l 1,47,-1
 275.2890625 647 l 1,48,-1
 262.163085938 647 l 1,49,-1
 264.977539062 656.564453125 l 1,50,-1
 283.98046875 721.14453125 l 1,51,-1
 285.799804688 729 l 1,52,-1
 294.291015625 729 l 1,53,-1
 653.584960938 729 l 1,54,-1
 666.249023438 729 l 1,0,-1
EndSplineSet
EndChar

StartChar: K
Encoding: 75 75 46
Width: 550
VWidth: 1177
Flags: W
LayerCount: 2
Fore
SplineSet
699.6796875 729 m 1,0,-1
 683.978515625 712.625976562 l 2,1,2
 641.865234375 668.708984375 641.865234375 668.708984375 599.739257812 627.708007812 c 0,3,4
 556.666015625 586.767578125 556.666015625 586.767578125 510.583007812 545.345703125 c 128,-1,5
 464.586914062 504.002929688 464.586914062 504.002929688 417.020507812 460.7109375 c 0,6,7
 372.8125 420.4765625 372.8125 420.4765625 321.399414062 377.766601562 c 1,8,9
 333.974609375 364.17578125 333.974609375 364.17578125 345.849609375 350.033203125 c 128,-1,10
 357.724609375 335.891601562 357.724609375 335.891601562 371.123046875 318.610351562 c 0,11,12
 386.203125 299.16015625 386.203125 299.16015625 401.124023438 277.412109375 c 128,-1,13
 416.043945312 255.6640625 416.043945312 255.6640625 430.81640625 231.607421875 c 0,14,15
 460.2734375 183.635742188 460.2734375 183.635742188 489.1875 128.35546875 c 128,-1,16
 518.194335938 72.8955078125 518.194335938 72.8955078125 541.39453125 13.03515625 c 2,17,-1
 546.4453125 0 l 1,18,-1
 531.555664062 0 l 1,19,-1
 421.735351562 0 l 1,20,-1
 414.384765625 0 l 1,21,-1
 411.89453125 6.61328125 l 2,22,23
 388.53125 68.6630859375 388.53125 68.6630859375 363.126953125 120.834960938 c 128,-1,24
 337.72265625 173.0078125 337.72265625 173.0078125 310.346679688 215.231445312 c 0,25,26
 261.685546875 290.287109375 261.685546875 290.287109375 206.034179688 341.9296875 c 1,27,-1
 123.399414062 7.69921875 l 1,28,-1
 121.579101562 0 l 1,29,-1
 113.66796875 0 l 1,30,-1
 16.66796875 0 l 1,31,-1
 4 0 l 1,32,-1
 6.94140625 11.9892578125 l 1,33,-1
 183.555664062 721.321289062 l 1,34,-1
 185.471679688 729 l 1,35,-1
 193.728515625 729 l 1,36,-1
 295.180664062 729 l 1,37,-1
 308.46484375 729 l 1,38,-1
 305.34765625 716.653320312 l 1,39,-1
 232.682617188 428.825195312 l 1,40,41
 254.90625 447.924804688 254.90625 447.924804688 276.057617188 466.486328125 c 128,-1,42
 297.209960938 485.048828125 297.209960938 485.048828125 317.352539062 503.12890625 c 128,-1,43
 337.495117188 521.209960938 337.495117188 521.209960938 356.631835938 538.811523438 c 128,-1,44
 375.76953125 556.412109375 375.76953125 556.412109375 393.9921875 573.615234375 c 0,45,46
 414.731445312 593.1953125 414.731445312 593.1953125 434.654296875 612.493164062 c 128,-1,47
 454.576171875 631.791015625 454.576171875 631.791015625 473.6796875 650.803710938 c 128,-1,48
 492.78125 669.815429688 492.78125 669.815429688 511.065429688 688.541992188 c 128,-1,49
 529.346679688 707.268554688 529.346679688 707.268554688 546.8125 725.711914062 c 2,50,-1
 549.926757812 729 l 1,51,-1
 554.565429688 729 l 1,52,-1
 676.66796875 729 l 1,53,-1
 699.6796875 729 l 1,0,-1
EndSplineSet
EndChar

StartChar: L
Encoding: 76 76 47
Width: 550
VWidth: 1177
Flags: W
LayerCount: 2
Fore
SplineSet
511.266601562 82 m 1,0,-1
 508.426757812 72.34375 l 1,1,-1
 489.426757812 7.7431640625 l 1,2,-1
 487.6328125 0 l 1,3,-1
 479.684570312 0 l 1,4,-1
 46.6845703125 0 l 1,5,-1
 34 0 l 1,6,-1
 36.9609375 12.001953125 l 1,7,-1
 217.296875 721.333984375 l 1,8,-1
 219.305664062 729 l 1,9,-1
 227.915039062 729 l 1,10,-1
 333.84375 729 l 1,11,-1
 347.7109375 729 l 1,12,-1
 344.4609375 716.65625 l 1,13,-1
 177.3515625 82 l 1,14,-1
 498.684570312 82 l 1,15,-1
 511.266601562 82 l 1,0,-1
EndSplineSet
EndChar

StartChar: M
Encoding: 77 77 48
Width: 550
VWidth: 1177
Flags: W
LayerCount: 2
Fore
SplineSet
572.180664062 729 m 1,0,-1
 578.07421875 729 l 1,1,-1
 668.07421875 729 l 1,2,-1
 679.064453125 729 l 1,3,-1
 678.029296875 718.353515625 l 2,4,5
 671.00390625 646.081054688 671.00390625 646.081054688 657.961914062 562.133789062 c 128,-1,6
 644.946289062 478.353515625 644.946289062 478.353515625 628.930664062 387.291992188 c 128,-1,7
 612.912109375 296.208984375 612.912109375 296.208984375 593.893554688 200.272460938 c 128,-1,8
 574.884765625 104.389648438 574.884765625 104.389648438 554.676757812 8.01953125 c 2,9,-1
 552.979492188 0 l 1,10,-1
 544.408203125 0 l 1,11,-1
 444.884765625 0 l 1,12,-1
 431.870117188 0 l 1,13,-1
 434.651367188 12.13671875 l 2,14,15
 449.334960938 76.216796875 449.334960938 76.216796875 467.682617188 151.272460938 c 128,-1,16
 486 226.208007812 486 226.208007812 504.319335938 305.649414062 c 128,-1,17
 522.6484375 385.130859375 522.6484375 385.130859375 540.977539062 466.111328125 c 0,18,19
 551.752929688 513.717773438 551.752929688 513.717773438 561.322265625 559.71484375 c 1,20,-1
 398.501953125 282.112304688 l 1,21,-1
 395.500976562 277 l 1,22,-1
 389.361328125 277 l 1,23,-1
 301.362304688 277 l 1,24,-1
 291.3515625 277 l 1,25,-1
 290.897460938 286.545898438 l 2,26,27
 288.809570312 330.380859375 288.809570312 330.380859375 285.155273438 375.224609375 c 128,-1,28
 281.495117188 420.15625 281.495117188 420.15625 277.310546875 463.583984375 c 128,-1,29
 273.125 507.04296875 273.125 507.04296875 268.939453125 546.4921875 c 0,30,31
 268.056640625 554.81640625 268.056640625 554.81640625 267.123046875 563.258789062 c 1,32,33
 252.805664062 509.040039062 252.805664062 509.040039062 238.178710938 454.51953125 c 0,34,35
 216.158203125 372.44921875 216.158203125 372.44921875 193.614257812 293.374023438 c 128,-1,36
 171.102539062 214.416015625 171.102539062 214.416015625 151.2109375 141.96484375 c 128,-1,37
 131.293945312 69.41796875 131.293945312 69.41796875 113.717773438 7.35546875 c 2,38,-1
 111.701171875 0 l 1,39,-1
 104.07421875 0 l 1,40,-1
 12.07421875 0 l 1,41,-1
 -1 0 l 1,42,-1
 2.4228515625 12.2783203125 l 2,43,44
 53.46875 195.377929688 53.46875 195.377929688 109.025390625 369.24609375 c 0,45,46
 166.770507812 543.169921875 166.770507812 543.169921875 237.041992188 722.421875 c 2,47,-1
 239.551757812 729 l 1,48,-1
 246.885742188 729 l 1,49,-1
 340.124023438 729 l 1,50,-1
 349.754882812 729 l 1,51,-1
 350.5625 719.838867188 l 2,52,53
 358.950195312 624.767578125 358.950195312 624.767578125 365.241210938 537.184570312 c 0,54,55
 367.793945312 501.657226562 367.793945312 501.657226562 370.575195312 464.487304688 c 128,-1,56
 373.357421875 427.317382812 373.357421875 427.317382812 376.2421875 390.147460938 c 1,57,-1
 569.326171875 723.84375 l 1,58,-1
 572.180664062 729 l 1,0,-1
EndSplineSet
EndChar

StartChar: N
Encoding: 78 78 49
Width: 550
VWidth: 1177
Flags: W
LayerCount: 2
Fore
SplineSet
395.009765625 0 m 1,0,-1
 393.57421875 8.388671875 l 2,1,2
 376.838867188 106.243164062 376.838867188 106.243164062 360.629882812 186.09765625 c 128,-1,3
 344.4375 265.875976562 344.4375 265.875976562 326.685546875 336.15625 c 0,4,5
 317.802734375 371.318359375 317.802734375 371.318359375 308.661132812 404.852539062 c 128,-1,6
 299.520507812 438.387695312 299.520507812 438.387695312 290.120117188 470.29296875 c 0,7,8
 283.478515625 492.829101562 283.478515625 492.829101562 276.6875 516.010742188 c 128,-1,9
 269.895507812 539.192382812 269.895507812 539.192382812 263.264648438 561.943359375 c 1,10,-1
 125.4296875 7.6826171875 l 1,11,-1
 123.599609375 0 l 1,12,-1
 115.701171875 0 l 1,13,-1
 27.701171875 0 l 1,14,-1
 15 0 l 1,15,-1
 17.98046875 12.013671875 l 1,16,-1
 196.786132812 721.346679688 l 1,17,-1
 198.721679688 729 l 1,18,-1
 206.969726562 729 l 1,19,-1
 306.489257812 729 l 1,20,-1
 314.233398438 729 l 1,21,-1
 316.504882812 721.93359375 l 2,22,23
 344.807617188 633.873046875 344.807617188 633.873046875 365.265625 566.275390625 c 128,-1,24
 385.737304688 498.630859375 385.737304688 498.630859375 402.54296875 435.461914062 c 128,-1,25
 419.372070312 372.20703125 419.372070312 372.20703125 433.563476562 304.975585938 c 0,26,27
 443.67578125 257.06640625 443.67578125 257.06640625 454.750976562 197.578125 c 1,28,-1
 584.973632812 721.317382812 l 1,29,-1
 586.803710938 729 l 1,30,-1
 594.701171875 729 l 1,31,-1
 682.701171875 729 l 1,32,-1
 695.403320312 729 l 1,33,-1
 692.421875 716.986328125 l 1,34,-1
 513.615234375 7.6533203125 l 1,35,-1
 511.680664062 0 l 1,36,-1
 503.432617188 0 l 1,37,-1
 403.913085938 0 l 1,38,-1
 395.009765625 0 l 1,0,-1
EndSplineSet
EndChar

StartChar: O
Encoding: 79 79 50
Width: 550
VWidth: 1177
Flags: W
LayerCount: 2
Fore
SplineSet
505.038085938 610.18359375 m 0,0,1
 479.020507812 642 479.020507812 642 432.325195312 642 c 0,2,3
 374.958007812 642 374.958007812 642 329.709960938 603.134765625 c 0,4,5
 306.330078125 583.052734375 306.330078125 583.052734375 286.736328125 557.62890625 c 128,-1,6
 267.141601562 532.205078125 267.141601562 532.205078125 251.336914062 501.356445312 c 0,7,8
 219.454101562 439.125976562 219.454101562 439.125976562 202.184570312 365.873046875 c 128,-1,9
 185.021484375 292.555664062 185.021484375 292.555664062 185.021484375 228.913085938 c 0,10,11
 185.021484375 151.197265625 185.021484375 151.197265625 212.870117188 119.084960938 c 0,12,13
 239.9453125 88 239.9453125 88 287.904296875 88 c 0,14,15
 345.203125 88 345.203125 88 389.37109375 126.791015625 c 0,16,17
 435.236328125 167.0703125 435.236328125 167.0703125 467.326171875 228.698242188 c 0,18,19
 499.69140625 290.849609375 499.69140625 290.849609375 515.89453125 364.008789062 c 0,20,21
 532.021484375 437.383789062 532.021484375 437.383789062 532.021484375 501.086914062 c 0,22,23
 532.021484375 577.036132812 532.021484375 577.036132812 505.038085938 610.18359375 c 0,0,1
376.962890625 738.828125 m 128,-1,25
 408.8125 746 408.8125 746 444.005859375 746 c 0,26,27
 459.659179688 746 459.659179688 746 474.416992188 744.356445312 c 128,-1,28
 489.174804688 742.712890625 489.174804688 742.712890625 503.012695312 739.431640625 c 128,-1,29
 516.850585938 736.150390625 516.850585938 736.150390625 529.752929688 731.216796875 c 0,30,31
 541.919921875 726.283203125 541.919921875 726.283203125 553.140625 719.72265625 c 128,-1,32
 564.361328125 713.336914062 564.361328125 713.336914062 574.666015625 705.330078125 c 128,-1,33
 584.970703125 697.32421875 584.970703125 697.32421875 594.284179688 687.744140625 c 0,34,35
 622.446289062 658.77734375 622.446289062 658.77734375 636.233398438 614.1953125 c 128,-1,36
 650.021484375 569.61328125 650.021484375 569.61328125 650.021484375 509.716796875 c 0,37,38
 650.021484375 487.897460938 650.021484375 487.897460938 647.994140625 463.23046875 c 128,-1,39
 645.966796875 438.5625 645.966796875 438.5625 641.920898438 410.990234375 c 128,-1,40
 637.864257812 383.34375 637.864257812 383.34375 631.279296875 354.989257812 c 128,-1,41
 624.694335938 326.635742188 624.694335938 326.635742188 615.5859375 297.573242188 c 0,42,43
 597.356445312 239.405273438 597.356445312 239.405273438 569.512695312 183.71484375 c 0,44,45
 541.413085938 127.512695312 541.413085938 127.512695312 499.739257812 83.6806640625 c 0,46,47
 457.0625 39.541015625 457.0625 39.541015625 401.7578125 12.4345703125 c 0,48,49
 345.78515625 -15 345.78515625 -15 275.161132812 -15 c 0,50,51
 179.745117188 -15 179.745117188 -15 123.291015625 42.564453125 c 0,52,53
 67.021484375 99.94140625 67.021484375 99.94140625 67.021484375 220.745117188 c 0,54,55
 67.021484375 235.329101562 67.021484375 235.329101562 67.9833984375 251.143554688 c 128,-1,56
 68.9453125 266.958007812 68.9453125 266.958007812 70.857421875 283.934570312 c 128,-1,57
 72.76953125 300.912109375 72.76953125 300.912109375 75.63671875 319.1484375 c 0,58,59
 79.9404296875 346.525390625 79.9404296875 346.525390625 86.5166015625 374.734375 c 128,-1,60
 93.091796875 402.942382812 93.091796875 402.942382812 101.934570312 431.984375 c 0,61,62
 119.689453125 490.296875 119.689453125 490.296875 148.592773438 546.116210938 c 0,63,64
 154.3984375 557.328125 154.3984375 557.328125 160.614257812 568.048828125 c 128,-1,65
 166.830078125 578.76953125 166.830078125 578.76953125 173.46484375 589.01171875 c 128,-1,66
 180.099609375 599.252929688 180.099609375 599.252929688 187.153320312 609.000976562 c 0,67,68
 194.634765625 618.749023438 194.634765625 618.749023438 202.561523438 628.013671875 c 128,-1,69
 210.489257812 637.279296875 210.489257812 637.279296875 218.8515625 646.046875 c 0,70,71
 260.999023438 690.233398438 260.999023438 690.233398438 316.844726562 717.858398438 c 0,72,24
 345.11328125 731.840820312 345.11328125 731.840820312 376.962890625 738.828125 c 128,-1,25
EndSplineSet
EndChar

StartChar: P
Encoding: 80 80 51
Width: 550
VWidth: 1177
Flags: W
LayerCount: 2
Fore
SplineSet
384.168945312 735.748046875 m 128,-1,1
 396.418945312 736 396.418945312 736 407.626953125 736 c 0,2,3
 433.904296875 736 433.904296875 736 457.786132812 733.0625 c 128,-1,4
 481.668945312 730.124023438 481.668945312 730.124023438 503.240234375 724.22265625 c 0,5,6
 524.58984375 718.447265625 524.58984375 718.447265625 542.756835938 709.686523438 c 128,-1,7
 560.922851562 700.92578125 560.922851562 700.92578125 576.686523438 689.225585938 c 0,8,9
 608.61328125 665.526367188 608.61328125 665.526367188 624.62890625 630.38671875 c 128,-1,10
 640.64453125 595.24609375 640.64453125 595.24609375 640.64453125 549.774414062 c 0,11,12
 640.64453125 485.020507812 640.64453125 485.020507812 616.256835938 432.19921875 c 0,13,14
 608.131835938 414.602539062 608.131835938 414.602539062 597.67578125 398.604492188 c 128,-1,15
 587.219726562 382.606445312 587.219726562 382.606445312 574.461914062 368.250976562 c 128,-1,16
 561.704101562 353.895507812 561.704101562 353.895507812 546.673828125 341.211914062 c 0,17,18
 500.643554688 303.26953125 500.643554688 303.26953125 435.334960938 282.591796875 c 0,19,20
 402.768554688 272.280273438 402.768554688 272.280273438 366.783203125 267.139648438 c 128,-1,21
 330.797851562 262 330.797851562 262 291.44140625 262 c 2,22,-1
 209.966796875 262 l 1,23,-1
 142.362304688 7.6416015625 l 1,24,-1
 140.5078125 0 l 1,25,-1
 132.64453125 0 l 1,26,-1
 37.64453125 0 l 1,27,-1
 25 0 l 1,28,-1
 27.9130859375 11.9736328125 l 1,29,-1
 200.888671875 710.696289062 l 1,30,-1
 202.344726562 716.358398438 l 1,31,-1
 208.4453125 717.857421875 l 2,32,33
 224.985351562 721.920898438 224.985351562 721.920898438 251.05078125 724.922851562 c 0,34,35
 276.454101562 727.928710938 276.454101562 727.928710938 303.961914062 730.934570312 c 0,36,37
 310.921875 731.694335938 310.921875 731.694335938 317.81640625 732.328125 c 128,-1,38
 324.711914062 732.961914062 324.711914062 732.961914062 331.543945312 733.469726562 c 128,-1,39
 338.375976562 733.9765625 338.375976562 733.9765625 345.145507812 734.357421875 c 128,-1,40
 351.9140625 734.73828125 351.9140625 734.73828125 358.618164062 734.9921875 c 0,41,0
 371.919921875 735.49609375 371.919921875 735.49609375 384.168945312 735.748046875 c 128,-1,1
441.178710938 628.940429688 m 0,42,43
 416.994140625 634 416.994140625 634 391.783203125 634 c 0,44,45
 386.139648438 634 386.139648438 634 380.6015625 633.942382812 c 128,-1,46
 375.0625 633.885742188 375.0625 633.885742188 369.634765625 633.771484375 c 128,-1,47
 364.20703125 633.657226562 364.20703125 633.657226562 358.884765625 633.485351562 c 128,-1,48
 353.5625 633.313476562 353.5625 633.313476562 348.349609375 633.0859375 c 128,-1,49
 343.137695312 632.857421875 343.137695312 632.857421875 338.032226562 632.572265625 c 0,50,51
 318.750976562 631.494140625 318.750976562 631.494140625 306.325195312 630.145507812 c 1,52,-1
 235.190429688 365 l 1,53,-1
 305.171875 365 l 2,54,55
 412.043945312 365 412.043945312 365 468.715820312 411.237304688 c 0,56,57
 524.64453125 457.051757812 524.64453125 457.051757812 524.64453125 540.4765625 c 0,58,59
 524.64453125 549.078125 524.64453125 549.078125 523.42578125 556.747070312 c 128,-1,60
 522.20703125 564.415039062 522.20703125 564.415039062 519.815429688 570.991210938 c 128,-1,61
 517.3359375 577.568359375 517.3359375 577.568359375 513.640625 583.33203125 c 0,62,63
 502.196289062 601.178710938 502.196289062 601.178710938 483.625976562 612.479492188 c 0,64,65
 464.641601562 624.033203125 464.641601562 624.033203125 441.178710938 628.940429688 c 0,42,43
EndSplineSet
EndChar

StartChar: Q
Encoding: 81 81 52
Width: 550
VWidth: 1177
Flags: W
LayerCount: 2
Fore
SplineSet
376.99609375 738.828125 m 128,-1,1
 408.845703125 746 408.845703125 746 444.0390625 746 c 0,2,3
 459.692382812 746 459.692382812 746 474.450195312 744.356445312 c 128,-1,4
 489.208007812 742.712890625 489.208007812 742.712890625 503.045898438 739.431640625 c 128,-1,5
 516.883789062 736.150390625 516.883789062 736.150390625 529.786132812 731.216796875 c 0,6,7
 541.953125 726.283203125 541.953125 726.283203125 553.173828125 719.72265625 c 128,-1,8
 564.39453125 713.340820312 564.39453125 713.340820312 574.69921875 705.33984375 c 128,-1,9
 585.00390625 697.338867188 585.00390625 697.338867188 594.317382812 687.765625 c 0,10,11
 622.479492188 658.818359375 622.479492188 658.818359375 636.266601562 614.265625 c 128,-1,12
 650.0546875 569.713867188 650.0546875 569.713867188 650.0546875 509.856445312 c 0,13,14
 650.0546875 469.3359375 650.0546875 469.3359375 642.969726562 416.66015625 c 0,15,16
 641.194335938 403.458984375 641.194335938 403.458984375 638.849609375 390.108398438 c 128,-1,17
 636.50390625 376.7578125 636.50390625 376.7578125 633.590820312 363.265625 c 128,-1,18
 630.677734375 349.7734375 630.677734375 349.7734375 627.197265625 336.139648438 c 128,-1,19
 623.717773438 322.505859375 623.717773438 322.505859375 619.669921875 308.721679688 c 0,20,21
 603.471679688 253.567382812 603.471679688 253.567382812 578.67578125 199.90625 c 0,22,23
 566.1796875 172.86328125 566.1796875 172.86328125 550.978515625 148.381835938 c 128,-1,24
 535.778320312 123.901367188 535.778320312 123.901367188 517.126953125 102.012695312 c 0,25,26
 478.940429688 58.033203125 478.940429688 58.033203125 428.736328125 27.037109375 c 0,27,28
 405.34765625 12.5986328125 405.34765625 12.5986328125 379.260742188 3.0283203125 c 0,29,30
 353.174804688 -6.8095703125 353.174804688 -6.8095703125 325.10546875 -11.533203125 c 1,31,32
 325.567382812 -43.2666015625 325.567382812 -43.2666015625 366.78125 -64.1982421875 c 0,33,34
 389.356445312 -75.6640625 389.356445312 -75.6640625 419.698242188 -83.9326171875 c 128,-1,35
 450.040039062 -92.201171875 450.040039062 -92.201171875 487.95703125 -97.0927734375 c 2,36,-1
 503.2109375 -99.060546875 l 1,37,-1
 495.838867188 -111.788085938 l 1,38,-1
 451.23828125 -188.788085938 l 1,39,-1
 447.532226562 -195.1875 l 1,40,-1
 439.927734375 -193.823242188 l 2,41,42
 394.942382812 -185.75390625 394.942382812 -185.75390625 351.024414062 -174.658203125 c 0,43,44
 328.5 -168.967773438 328.5 -168.967773438 308.741210938 -160.900390625 c 128,-1,45
 288.982421875 -152.833007812 288.982421875 -152.833007812 272.025390625 -142.362304688 c 0,46,47
 263.424804688 -137.05078125 263.424804688 -137.05078125 255.67578125 -130.948242188 c 128,-1,48
 247.92578125 -124.844726562 247.92578125 -124.844726562 241.055664062 -117.975585938 c 128,-1,49
 234.184570312 -111.106445312 234.184570312 -111.106445312 228.196289062 -103.469726562 c 128,-1,50
 222.206054688 -95.833984375 222.206054688 -95.833984375 217.125 -87.4609375 c 0,51,52
 197.091796875 -54.4462890625 197.091796875 -54.4462890625 196.614257812 -3.478515625 c 1,53,54
 138.295898438 14.6484375 138.295898438 14.6484375 103.618164062 67.712890625 c 0,55,56
 67.0546875 123.662109375 67.0546875 123.662109375 67.0546875 220.953125 c 0,57,58
 67.0546875 235.53125 67.0546875 235.53125 68.0166015625 251.338867188 c 128,-1,59
 68.978515625 267.147460938 68.978515625 267.147460938 70.890625 284.1171875 c 128,-1,60
 72.802734375 301.086914062 72.802734375 301.086914062 75.669921875 319.31640625 c 0,61,62
 79.9736328125 346.682617188 79.9736328125 346.682617188 86.5498046875 374.879882812 c 128,-1,63
 93.125 403.077148438 93.125 403.077148438 101.967773438 432.107421875 c 0,64,65
 119.72265625 490.396484375 119.72265625 490.396484375 148.625976562 546.194335938 c 0,66,67
 154.431640625 557.400390625 154.431640625 557.400390625 160.647460938 568.1171875 c 128,-1,68
 166.86328125 578.833984375 166.86328125 578.833984375 173.498046875 589.071289062 c 128,-1,69
 180.1328125 599.309570312 180.1328125 599.309570312 187.186523438 609.053710938 c 0,70,71
 194.666992188 618.796875 194.666992188 618.796875 202.594726562 628.05859375 c 128,-1,72
 210.521484375 637.3203125 210.521484375 637.3203125 218.884765625 646.083984375 c 0,73,74
 261.032226562 690.252929688 261.032226562 690.252929688 316.87890625 717.866210938 c 0,75,0
 345.145507812 731.84375 345.145507812 731.84375 376.99609375 738.828125 c 128,-1,1
505.071289062 609.03515625 m 0,76,77
 479.053710938 642 479.053710938 642 432.358398438 642 c 0,78,79
 374.991210938 642 374.991210938 642 329.743164062 601.732421875 c 0,80,81
 306.36328125 580.924804688 306.36328125 580.924804688 286.768554688 554.583007812 c 128,-1,82
 267.174804688 528.241210938 267.174804688 528.241210938 251.37109375 496.278320312 c 0,83,84
 219.48828125 431.801757812 219.48828125 431.801757812 202.216796875 355.904296875 c 128,-1,85
 185.0546875 279.940429688 185.0546875 279.940429688 185.0546875 214 c 0,86,87
 185.0546875 133.479492188 185.0546875 133.479492188 212.90234375 100.20703125 c 0,88,89
 239.978515625 68 239.978515625 68 287.9375 68 c 0,90,91
 345.236328125 68 345.236328125 68 389.404296875 108.19140625 c 0,92,93
 435.26953125 149.924804688 435.26953125 149.924804688 467.359375 213.778320312 c 0,94,95
 499.724609375 278.172851562 499.724609375 278.172851562 515.927734375 353.973632812 c 0,96,97
 532.0546875 429.99609375 532.0546875 429.99609375 532.0546875 496 c 0,98,99
 532.0546875 574.690429688 532.0546875 574.690429688 505.071289062 609.03515625 c 0,76,77
EndSplineSet
EndChar

StartChar: R
Encoding: 82 82 53
Width: 550
VWidth: 1177
Flags: W
LayerCount: 2
Fore
SplineSet
567.80078125 687.301757812 m 0,0,1
 624.661132812 638.153320312 624.661132812 638.153320312 624.661132812 556.868164062 c 0,2,3
 624.661132812 456.046875 624.661132812 456.046875 569.411132812 390.081054688 c 0,4,5
 543.791992188 359.491210938 543.791992188 359.491210938 509.90234375 337.002929688 c 0,6,7
 474.383789062 314.513671875 474.383789062 314.513671875 431.569335938 300.838867188 c 1,8,9
 444.73046875 274.883789062 444.73046875 274.883789062 456.671875 250.844726562 c 0,10,11
 471.1484375 221.70703125 471.1484375 221.70703125 483.995117188 187.685546875 c 128,-1,12
 496.80859375 153.747070312 496.80859375 153.747070312 508.829101562 111.038085938 c 0,13,14
 520.377929688 68.5107421875 520.377929688 68.5107421875 533.418945312 11.8642578125 c 2,15,-1
 536.150390625 0 l 1,16,-1
 523.661132812 0 l 1,17,-1
 420.111328125 0 l 1,18,-1
 411.529296875 0 l 1,19,-1
 409.767578125 7.9482421875 l 2,20,21
 396.090820312 69.669921875 396.090820312 69.669921875 383.485351562 113.896484375 c 128,-1,22
 370.927734375 157.959960938 370.927734375 157.959960938 358.41015625 190.036132812 c 128,-1,23
 345.9296875 222.020507812 345.9296875 222.020507812 333.506835938 245.528320312 c 0,24,25
 322.49609375 266.364257812 322.49609375 266.364257812 311.999023438 287 c 1,26,-1
 202.241210938 287 l 1,27,-1
 130.376953125 7.630859375 l 1,28,-1
 128.515625 0 l 1,29,-1
 120.661132812 0 l 1,30,-1
 25.6611328125 0 l 1,31,-1
 13 0 l 1,32,-1
 15.93359375 11.986328125 l 1,33,-1
 190.000976562 710.747070312 l 1,34,-1
 191.467773438 716.419921875 l 1,35,-1
 197.591796875 717.904296875 l 2,36,37
 218.216796875 722.90234375 218.216796875 722.90234375 243.081054688 726.385742188 c 0,38,39
 267.733398438 729.935546875 267.733398438 729.935546875 292.918945312 731.963867188 c 128,-1,40
 317.96875 733.981445312 317.96875 733.981445312 342.5 734.990234375 c 128,-1,41
 367.038085938 736 367.038085938 736 386.291015625 736 c 0,42,43
 511.459960938 736 511.459960938 736 567.80078125 687.301757812 c 0,0,1
473.853515625 611.620117188 m 0,44,45
 437.9765625 634 437.9765625 634 378.892578125 634 c 0,46,47
 350.673828125 634 350.673828125 634 324.568359375 632.573242188 c 0,48,49
 305.603515625 631.537109375 305.603515625 631.537109375 293.44921875 630.206054688 c 1,50,-1
 227.39453125 377 l 1,51,-1
 276.375976562 377 l 2,52,53
 300.736328125 377 300.736328125 377 323.618164062 378.883789062 c 128,-1,54
 346.500976562 380.767578125 346.500976562 380.767578125 367.91015625 384.526367188 c 0,55,56
 388.907226562 388.212890625 388.907226562 388.212890625 407.229492188 394.727539062 c 128,-1,57
 425.55078125 401.2421875 425.55078125 401.2421875 441.297851562 410.575195312 c 0,58,59
 472.237304688 428.9140625 472.237304688 428.9140625 489.978515625 460.331054688 c 0,60,61
 507.661132812 491.948242188 507.661132812 491.948242188 507.661132812 540.6328125 c 0,62,63
 507.661132812 590.423828125 507.661132812 590.423828125 473.853515625 611.620117188 c 0,44,45
EndSplineSet
EndChar

StartChar: S
Encoding: 83 83 54
Width: 550
VWidth: 1177
Flags: W
LayerCount: 2
Fore
SplineSet
203.786132812 93.2314453125 m 128,-1,1
 231.708007812 89 231.708007812 89 266.133789062 89 c 0,2,3
 274.264648438 89 274.264648438 89 282.360351562 89.4375 c 128,-1,4
 290.454101562 89.875 290.454101562 89.875 298.520507812 90.7509765625 c 128,-1,5
 306.587890625 91.6259765625 306.587890625 91.6259765625 314.625 92.94140625 c 128,-1,6
 322.6640625 94.255859375 322.6640625 94.255859375 330.676757812 96.009765625 c 128,-1,7
 338.600585938 97.744140625 338.600585938 97.744140625 346.059570312 99.9326171875 c 128,-1,8
 353.520507812 102.122070312 353.520507812 102.122070312 360.499023438 104.758789062 c 128,-1,9
 367.4765625 107.395507812 367.4765625 107.395507812 373.982421875 110.471679688 c 128,-1,10
 380.48828125 113.546875 380.48828125 113.546875 386.553710938 117.075195312 c 0,11,12
 410.09375 130.765625 410.09375 130.765625 424.081054688 154.264648438 c 128,-1,13
 438.08203125 177.788085938 438.08203125 177.788085938 438.081054688 213.127929688 c 0,14,15
 438.081054688 224.701171875 438.081054688 224.701171875 435.717773438 234.587890625 c 128,-1,16
 433.353515625 244.474609375 433.353515625 244.474609375 428.6953125 252.827148438 c 0,17,18
 425.459960938 258.625976562 425.459960938 258.625976562 421.477539062 264.0703125 c 128,-1,19
 417.494140625 269.515625 417.494140625 269.515625 412.71484375 274.658203125 c 128,-1,20
 407.935546875 279.80078125 407.935546875 279.80078125 402.370117188 284.616210938 c 0,21,22
 385.301757812 299.383789062 385.301757812 299.383789062 362.063476562 311.922851562 c 0,23,24
 338.040039062 324.885742188 338.040039062 324.885742188 309.79296875 338.350585938 c 0,25,26
 300.840820312 342.629882812 300.840820312 342.629882812 292.06640625 347.18359375 c 128,-1,27
 283.293945312 351.737304688 283.293945312 351.737304688 274.698242188 356.56640625 c 128,-1,28
 266.103515625 361.39453125 266.103515625 361.39453125 257.688476562 366.497070312 c 0,29,30
 231.65234375 382.283203125 231.65234375 382.283203125 212.223632812 403.20703125 c 0,31,32
 202.364257812 413.82421875 202.364257812 413.82421875 194.391601562 426.5546875 c 128,-1,33
 186.41796875 439.284179688 186.41796875 439.284179688 180.318359375 454.06640625 c 0,34,35
 168.029296875 483.8515625 168.029296875 483.8515625 168.030273438 525.388671875 c 0,36,37
 168.030273438 549.309570312 168.030273438 549.309570312 172.649414062 571.2578125 c 128,-1,38
 177.26953125 593.205078125 177.26953125 593.205078125 186.465820312 613.053710938 c 128,-1,39
 195.6640625 632.901367188 195.6640625 632.901367188 209.470703125 650.633789062 c 128,-1,40
 223.276367188 668.366210938 223.276367188 668.366210938 241.59765625 683.81640625 c 0,41,42
 278.465820312 714.90625 278.465820312 714.90625 333.479492188 730.213867188 c 0,43,44
 388.493164062 746 388.493164062 746 461.2890625 746 c 0,45,46
 492.798828125 746 492.798828125 746 523.767578125 740.849609375 c 0,47,48
 538.911132812 738.30078125 538.911132812 738.30078125 552.076171875 735.233398438 c 128,-1,49
 565.241210938 732.165039062 565.241210938 732.165039062 577.065429688 728.56640625 c 0,50,51
 600.541015625 721.421875 600.541015625 721.421875 619 713.73046875 c 0,52,53
 637.89453125 705.858398438 637.89453125 705.858398438 647.701171875 699.3203125 c 2,54,-1
 655.575195312 694.071289062 l 1,55,-1
 650.767578125 685.919921875 l 1,56,-1
 604.767578125 607.919921875 l 1,57,-1
 598.791015625 597.78515625 l 1,58,-1
 589.751953125 605.317382812 l 2,59,60
 581.844726562 611.907226562 581.844726562 611.907226562 568.497070312 618.170898438 c 128,-1,61
 555.149414062 624.434570312 555.149414062 624.434570312 536.791992188 629.91796875 c 0,62,63
 497.72265625 641 497.72265625 641 443.35546875 641 c 0,64,65
 409.841796875 641 409.841796875 641 381.565429688 634.500976562 c 0,66,67
 367.711914062 631.317382812 367.711914062 631.317382812 355.864257812 626.376953125 c 128,-1,68
 344.017578125 621.4375 344.017578125 621.4375 334.07421875 614.749023438 c 0,69,70
 314.473632812 601.564453125 314.473632812 601.564453125 302.956054688 580.829101562 c 128,-1,71
 291.452148438 560.1171875 291.452148438 560.1171875 291.452148438 531.41796875 c 0,72,73
 291.452148438 507.305664062 291.452148438 507.305664062 299.499023438 490.770507812 c 0,74,75
 302.240234375 485.13671875 302.240234375 485.13671875 305.551757812 480.029296875 c 128,-1,76
 308.862304688 474.921875 308.862304688 474.921875 312.732421875 470.344726562 c 128,-1,77
 316.600585938 465.768554688 316.600585938 465.768554688 321.064453125 461.665039062 c 128,-1,78
 325.603515625 457.4921875 325.603515625 457.4921875 330.872070312 453.545898438 c 128,-1,79
 336.140625 449.600585938 336.140625 449.600585938 342.232421875 445.831054688 c 128,-1,80
 348.326171875 442.061523438 348.326171875 442.061523438 355.159179688 438.537109375 c 0,81,82
 362.299804688 434.854492188 362.299804688 434.854492188 369.990234375 430.998046875 c 128,-1,83
 377.681640625 427.141601562 377.681640625 427.141601562 385.901367188 423.122070312 c 128,-1,84
 394.12109375 419.103515625 394.12109375 419.103515625 402.833007812 414.938476562 c 0,85,86
 435.873046875 399.26171875 435.873046875 399.26171875 464.678710938 383.079101562 c 0,87,88
 479.53125 374.735351562 479.53125 374.735351562 492.381835938 365.080078125 c 128,-1,89
 505.235351562 355.424804688 505.235351562 355.424804688 516.045898438 344.46875 c 0,90,91
 527.020507812 333.34375 527.020507812 333.34375 535.588867188 320.171875 c 0,92,93
 543.7109375 307.000976562 543.7109375 307.000976562 549.5234375 291.884765625 c 0,94,95
 561.154296875 261.637695312 561.154296875 261.637695312 561.154296875 220.12890625 c 0,96,97
 561.154296875 161.712890625 561.154296875 161.712890625 539.700195312 117.565429688 c 0,98,99
 528.610351562 95.4921875 528.610351562 95.4921875 512.65625 77 c 128,-1,100
 496.703125 58.5078125 496.703125 58.5078125 476.235351562 43.759765625 c 0,101,102
 435.551757812 14.447265625 435.551757812 14.447265625 378.67578125 -0.1328125 c 0,103,104
 322.431640625 -15 322.431640625 -15 254.530273438 -15 c 0,105,106
 167.264648438 -15 167.264648438 -15 112.801757812 4.078125 c 0,107,108
 59.3701171875 23.087890625 59.3701171875 23.087890625 38.154296875 39 c 2,109,-1
 31.20703125 44.2099609375 l 1,110,-1
 35.3916015625 51.8193359375 l 1,111,-1
 79.3916015625 131.819335938 l 1,112,-1
 84.5791015625 141.250976562 l 1,113,-1
 93.603515625 135.384765625 l 2,114,115
 112.823242188 122.892578125 112.823242188 122.892578125 154.640625 105.747070312 c 0,116,0
 175.864257812 97.462890625 175.864257812 97.462890625 203.786132812 93.2314453125 c 128,-1,1
EndSplineSet
EndChar

StartChar: T
Encoding: 84 84 55
Width: 550
VWidth: 1177
Flags: W
LayerCount: 2
Fore
SplineSet
711.8359375 729 m 1,0,-1
 708.819335938 719.055664062 l 1,1,-1
 688.819335938 653.133789062 l 1,2,-1
 686.958007812 647 l 1,3,-1
 679.104492188 647 l 1,4,-1
 481.06640625 647 l 1,5,-1
 316.651367188 7.65625 l 1,6,-1
 314.682617188 0 l 1,7,-1
 306.283203125 0 l 1,8,-1
 206.104492188 0 l 1,9,-1
 193.387695312 0 l 1,10,-1
 196.38671875 12.3583984375 l 1,11,-1
 355.647460938 647 l 1,12,-1
 164.104492188 647 l 1,13,-1
 151.372070312 647 l 1,14,-1
 154.388671875 656.748046875 l 1,15,-1
 174.388671875 721.369140625 l 1,16,-1
 176.25 729 l 1,17,-1
 184.104492188 729 l 1,18,-1
 699.104492188 729 l 1,19,-1
 711.8359375 729 l 1,0,-1
EndSplineSet
EndChar

StartChar: U
Encoding: 85 85 56
Width: 550
VWidth: 1177
Flags: W
LayerCount: 2
Fore
SplineSet
299.076171875 -13.9150390625 m 128,-1,1
 282.338867188 -15 282.338867188 -15 264.301757812 -15 c 0,2,3
 211.252929688 -15 211.252929688 -15 173.887695312 2.50390625 c 0,4,5
 137.958984375 19.4677734375 137.958984375 19.4677734375 113.583007812 47.8232421875 c 128,-1,6
 89.26953125 76.1064453125 89.26953125 76.1064453125 77.6796875 113.525390625 c 0,7,8
 66.25390625 150.41015625 66.25390625 150.41015625 66.25390625 190.76171875 c 0,9,10
 66.25390625 226.012695312 66.25390625 226.012695312 76.5400390625 266.043945312 c 2,11,-1
 188.65234375 721.327148438 l 1,12,-1
 190.588867188 729 l 1,13,-1
 198.91015625 729 l 1,14,-1
 300.161132812 729 l 1,15,-1
 313.54296875 729 l 1,16,-1
 310.416015625 717.036132812 l 1,17,-1
 192.30859375 265.205078125 l 2,18,19
 183.25390625 227.53515625 183.25390625 227.53515625 183.25390625 194.671875 c 0,20,21
 183.25390625 171.6484375 183.25390625 171.6484375 188.5625 151.982421875 c 0,22,23
 189.330078125 149.219726562 189.330078125 149.219726562 190.21484375 146.556640625 c 128,-1,24
 191.1015625 143.893554688 191.1015625 143.893554688 192.09765625 141.340820312 c 128,-1,25
 193.096679688 138.787109375 193.096679688 138.787109375 194.2109375 136.330078125 c 128,-1,26
 195.325195312 133.873046875 195.325195312 133.873046875 196.549804688 131.522460938 c 128,-1,27
 197.774414062 129.170898438 197.774414062 129.170898438 199.116210938 126.912109375 c 128,-1,28
 200.458007812 124.653320312 200.458007812 124.653320312 201.908203125 122.497070312 c 128,-1,29
 203.359375 120.340820312 203.359375 120.340820312 204.926757812 118.2734375 c 0,30,31
 210.21484375 111.297851562 210.21484375 111.297851562 217.321289062 105.81640625 c 128,-1,32
 224.428710938 100.3359375 224.428710938 100.3359375 233.587890625 96.2333984375 c 0,33,34
 251.96875 88 251.96875 88 279.067382812 88 c 0,35,36
 295.215820312 88 295.215820312 88 309.73046875 89.83984375 c 128,-1,37
 324.244140625 91.6796875 324.244140625 91.6796875 337.137695312 95.326171875 c 0,38,39
 349.671875 98.87109375 349.671875 98.87109375 360.983398438 105.064453125 c 128,-1,40
 372.293945312 111.2578125 372.293945312 111.2578125 382.536132812 120.223632812 c 0,41,42
 389.34375 126.182617188 389.34375 126.182617188 395.729492188 133.704101562 c 128,-1,43
 402.115234375 141.2265625 402.115234375 141.2265625 408.18359375 150.51171875 c 128,-1,44
 414.252929688 159.797851562 414.252929688 159.797851562 419.821289062 170.654296875 c 128,-1,45
 425.416015625 181.560546875 425.416015625 181.560546875 430.779296875 194.78125 c 128,-1,46
 436.14453125 208.001953125 436.14453125 208.001953125 441.295898438 223.629882812 c 128,-1,47
 446.448242188 239.258789062 446.448242188 239.258789062 451.288085938 257.05078125 c 2,48,-1
 573.53515625 721.353515625 l 1,49,-1
 575.38671875 729 l 1,50,-1
 583.25390625 729 l 1,51,-1
 679.25390625 729 l 1,52,-1
 691.916992188 729 l 1,53,-1
 688.981445312 717.01171875 l 1,54,-1
 571.987304688 239.190429688 l 2,55,56
 557.000976562 179.913085938 557.000976562 179.913085938 534.440429688 133.321289062 c 0,57,58
 511.514648438 85.9755859375 511.514648438 85.9755859375 476.427734375 53.09375 c 0,59,60
 440.986328125 19.87890625 440.986328125 19.87890625 388.618164062 2.5849609375 c 0,61,62
 375.5625 -1.845703125 375.5625 -1.845703125 361.237304688 -5.1552734375 c 128,-1,63
 346.912109375 -8.4638671875 346.912109375 -8.4638671875 331.364257812 -10.6474609375 c 128,-1,0
 315.81640625 -12.8310546875 315.81640625 -12.8310546875 299.076171875 -13.9150390625 c 128,-1,1
EndSplineSet
EndChar

StartChar: V
Encoding: 86 86 57
Width: 550
VWidth: 1177
Flags: W
LayerCount: 2
Fore
SplineSet
311.309570312 729 m 1,0,-1
 311.360351562 719.047851562 l 2,1,2
 312.416992188 509.232421875 312.416992188 509.232421875 321.393554688 349.530273438 c 0,3,4
 329.034179688 213.540039062 329.034179688 213.540039062 336.3359375 110.197265625 c 1,5,6
 414.518554688 247.418945312 414.518554688 247.418945312 493.989257812 388.6953125 c 0,7,8
 538.06640625 467.051757812 538.06640625 467.051757812 581.4921875 550.6640625 c 128,-1,9
 624.916015625 634.276367188 624.916015625 634.276367188 667.6875 723.141601562 c 2,10,-1
 670.505859375 729 l 1,11,-1
 677.302734375 729 l 1,12,-1
 781.302734375 729 l 1,13,-1
 797.104492188 729 l 1,14,-1
 790.33984375 715.102539062 l 2,15,16
 772.2890625 678.01953125 772.2890625 678.01953125 732.735351562 601.525390625 c 128,-1,17
 693.174804688 525.017578125 693.174804688 525.017578125 637.478515625 426.668945312 c 0,18,19
 580.833984375 328.279296875 580.833984375 328.279296875 514.15234375 218.236328125 c 128,-1,20
 447.43359375 108.1328125 447.43359375 108.1328125 379.64453125 4.8310546875 c 2,21,-1
 376.55859375 0 l 1,22,-1
 370.58984375 0 l 1,23,-1
 247.302734375 0 l 1,24,-1
 238.37109375 0 l 1,25,-1
 237.366210938 8.875 l 2,26,27
 225.34375 112.165039062 225.34375 112.165039062 216.831054688 222.240234375 c 128,-1,28
 208.325195312 332.213867188 208.325195312 332.213867188 202.3203125 430.53125 c 128,-1,29
 196.315429688 528.844726562 196.315429688 528.844726562 193.309570312 605.319335938 c 128,-1,30
 190.302734375 681.85546875 190.302734375 681.85546875 190.302734375 719 c 2,31,-1
 190.302734375 729 l 1,32,-1
 200.302734375 729 l 1,33,-1
 301.302734375 729 l 1,34,-1
 311.309570312 729 l 1,0,-1
EndSplineSet
EndChar

StartChar: W
Encoding: 87 87 58
Width: 550
VWidth: 1177
Flags: W
LayerCount: 2
Fore
SplineSet
369.782226562 9.2333984375 m 1,0,-1
 343.15234375 339.771484375 l 1,1,-1
 151.04296875 5.1845703125 l 1,2,-1
 148.194335938 0 l 1,3,-1
 142.278320312 0 l 1,4,-1
 51.2783203125 0 l 1,5,-1
 40.3017578125 0 l 1,6,-1
 41.322265625 10.6337890625 l 2,7,8
 48.34765625 83.8779296875 48.34765625 83.8779296875 61.388671875 168.794921875 c 128,-1,9
 74.4091796875 253.583007812 74.4091796875 253.583007812 90.9306640625 344.67578125 c 128,-1,10
 107.447265625 435.741210938 107.447265625 435.741210938 126.462890625 530.689453125 c 128,-1,11
 145.461914062 625.553710938 145.461914062 625.553710938 164.658203125 720.903320312 c 2,12,-1
 166.302734375 729 l 1,13,-1
 174.940429688 729 l 1,14,-1
 274.440429688 729 l 1,15,-1
 287.590820312 729 l 1,16,-1
 284.649414062 716.762695312 l 2,17,18
 269.9921875 655.788085938 269.9921875 655.788085938 252.190429688 580.303710938 c 128,-1,19
 234.389648438 504.818359375 234.389648438 504.818359375 215.538085938 423.831054688 c 128,-1,20
 196.682617188 342.814453125 196.682617188 342.814453125 177.301757812 260.798828125 c 0,21,22
 166.522460938 215.177734375 166.522460938 215.177734375 156.88671875 171.665039062 c 1,23,24
 160.999023438 179.032226562 160.999023438 179.032226562 165.260742188 186.356445312 c 0,25,26
 188.854492188 226.90234375 188.854492188 226.90234375 215.060546875 270.940429688 c 128,-1,27
 241.198242188 314.860351562 241.198242188 314.860351562 266.814453125 359.78125 c 128,-1,28
 292.521484375 404.8671875 292.521484375 404.8671875 317.715820312 446.9609375 c 2,29,-1
 320.731445312 452 l 1,30,-1
 326.809570312 452 l 1,31,-1
 413.741210938 452 l 1,32,-1
 423.704101562 452 l 1,33,-1
 424.202148438 442.499023438 l 2,34,35
 426.287109375 402.692382812 426.287109375 402.692382812 430.458007812 357.885742188 c 2,36,-1
 438.837890625 267.885742188 l 2,37,38
 443.02734375 222.869140625 443.02734375 222.869140625 446.6953125 181.850585938 c 0,39,40
 447.000976562 178.431640625 447.000976562 178.431640625 447.364257812 174.516601562 c 128,-1,41
 447.727539062 170.602539062 447.727539062 170.602539062 448.059570312 167.119140625 c 128,-1,42
 448.392578125 163.635742188 448.392578125 163.635742188 448.678710938 160.719726562 c 1,43,44
 452.453125 173.625976562 452.453125 173.625976562 456.272460938 186.701171875 c 128,-1,45
 460.090820312 199.77734375 460.090820312 199.77734375 463.954101562 213.022460938 c 128,-1,46
 467.817382812 226.266601562 467.817382812 226.266601562 471.725585938 239.680664062 c 128,-1,47
 475.631835938 253.094726562 475.631835938 253.094726562 479.584960938 266.676757812 c 0,48,49
 503.137695312 347.63671875 503.137695312 347.63671875 525.64453125 427.595703125 c 128,-1,50
 548.153320312 507.55859375 548.153320312 507.55859375 568.565429688 582.516601562 c 128,-1,51
 588.99609375 657.538085938 588.99609375 657.538085938 606.61328125 721.567382812 c 2,52,-1
 608.587890625 729 l 1,53,-1
 616.278320312 729 l 1,54,-1
 709.278320312 729 l 1,55,-1
 722.49609375 729 l 1,56,-1
 718.901367188 716.623046875 l 2,57,58
 666.874023438 537.486328125 666.874023438 537.486328125 612.84375 365.154296875 c 0,59,60
 556.682617188 192.640625 556.682617188 192.640625 483.276367188 6.55859375 c 2,61,-1
 480.7578125 0 l 1,62,-1
 473.44140625 0 l 1,63,-1
 380.225585938 0 l 1,64,-1
 370.526367188 0 l 1,65,-1
 369.782226562 9.2333984375 l 1,0,-1
EndSplineSet
EndChar

StartChar: X
Encoding: 88 88 59
Width: 550
VWidth: 1177
Flags: W
LayerCount: 2
Fore
SplineSet
454.395507812 0 m 1,0,-1
 452.724609375 8.0390625 l 2,1,2
 437.216796875 82.625 437.216796875 82.625 414.46875 158.219726562 c 0,3,4
 394.262695312 225.361328125 394.262695312 225.361328125 369.885742188 292.779296875 c 1,5,-1
 126.899414062 3.712890625 l 1,6,-1
 123.778320312 0 l 1,7,-1
 118.815429688 0 l 1,8,-1
 3.1748046875 0 l 1,9,-1
 -18 0 l 1,10,-1
 -4.5478515625 15.916015625 l 1,11,-1
 320.129882812 390.234375 l 1,12,-1
 193.254882812 715.932617188 l 1,13,-1
 188.165039062 729 l 1,14,-1
 203.021484375 729 l 1,15,-1
 313.217773438 729 l 1,16,-1
 320.61328125 729 l 1,17,-1
 323.0390625 722.279296875 l 1,18,-1
 412.572265625 474.203125 l 1,19,20
 462.484375 533.280273438 462.484375 533.280273438 509.768554688 592.5859375 c 0,21,22
 562.577148438 658.822265625 562.577148438 658.822265625 608.126953125 724.546875 c 2,23,-1
 611.213867188 729 l 1,24,-1
 616.77734375 729 l 1,25,-1
 728.174804688 729 l 1,26,-1
 747.21875 729 l 1,27,-1
 736.407226562 713.741210938 l 2,28,29
 676.180664062 628.744140625 676.180664062 628.744140625 602.486328125 541.819335938 c 0,30,31
 529.43359375 457.859375 529.43359375 457.859375 459.2265625 380.580078125 c 1,32,33
 461.0546875 376.051757812 461.0546875 376.051757812 462.852539062 371.5546875 c 128,-1,34
 464.651367188 367.057617188 464.651367188 367.057617188 466.43359375 362.557617188 c 128,-1,35
 468.213867188 358.05859375 468.213867188 358.05859375 469.984375 353.541015625 c 128,-1,36
 471.754882812 349.0234375 471.754882812 349.0234375 473.516601562 344.48046875 c 128,-1,37
 475.279296875 339.9375 475.279296875 339.9375 477.05078125 335.326171875 c 128,-1,38
 478.823242188 330.71484375 478.823242188 330.71484375 480.595703125 326.055664062 c 128,-1,39
 482.368164062 321.397460938 482.368164062 321.397460938 484.168945312 316.618164062 c 128,-1,40
 485.969726562 311.83984375 485.969726562 311.83984375 487.78125 306.991210938 c 128,-1,41
 489.592773438 302.142578125 489.592773438 302.142578125 491.453125 297.125976562 c 0,42,43
 509.182617188 249.280273438 509.182617188 249.280273438 525.34765625 200.4609375 c 128,-1,44
 541.52734375 151.59765625 541.52734375 151.59765625 555.100585938 103.208984375 c 128,-1,45
 568.6875 54.771484375 568.6875 54.771484375 578.1015625 11.68359375 c 2,46,-1
 580.654296875 0 l 1,47,-1
 567.916992188 0 l 1,48,-1
 462.91796875 0 l 1,49,-1
 454.395507812 0 l 1,0,-1
EndSplineSet
EndChar

StartChar: Y
Encoding: 89 89 60
Width: 550
VWidth: 1177
Flags: W
LayerCount: 2
Fore
SplineSet
762.815429688 729 m 1,0,-1
 753.3984375 714.158203125 l 2,1,2
 729.64453125 676.721679688 729.64453125 676.721679688 704.1640625 639.395507812 c 128,-1,3
 678.682617188 602.0703125 678.682617188 602.0703125 651.482421875 564.865234375 c 0,4,5
 623.221679688 527.66015625 623.221679688 527.66015625 592.640625 490.56640625 c 0,6,7
 547.360351562 435.64453125 547.360351562 435.64453125 499.24609375 380.546875 c 128,-1,8
 451.130859375 325.448242188 451.130859375 325.448242188 400.959960938 271.036132812 c 1,9,-1
 331.774414062 7.650390625 l 1,10,-1
 329.818359375 0 l 1,11,-1
 321.498046875 0 l 1,12,-1
 222.889648438 0 l 1,13,-1
 210.208007812 0 l 1,14,-1
 213.165039062 12.0029296875 l 1,15,-1
 277.692382812 272.881835938 l 1,16,17
 262.943359375 310.875976562 262.943359375 310.875976562 249.874023438 348.212890625 c 128,-1,18
 236.8046875 385.549804688 236.8046875 385.549804688 225.154296875 422.291015625 c 128,-1,19
 213.504882812 459.032226562 213.504882812 459.032226562 203.249023438 495.255859375 c 0,20,21
 172.086914062 605.326171875 172.086914062 605.326171875 154.997070312 717.84375 c 2,22,-1
 153.302734375 729 l 1,23,-1
 164.889648438 729 l 1,24,-1
 261.889648438 729 l 1,25,-1
 270.798828125 729 l 1,26,-1
 271.823242188 720.150390625 l 2,27,28
 283.290039062 625.794921875 283.290039062 625.794921875 310.081054688 524.42578125 c 0,29,30
 334.052734375 433.732421875 334.052734375 433.732421875 359.295898438 356.470703125 c 1,31,32
 365.584960938 364.311523438 365.584960938 364.311523438 371.87890625 372.186523438 c 128,-1,33
 378.17578125 380.061523438 378.17578125 380.061523438 384.5 387.99609375 c 128,-1,34
 390.82421875 395.930664062 390.82421875 395.930664062 397.203125 403.958007812 c 128,-1,35
 403.583007812 411.984375 403.583007812 411.984375 410.014648438 420.1015625 c 128,-1,36
 416.447265625 428.21875 416.447265625 428.21875 422.981445312 436.487304688 c 0,37,38
 461.98046875 485.837890625 461.98046875 485.837890625 498.33984375 535.6796875 c 128,-1,39
 534.75390625 585.59765625 534.75390625 585.59765625 568.521484375 634.006835938 c 128,-1,40
 602.323242188 682.46484375 602.323242188 682.46484375 630.828125 724.407226562 c 2,41,-1
 633.94921875 729 l 1,42,-1
 639.721679688 729 l 1,43,-1
 744.889648438 729 l 1,44,-1
 762.815429688 729 l 1,0,-1
EndSplineSet
EndChar

StartChar: Z
Encoding: 90 90 61
Width: 550
VWidth: 1177
Flags: W
LayerCount: 2
Fore
SplineSet
667.775390625 633.098632812 m 1,0,-1
 665.930664062 631.141601562 l 2,1,2
 617.03125 579.248046875 617.03125 579.248046875 551.73046875 507.801757812 c 0,3,4
 484.205078125 436.372070312 484.205078125 436.372070312 414.052734375 359.435546875 c 128,-1,5
 343.944335938 282.548828125 343.944335938 282.548828125 278.5546875 206.172851562 c 0,6,7
 250.142578125 172.986328125 250.142578125 172.986328125 224.501953125 141.532226562 c 128,-1,8
 198.862304688 110.078125 198.862304688 110.078125 177.294921875 82 c 1,9,-1
 531.8984375 82 l 1,10,-1
 545.083984375 82 l 1,11,-1
 542.107421875 72.34375 l 1,12,-1
 522.197265625 7.7431640625 l 1,13,-1
 520.315429688 0 l 1,14,-1
 511.987304688 0 l 1,15,-1
 25.6533203125 0 l 1,16,-1
 13 0 l 1,17,-1
 15.923828125 12.310546875 l 1,18,-1
 34.923828125 92.310546875 l 1,19,-1
 35.4150390625 94.3798828125 l 1,20,-1
 36.7060546875 96.0703125 l 2,21,22
 91.8046875 168.19921875 91.8046875 168.19921875 153.849609375 243.309570312 c 0,23,24
 217.842773438 318.391601562 217.842773438 318.391601562 282.88671875 391.473632812 c 128,-1,25
 347.92578125 464.548828125 347.92578125 464.548828125 412.4453125 534.126953125 c 0,26,27
 440.078125 563.92578125 440.078125 563.92578125 467.173828125 592.315429688 c 128,-1,28
 494.266601562 620.704101562 494.266601562 620.704101562 520.155273438 647 c 1,29,-1
 197.608398438 647 l 1,30,-1
 184.265625 647 l 1,31,-1
 187.426757812 656.748046875 l 1,32,-1
 208.385742188 721.369140625 l 1,33,-1
 210.3359375 729 l 1,34,-1
 218.56640625 729 l 1,35,-1
 677.653320312 729 l 1,36,-1
 690.270507812 729 l 1,37,-1
 687.388671875 716.715820312 l 1,38,-1
 668.388671875 635.715820312 l 1,39,-1
 667.775390625 633.098632812 l 1,0,-1
EndSplineSet
EndChar

StartChar: bracketleft
Encoding: 91 91 62
Width: 550
VWidth: 1177
Flags: W
LayerCount: 2
Fore
SplineSet
338.59765625 833 m 1,0,-1
 622.59765625 833 l 1,1,-1
 635.405273438 833 l 1,2,-1
 632.298828125 820.57421875 l 1,3,-1
 613.298828125 744.57421875 l 1,4,-1
 611.405273438 737 l 1,5,-1
 603.59765625 737 l 1,6,-1
 421.46875 737 l 1,7,-1
 217.301757812 -108 l 1,8,-1
 396.59765625 -108 l 1,9,-1
 409.5703125 -108 l 1,10,-1
 406.268554688 -120.544921875 l 1,11,-1
 386.268554688 -196.544921875 l 1,12,-1
 384.306640625 -204 l 1,13,-1
 376.59765625 -204 l 1,14,-1
 93.59765625 -204 l 1,15,-1
 80.9033203125 -204 l 1,16,-1
 83.875 -191.658203125 l 1,17,-1
 328.875 825.341796875 l 1,18,-1
 330.720703125 833 l 1,19,-1
 338.59765625 833 l 1,0,-1
EndSplineSet
Substitution2: "'case' Case-Sensitive Forms lookup 17 subtable" Bracketleft
EndChar

StartChar: backslash
Encoding: 92 92 63
Width: 550
VWidth: 1177
Flags: W
LayerCount: 2
Fore
SplineSet
243.130859375 833 m 1,0,-1
 341.130859375 833 l 1,1,-1
 350.366210938 833 l 1,2,-1
 351.098632812 823.793945312 l 1,3,-1
 432.098632812 -193.206054688 l 1,4,-1
 432.958984375 -204 l 1,5,-1
 422.130859375 -204 l 1,6,-1
 323.130859375 -204 l 1,7,-1
 313.88671875 -204 l 1,8,-1
 313.161132812 -194.784179688 l 1,9,-1
 233.161132812 822.215820312 l 1,10,-1
 232.313476562 833 l 1,11,-1
 243.130859375 833 l 1,0,-1
EndSplineSet
Substitution2: "'case' Case-Sensitive Forms lookup 17 subtable" Backslash
EndChar

StartChar: bracketright
Encoding: 93 93 64
Width: 550
VWidth: 1177
Flags: W
LayerCount: 2
Fore
SplineSet
302.547851562 -204 m 1,0,-1
 19.5478515625 -204 l 1,1,-1
 6.9033203125 -204 l 1,2,-1
 9.81640625 -191.6953125 l 1,3,-1
 27.8173828125 -115.6953125 l 1,4,-1
 29.6396484375 -108 l 1,5,-1
 37.5478515625 -108 l 1,6,-1
 221.676757812 -108 l 1,7,-1
 425.84375 737 l 1,8,-1
 246.547851562 737 l 1,9,-1
 233.90234375 737 l 1,10,-1
 236.81640625 749.3046875 l 1,11,-1
 254.81640625 825.3046875 l 1,12,-1
 256.639648438 833 l 1,13,-1
 264.547851562 833 l 1,14,-1
 547.547851562 833 l 1,15,-1
 560.243164062 833 l 1,16,-1
 557.26953125 820.658203125 l 1,17,-1
 312.26953125 -196.341796875 l 1,18,-1
 310.42578125 -204 l 1,19,-1
 302.547851562 -204 l 1,0,-1
EndSplineSet
Substitution2: "'case' Case-Sensitive Forms lookup 17 subtable" Bracketright
EndChar

StartChar: asciicircum
Encoding: 94 94 65
Width: 550
VWidth: 1177
Flags: W
LayerCount: 2
Fore
SplineSet
417.728515625 607.142578125 m 1,0,-1
 194.439453125 328.743164062 l 1,1,-1
 188.989257812 321.948242188 l 1,2,-1
 181.510742188 326.415039062 l 1,3,-1
 109.51171875 369.415039062 l 1,4,-1
 99.646484375 375.305664062 l 1,5,-1
 106.842773438 384.263671875 l 1,6,-1
 388.842773438 735.263671875 l 1,7,-1
 391.844726562 739 l 1,8,-1
 396.638671875 739 l 1,9,-1
 480.638671875 739 l 1,10,-1
 487.9609375 739 l 1,11,-1
 490.171875 732.018554688 l 1,12,-1
 604.172851562 372.018554688 l 1,13,-1
 606.859375 363.533203125 l 1,14,-1
 598.7421875 359.880859375 l 1,15,-1
 518.7421875 323.880859375 l 1,16,-1
 508.483398438 319.264648438 l 1,17,-1
 505.100585938 329.993164062 l 1,18,-1
 417.728515625 607.142578125 l 1,0,-1
EndSplineSet
EndChar

StartChar: underscore
Encoding: 95 95 66
Width: 550
VWidth: 1177
Flags: W
LayerCount: 2
Fore
SplineSet
-14.365234375 -102 m 1,0,-1
 512.634765625 -102 l 1,1,-1
 525.366210938 -102 l 1,2,-1
 522.349609375 -114.369140625 l 1,3,-1
 502.350585938 -196.369140625 l 1,4,-1
 500.489257812 -204 l 1,5,-1
 492.634765625 -204 l 1,6,-1
 -34.365234375 -204 l 1,7,-1
 -47.0966796875 -204 l 1,8,-1
 -44.080078125 -191.630859375 l 1,9,-1
 -24.0810546875 -109.630859375 l 1,10,-1
 -22.2197265625 -102 l 1,11,-1
 -14.365234375 -102 l 1,0,-1
EndSplineSet
EndChar

StartChar: grave
Encoding: 96 96 67
Width: 550
VWidth: 1177
Flags: W
LayerCount: 2
Fore
SplineSet
371.814453125 820.212890625 m 1,0,-1
 505.814453125 651.212890625 l 1,1,-1
 511.708984375 643.778320312 l 1,2,-1
 504.594726562 637.501953125 l 1,3,-1
 453.594726562 592.501953125 l 1,4,-1
 446.549804688 586.286132812 l 1,5,-1
 439.907226562 592.928710938 l 1,6,-1
 285.907226562 746.928710938 l 1,7,-1
 278.217773438 754.618164062 l 1,8,-1
 286.5234375 761.637695312 l 1,9,-1
 357.524414062 821.637695312 l 1,10,-1
 365.404296875 828.296875 l 1,11,-1
 371.814453125 820.212890625 l 1,0,-1
EndSplineSet
EndChar

